<?xml version="1.0" standalone="no"?>
<!DOCTYPE svg PUBLIC "-//W3C//DTD SVG 1.1//EN" "http://www.w3.org/Graphics/SVG/1.1/DTD/svg11.dtd" >
<svg xmlns="http://www.w3.org/2000/svg" xmlns:xlink="http://www.w3.org/1999/xlink" version="1.1">
<metadata></metadata>
<defs>
<font id="stink_on_the_deathitalic" horiz-adv-x="1241" >
<font-face units-per-em="2048" ascent="1536" descent="-512" />
<missing-glyph horiz-adv-x="245" />
<glyph horiz-adv-x="0" />
<glyph horiz-adv-x="682" />
<glyph unicode=" "  horiz-adv-x="245" />
<glyph unicode="&#x09;" horiz-adv-x="245" />
<glyph unicode="&#xa0;" horiz-adv-x="245" />
<glyph unicode="!" horiz-adv-x="626" d="M68 6q0 4 1 5t1 3q4 8 15 37t28.5 59.5t37 55t37.5 24.5q16 0 39 -10t23 -14q6 -6 6 -19q0 -35 -14.5 -82t-14.5 -90q0 -16 2 -22t2 -10q0 -12 -36 -13q-16 0 -32 1t-32 6h2q-37 0 -51 27.5t-14 41.5zM205 307q2 68 22.5 151t51 169t66.5 170t70 155.5t59.5 124.5 t37.5 78q2 4 8 22.5t14.5 40t14.5 43t6 31.5q0 6 8 6q12 0 31.5 -7t38 -19t32 -30.5t13.5 -41.5q0 -12 -4 -26.5t-10 -32.5q-6 -20 -37 -85t-73 -154t-90 -191.5t-88 -197.5t-66.5 -173t-26.5 -115q0 -16 7 -22t7 -10q0 -2 -8 -3q-41 0 -61.5 39t-22.5 78z" />
<glyph unicode="$" horiz-adv-x="942" d="M92 272q0 68 32 118t80 82t105.5 48.5t110.5 16.5q66 0 115 -15.5t77 -29.5v2q41 -20 57.5 -39t16.5 -39q0 -14 -8 -30.5t-18.5 -31t-19.5 -23.5t-13 -9q0 2 -15.5 18t-48.5 34.5t-84 34t-121 15.5q-41 0 -79.5 -11.5t-69.5 -33t-49.5 -50t-18.5 -61.5q0 -25 9.5 -49 t36 -44.5t71.5 -34t117 -13.5t128 19.5t96 45t64.5 51t34.5 38.5q20 39 29.5 64.5t9.5 51.5q0 55 -24.5 91t-62.5 58.5t-84 32t-88 13.5t-74.5 3t-43.5 -1h-38.5t-28.5 -4l-2 -2q-10 0 -11 18.5t-1 38.5t10 45t43 25q4 0 13 -1t15 -1t13 2q37 18 105.5 42.5t138 48t126 41 t68.5 21.5q6 0 10 1t8 1q21 0 31 -18q4 -4 8 -24.5t4 -28.5q0 -12 -4 -19q-35 -70 -54 -106.5t-19 -46.5q0 -8 2 -11q0 -2 2 -2q0 -4 -8 -4q-10 0 -26.5 2t-32 8.5t-27 15.5t-11.5 23q0 16 13 31h2q0 6 15 23.5t30 34.5q-31 -6 -67 -12.5t-72.5 -12.5t-72.5 -13.5t-63 -13.5 q49 -6 109.5 -24.5t120.5 -55.5q8 -6 29.5 -20t43 -41t38 -69t16.5 -101q0 -45 -11.5 -88t-36.5 -80q-10 -16 -39.5 -47t-76.5 -63.5t-115 -56t-154 -23.5q-57 0 -113.5 16t-100.5 47t-70.5 77t-26.5 105zM92 272q0 68 32 118t80 82t105.5 48.5t110.5 16.5q66 0 115 -15.5 t77 -29.5v2q41 -20 57.5 -39t16.5 -39q0 -14 -8 -30.5t-18.5 -31t-19.5 -23.5t-13 -9q0 2 -15.5 18t-48.5 34.5t-84 34t-121 15.5q-41 0 -79.5 -11.5t-69.5 -33t-49.5 -50t-18.5 -61.5q0 -25 9.5 -49t36 -44.5t71.5 -34t117 -13.5t128 19.5t96 45t64.5 51t34.5 38.5 q20 39 29.5 64.5t9.5 51.5q0 55 -24.5 91t-62.5 58.5t-84 32t-88 13.5t-74.5 3t-43.5 -1h-38.5t-28.5 -4l-2 -2q-10 0 -11 18.5t-1 38.5t10 45t43 25q4 0 13 -1t15 -1t13 2q37 18 105.5 42.5t138 48t126 41t68.5 21.5q6 0 10 1t8 1q21 0 31 -18q4 -4 8 -24.5t4 -28.5 q0 -12 -4 -19q-35 -70 -54 -106.5t-19 -46.5q0 -8 2 -11q0 -2 2 -2q0 -4 -8 -4q-10 0 -26.5 2t-32 8.5t-27 15.5t-11.5 23q0 16 13 31h2q0 6 15 23.5t30 34.5q-31 -6 -67 -12.5t-72.5 -12.5t-72.5 -13.5t-63 -13.5q49 -6 109.5 -24.5t120.5 -55.5q8 -6 29.5 -20t43 -41 t38 -69t16.5 -101q0 -45 -11.5 -88t-36.5 -80q-10 -16 -39.5 -47t-76.5 -63.5t-115 -56t-154 -23.5q-57 0 -113.5 16t-100.5 47t-70.5 77t-26.5 105zM229 104q6 45 30 113t54.5 142.5t65.5 151.5t65.5 142.5t53 111.5t28.5 62q2 6 11 19q0 2 5 14t11 28.5t11 32t5 21.5 t8.5 3t17.5 -13t16 -27.5t5 -38.5q-4 -20 -14 -43q-6 -12 -31.5 -67.5t-63.5 -133t-80 -169t-79 -173t-62.5 -147t-29.5 -92.5q-2 -14 0 -19.5t2 -7.5h-4q-18 4 -23.5 33t-1.5 57zM326 41q6 45 29.5 112.5t54 142.5t65.5 151.5t65.5 142t53 112t29.5 62.5q2 6 10 18 q0 2 5 14.5t11 29t11.5 32t5.5 21.5t8 3t17 -13.5t16.5 -28t5.5 -37.5q-4 -20 -15 -43q-4 -12 -30.5 -67.5t-64.5 -133.5t-80 -169t-78.5 -173t-62.5 -147.5t-30 -92.5q-2 -14 0 -19t2 -7h-4q-18 4 -23 32.5t-1 57.5z" />
<glyph unicode="'" horiz-adv-x="286" d="M219 637l11 25q12 26 26 58t25.5 63.5t11.5 47.5q0 8 -2 11.5t-2 5.5q0 14 35 14q33 0 45 -14t12 -25q0 -6 -16.5 -39.5t-37 -71.5t-41 -70t-30.5 -32q-12 0 -23.5 8.5t-9.5 12.5q-4 4 -4 6z" />
<glyph unicode="(" horiz-adv-x="696" d="M35 -74q0 43 33.5 123t86 176.5t116 203t124 204.5t110.5 181t77 132q18 37 33.5 77t27.5 73.5t22.5 56.5t20.5 23q4 0 5 -1.5t7 -5.5q6 -12 7 -39q0 -53 -37 -150t-92.5 -216t-119 -248t-118.5 -246.5t-92 -214t-37 -149.5q0 -27 8 -46.5t8 -35.5q0 -12 -28.5 -20.5 t-51.5 -8.5q-16 0 -35.5 5t-36 20.5t-27.5 40t-11 65.5z" />
<glyph unicode=")" horiz-adv-x="727" d="M-14 -160q0 53 36.5 150.5t92 216.5t119 248t119 246.5t92 214t36.5 149.5q0 27 -8 46t-8 36q0 12 28.5 20.5t51.5 8.5q16 0 35.5 -5.5t36 -20.5t27.5 -41t11 -65q0 -43 -33.5 -122.5t-86 -176t-116 -203t-123.5 -204.5t-111.5 -181t-75.5 -132q-18 -37 -34 -77t-28 -74 t-23.5 -56.5t-19.5 -22.5q-4 0 -5 1t-7 5q-6 12 -6 39z" />
<glyph unicode="*" horiz-adv-x="425" d="M160 852q0 4 2 13t4 9q20 -20 42.5 -26t57.5 -8q-57 47 -57 82q0 29 22.5 49t30.5 20l-2 -2q0 -2 8 -12t21.5 -25.5t30 -33t32.5 -33.5q2 8 4 14l4 12v-2l4 19q5 18 9 39.5t8 40t8 18.5q18 0 46 -12.5t32 -40.5q0 -14 -3 -32.5t-13 -51.5q72 45 71 82q10 0 16.5 -15.5 t6.5 -25.5q0 -29 -19 -58l-18 -24h22q43 -6 56.5 -24.5t13.5 -49.5q0 -33 -8 -33q-2 0 -41 6.5t-84 6.5q16 -23 28.5 -47.5t12.5 -53.5q0 -18 -7 -33.5t-24 -21.5l-4 -2q0 2 1 5t1 7q0 23 -21.5 44.5t-50.5 49.5q-8 -29 -15 -43t-7 -36q0 -16 2 -24.5t4 -12.5t4 -6t4 -5 q-2 -2 -6 -2h-8q-18 0 -31.5 13.5t-20.5 33t-10.5 40t-3.5 34.5q0 4 1 9.5t1 9.5q-4 -4 -11 -8.5t-11 -4.5q-2 -2 -14.5 -9t-25.5 -16t-24.5 -17.5t-11.5 -12.5q0 -2 -2 -2q-8 0 -22.5 21.5t-14.5 46.5q0 16 12.5 32.5t47.5 32.5q-23 4 -51.5 25.5t-28.5 50.5z" />
<glyph unicode="+" horiz-adv-x="645" d="M23 479q0 6 2 17.5t6 11.5q4 -2 6 -9t16 -14q41 -18 96.5 -21t118.5 -3q4 16 12.5 42.5t15.5 58.5t14 66t9 64q0 11 -2 13q-2 8 17 8q12 0 30.5 -5.5t34 -15.5t26.5 -25.5t11 -37.5q0 -23 -9 -58.5t-32 -101.5q31 2 56.5 3t46.5 1q76 0 98 -28.5t22 -71.5q0 -18 -4 -30.5 t-8 -12.5h4q0 4 -25.5 8t-64.5 6t-83 3t-83 1q-14 -47 -24.5 -93t-10.5 -87t8.5 -49t12.5 -13q-2 -2 -7 -3t-9 -1q-27 0 -44.5 17.5t-26.5 43t-12 53.5t-3 48q0 23 2 45.5t6 44.5q-35 2 -75 10.5t-72.5 23.5t-54 38t-21.5 53z" />
<glyph unicode="," horiz-adv-x="405" d="M33 -94q4 0 8 -1t16 3q16 6 45 39t58.5 69.5t55.5 68.5t36 40q4 6 14 6l8 -2q9 -2 19 -5t20.5 -8t14.5 -12q6 -8 -4.5 -31.5t-30 -56t-43 -67.5t-46 -65.5t-38.5 -52t-21 -26.5q-2 0 -2 -2l-2 -4q-16 -4 -32.5 3.5t-32 18.5t-27.5 25.5t-16 26.5q-8 25 0 33z" />
<glyph unicode="-" horiz-adv-x="669" d="M43 326q-16 35 8.5 64.5t54.5 45.5q47 23 122 28t152 6t143 5.5t95 22.5q6 4 11.5 -12.5t4.5 -39t-11.5 -46t-34.5 -33.5q-10 -4 -22.5 -6.5t-28.5 -4.5q-29 -4 -88.5 2.5t-128 9.5t-138 0t-114.5 -24q-14 -6 -16.5 -13t-6.5 -9q-2 0 -2 4z" />
<glyph unicode="." horiz-adv-x="288" d="M162 -61q0 6 5 8t17 12q12 12 25.5 31.5t27 37t25 31t21.5 13.5q10 2 31.5 -10.5t21.5 -34.5q0 -20 -6 -48t-17.5 -52.5t-29 -41t-37.5 -16.5q-10 0 -24.5 8t-28 19.5t-22.5 22.5t-9 20z" />
<glyph unicode="/" horiz-adv-x="454" d="M10 -156q6 98 42 214t86 237t106.5 238.5t104.5 219t80 180.5t32 120q0 6 8 6q12 0 31.5 -7.5t38 -19.5t32 -30.5t13.5 -40.5q0 -12 -4.5 -26.5t-10.5 -33.5q-6 -18 -44 -100t-91 -195.5t-114.5 -246t-112.5 -252t-85 -214t-34 -131.5q0 -16 7 -22t7 -10q0 -2 -8 -2 q-41 0 -61.5 38.5t-22.5 77.5z" />
<glyph unicode="0" horiz-adv-x="876" d="M37 279q0 127 42 228t101.5 173t126 110.5t115.5 43.5q25 2 43 -16.5t30.5 -43t18.5 -48.5t6 -32t-10 -11t-27.5 -7t-41 -11.5t-50.5 -21.5q-12 -6 -50 -34.5t-78 -81t-71.5 -127t-31.5 -173.5q0 -61 16.5 -111t44 -85t63 -53.5t74.5 -18.5q55 0 117 32t113 97.5 t85 165.5t34 238q0 80 -18.5 135t-43 91t-48.5 56.5t-36 28.5q-35 23 -71.5 41t-57.5 14q-10 -2 -5 17.5t20.5 44t37 45t45.5 20.5q18 0 47 -14.5t62 -32.5q20 -10 54 -40t68 -79t58.5 -118.5t24.5 -157.5q0 -72 -15.5 -143.5t-43 -138t-65.5 -124t-83 -100.5 q-10 -10 -33.5 -32.5t-63.5 -46.5t-94.5 -42t-126.5 -18t-125 36.5t-87.5 93t-52 123t-17.5 128.5z" />
<glyph unicode="1" horiz-adv-x="829" d="M63 309q0 33 34 97.5t86.5 139.5t117 150.5t125.5 134.5q20 20 55 48t72 51.5t72.5 38t60.5 12.5q31 -4 60.5 -18.5t29.5 -57.5q0 -12 -4 -26.5t-10 -32.5q-6 -20 -37 -85t-73 -154t-90 -191.5t-88 -197.5t-66.5 -173t-26.5 -115q0 -16 7 -22t7 -10q0 -2 -8 -2 q-41 0 -61.5 38.5t-22.5 77.5q2 68 23.5 151t53.5 168t68.5 169t69.5 155.5t57.5 126t32.5 80.5q-25 0 -59.5 -35.5t-74.5 -92t-81 -123t-74.5 -129t-58 -110.5t-33.5 -67q-16 -35 -16 -60.5t-16 -25.5q-10 0 -32 4t-44.5 13.5t-39 27t-16.5 45.5z" />
<glyph unicode="2" horiz-adv-x="1042" d="M47 473q0 90 42 180t112.5 163t165 119t198.5 46q68 0 115 -23.5t79 -62.5t47 -88t19 -100q0 -115 -62.5 -223.5t-158.5 -211.5q-66 -70 -121 -116.5t-101 -78.5t-82 -49.5t-60 -25.5q70 -29 108.5 -48.5t72.5 -30.5t75 -16t118 -5q47 0 86 9t69 20.5t48.5 23.5t24.5 18 q18 20 29.5 39t17.5 33t10 23.5t8 9.5q8 0 20.5 -6.5t28.5 -16.5q23 -12 39.5 -28.5t16.5 -44.5q0 -59 -31 -103.5t-85 -71t-128 -36t-162 3.5q-59 8 -134 37.5t-143.5 62.5t-120.5 60.5t-71 31.5q-37 0 -44 35t-7 68q0 16 1 28.5t11 12.5q4 0 12.5 -4.5t18.5 -4.5 q14 0 31 7q33 12 60.5 19t66.5 27.5t94 64.5t141 130q49 49 89 101.5t69 103.5t44 99t15 87q0 53 -46 86t-105 33q-86 0 -156 -41t-119 -100.5t-75.5 -129t-26.5 -124.5q0 -68 17.5 -105.5t39 -57t39 -27t17.5 -15.5q0 -6 -8.5 -19.5t-22.5 -28.5t-31.5 -26.5t-36.5 -11.5 q-20 0 -41.5 12.5t-48.5 44.5v2v-2l-15 13q-14 14 -30 43.5t-29.5 75t-13.5 110.5z" />
<glyph unicode="3" horiz-adv-x="985" d="M35 133q0 86 43 148.5t106.5 102.5t136 59.5t132.5 19.5q84 0 142 -15.5t95 -37t53.5 -44t16.5 -38.5q0 -18 -9.5 -39t-20.5 -39.5t-21.5 -29.5t-14.5 -11l-18 17q-19 18 -56.5 38.5t-96 37.5t-136.5 17q-51 0 -103.5 -14t-94.5 -40.5t-68.5 -64.5t-26.5 -83 q0 -31 11.5 -60.5t41 -54.5t81 -39t130.5 -14q68 0 150 23.5t152.5 69.5t117.5 110.5t47 148.5q0 78 -35.5 122t-77.5 70.5t-78 44t-36 44.5q0 37 14.5 71.5t37 68.5t49 70.5t51.5 77.5q-25 -4 -74 -7t-107.5 -7t-120 -8t-110.5 -8q59 -39 79.5 -56.5t20.5 -40.5 q0 -16 -13 -29.5t-31.5 -24.5t-36 -17t-25.5 -6q-4 0 -4 10q0 4 -30 53t-101 109q-16 12 -18.5 26.5t-2.5 36.5q0 31 8.5 49.5t48.5 18.5q14 0 81 -3t152 -9.5t173 -14.5t143 -16q8 23 8.5 41t8.5 18t29.5 -6t42 -17.5t37 -29t16.5 -39.5q0 -27 -23.5 -53.5t-58.5 -59 t-77 -72t-81 -90.5q59 -12 108.5 -43.5t84 -77.5t53 -102.5t18.5 -120.5q0 -96 -48 -179t-127 -142t-176 -93t-196 -34q-68 0 -134 20.5t-117.5 59.5t-83 96t-31.5 131z" />
<glyph unicode="4" horiz-adv-x="774" d="M29 158q0 35 18.5 109.5t47 163.5t61 182.5t61.5 168t47.5 119.5t18.5 37q0 14 -4.5 23.5t-4.5 13.5q0 12 33 12q16 0 37 -2t38 -10t29.5 -22.5t12.5 -41.5t-12 -59v2q0 -16 -21.5 -67.5t-54.5 -124t-71 -155.5t-71.5 -164t-58 -148.5t-29.5 -108.5q12 -6 27 -6 q37 0 113 14.5t157 30.5q66 154 110 254t44 117h-2q6 16 4 28.5t-2 28.5q0 12 33 12q16 0 35.5 -3t37 -11t30 -23.5t12.5 -40.5q0 -16 -8.5 -38.5t-26 -61.5t-45 -94t-68.5 -135q55 10 82 17.5t39 23.5q2 6 8 6q4 0 12.5 -10.5t16.5 -25.5t14 -34.5t6 -36.5q0 -27 -6 -41 t-30.5 -23t-75 -15.5t-138.5 -12.5q-29 -59 -46 -110.5t-17 -81.5q0 -18 9 -26.5t9 -12.5t-8 -4q-84 23 -84 118q0 33 2 58.5t8 52.5q-16 -2 -30.5 -2h-30.5q-129 0 -198.5 31.5t-69.5 128.5z" />
<glyph unicode="5" horiz-adv-x="970" d="M78 150q0 45 17.5 93t52 86t87 62.5t121.5 24.5q76 0 124 -18.5t77 -42t40 -46t11 -33.5q0 -14 -7 -32.5t-18.5 -36t-24.5 -28.5t-28 -11q-6 0 -11 9t-15 22.5t-32.5 29t-61.5 29.5q-16 8 -38 13t-46 5q-76 0 -121 -54t-45 -134q0 -14 9 -43t29.5 -58.5t55.5 -51 t84 -21.5q29 0 64.5 -2t89.5 20q68 25 124 80.5t95 121t60.5 134t21.5 119.5q0 27 -26 47.5t-70 33.5t-104.5 20.5t-129.5 7.5q-90 0 -143.5 -14.5t-69.5 -14.5q-53 12 -69.5 45t-16.5 72q0 45 12 90t41 110q31 70 41 105t10 69q0 12 -1 16.5t-1 8.5q0 6 15 6q14 0 36.5 -3 t43 -10t36 -21.5t17.5 -36.5q63 10 139 21t144.5 20.5t119.5 15.5t64 6q41 0 51 -20.5t10 -67.5q0 -23 -16 -39q-66 -66 -94.5 -115t-28.5 -55q0 -4 1 -5t1 -3q0 -6 -6 -6q-8 0 -26.5 6t-37 16t-33 23.5t-14.5 29.5q0 20 19.5 40t76.5 61q-55 2 -123.5 3t-132.5 1 q-41 0 -73.5 -1t-59.5 -1q-10 -23 -31.5 -59.5t-45 -77.5t-45 -83t-31.5 -77q23 8 105.5 24.5t215.5 16.5q63 0 129 -4t119 -23.5t87 -58.5t34 -109q0 -111 -51.5 -210t-129 -174.5t-171 -120t-177.5 -44.5q-20 0 -40.5 2.5t-43.5 6.5q-25 4 -65.5 19t-79.5 48t-67.5 87.5 t-28.5 138.5z" />
<glyph unicode="6" horiz-adv-x="806" d="M51 215q0 86 21.5 180t58.5 172q57 123 117.5 200t110 120t84 60.5t40.5 23.5q55 29 97 28q27 0 47 -13t34.5 -30.5t21.5 -35t7 -25.5q0 -10 -22.5 -12t-53.5 -19q-14 -8 -53 -30.5t-88 -61.5t-104.5 -95t-100.5 -132t-74.5 -173.5t-29.5 -215.5q0 -80 17.5 -124 t44 -65.5t59 -27t63.5 -5.5q72 0 119 33t75.5 80t40 101.5t11.5 95.5q0 59 -17.5 97t-40 60.5t-43 33.5t-28.5 16q-41 20 -74 24t-33 14q0 2 6.5 26t20.5 50.5t40 48t67 21.5q23 0 48 -8.5t58 -24.5q27 -16 56.5 -43t55 -64.5t42 -88t16.5 -113.5q0 -57 -21.5 -134 t-70.5 -145.5t-129 -117t-197 -48.5q-49 0 -91 16.5t-75.5 42t-58.5 57.5t-37 63q0 4 -2 6q-18 35 -26.5 82t-8.5 100z" />
<glyph unicode="7" horiz-adv-x="954" d="M31 580q0 88 33.5 166.5t84 136t110.5 91.5t116 34q29 0 46 -17.5t27.5 -41t13.5 -47t3 -36.5q0 -18 -10 -18q-4 0 -9.5 2t-11.5 2q-37 0 -90 -22.5t-102 -65.5t-84 -103.5t-35 -134.5q0 -29 9 -56.5t27.5 -50t46 -36.5t64.5 -14q92 0 184.5 77.5t182.5 202.5 q12 18 31.5 43t38 54.5t32 61.5t13.5 66q0 14 -5.5 25.5t-5.5 15.5q0 8 20.5 10.5t47.5 2.5q18 0 41 -5.5t39 -19.5q12 -10 20.5 -24.5t8.5 -36.5q0 -27 -11 -56h-2q-4 -16 -29.5 -77.5t-64.5 -149.5t-84 -191.5t-84 -201.5q63 0 106.5 9t43.5 34v6t2 4t8 -12t6 -39 q0 -33 -19.5 -54.5t-50 -34.5t-67.5 -20.5t-72 -9.5q-29 -76 -46 -135t-17 -92q0 -20 8 -26.5t8 -10.5q0 -2 -8 -2q-45 0 -65.5 41t-20.5 86q0 29 4 63.5t14 69.5q-57 -4 -92 -10t-49 -25l-4 -4q-4 0 -10.5 9.5t-14.5 24.5t-13 32.5t-5 33.5q0 29 16.5 49.5t56.5 22.5v-2 q4 0 11.5 1t17.5 1q23 0 54.5 -2t68.5 -4q16 57 44 127t60 149q-78 -66 -158.5 -104.5t-170.5 -38.5q-63 0 -111.5 22.5t-81.5 60.5t-49 88t-16 106z" />
<glyph unicode="8" horiz-adv-x="821" d="M35 180q0 88 34.5 154.5t84 113t102.5 72t88 35.5q-37 23 -62.5 73t-25.5 111q0 82 33 131.5t73 73.5q47 29 107 39h45q23 0 57.5 -15.5t67.5 -45t56.5 -72.5t23.5 -96q0 -49 -17.5 -86t-43 -65t-53 -46t-48.5 -27q12 -6 25.5 -14t27.5 -18q59 -33 100.5 -115t41.5 -180 q0 -76 -27 -142q-35 -86 -88 -135t-102.5 -72.5t-84.5 -28.5l-36 -5q-16 0 -35 -1t-45 3q-33 4 -83 28.5t-98.5 70.5t-83 110.5t-34.5 148.5zM150 209q0 -35 12 -66.5t30.5 -59.5t40 -48.5t39.5 -30.5q29 -16 48.5 -23.5t32 -9.5t20.5 -1t16 -1q35 4 61.5 9.5t50 17.5 t46 33.5t49.5 58.5q27 35 38 79t11 91q0 74 -22.5 123t-56.5 78.5t-74.5 43t-79.5 13.5q-49 2 -96.5 -23.5t-84 -68.5t-59 -99.5t-22.5 -115.5zM358 680q0 -35 10.5 -58.5t27 -38t36 -19.5t35.5 -5q2 0 4 1t6 1q8 2 28.5 8t42 23.5t39 48.5t17.5 80q0 41 -18.5 64.5 t-41 34.5t-40 13.5t-15.5 2.5q-2 0 -30.5 -3.5t-67.5 -48.5q-16 -16 -24.5 -45.5t-8.5 -58.5z" />
<glyph unicode="9" horiz-adv-x="802" d="M39 498q0 55 14.5 120.5t50 130t94 121t146.5 93.5q66 27 127 26q33 0 72 -11t75.5 -35.5t65.5 -62.5t41 -89q27 -68 27 -162q0 -80 -19.5 -165t-54.5 -163q-55 -123 -110.5 -199.5t-102.5 -119.5t-80 -60.5t-39 -21.5q-51 -29 -90 -29q-25 0 -44 13.5t-32.5 31.5 t-20.5 35.5t-7 23.5q0 10 22.5 12.5t48.5 18.5q33 18 70 39t78 57.5t89 97t101 158.5q45 82 65.5 168t20.5 158q0 76 -15.5 119t-39 65.5t-53 28.5t-56.5 6q-74 0 -126 -40t-85.5 -97t-49 -119.5t-15.5 -107.5q0 -29 6 -43q25 -88 62.5 -125t71.5 -49.5t58.5 -12.5t24.5 -12 q0 -6 -6 -28.5t-21.5 -49t-41 -47t-62.5 -20.5q-31 0 -70 18v2q-27 10 -59.5 34.5t-62 64.5t-49 96.5t-19.5 130.5z" />
<glyph unicode=":" horiz-adv-x="344" d="M47 225q0 6 5 7t18 12q12 12 25.5 31.5t26.5 37t24.5 30.5t21.5 13t30.5 -11t20.5 -34t-8 -46t-17.5 -43.5t-16.5 -35t-7 -16.5q-4 -4 -15.5 -9t-23.5 -5q-20 0 -35 14q-16 10 -32.5 29.5t-16.5 25.5zM98 569q0 6 5.5 7.5t17.5 11.5q12 12 25.5 31.5t25.5 37t23.5 30.5 t21.5 13t30.5 -12t20.5 -35q0 -20 -7 -43.5t-16 -44t-16.5 -35t-7.5 -16.5q-4 -4 -15 -9t-26 -5q-18 0 -33 14q-16 10 -32.5 28.5t-16.5 26.5z" />
<glyph unicode=";" horiz-adv-x="344" d="M-6 80q4 2 8 2t14 8q14 10 32 49t36 83t32.5 83t22.5 49q7 9 13 11q0 2 27.5 1t39.5 -10q8 -6 5 -31.5t-11 -62.5t-21.5 -78t-25.5 -76.5t-22.5 -61.5t-12.5 -30v-2l-2 -4q-12 -8 -30.5 -7t-37 8t-34 17.5t-23.5 20.5q-14 20 -10 31zM180 469q-2 29 10.5 64.5t12.5 70.5 q0 12 -2 16.5t-2 8.5q2 6 9 7t19 3q12 0 24.5 -1t27.5 -3h-3q29 -2 40.5 -23.5t11.5 -31.5q0 -2 -2 -5v-2q-4 -8 -13.5 -30.5t-23 -47t-27.5 -43t-29 -18.5q-16 0 -33.5 8.5t-15.5 12.5q-8 4 -4 14z" />
<glyph unicode="&#x3c;" horiz-adv-x="530" d="M10 313q0 55 30 96.5t76 75t99 61t100 53.5t79 53.5t36 62.5q0 4 4 4q10 0 30.5 -31t20.5 -65q0 -39 -42 -68t-105.5 -61.5t-135 -74.5t-132.5 -106q51 -39 114.5 -57t119.5 -34.5t94 -38t38 -64.5q0 -31 -11 -57.5t-17 -26.5q-5 0 -5 4q-10 18 -28.5 31.5t-40 22.5 t-42 14.5t-34.5 9.5q-57 14 -103 39.5t-78 55.5t-49.5 56.5t-17.5 44.5z" />
<glyph unicode="=" horiz-adv-x="690" d="M51 195q-16 35 8.5 64.5t55.5 45.5q47 23 124.5 30t155.5 8t143.5 4.5t88.5 19.5q6 6 11 -10.5t4 -40t-11 -47t-35 -33.5q-10 -4 -22.5 -6.5t-28.5 -4.5q-29 -4 -88.5 2t-128 9.5t-138 0t-114.5 -23.5q-14 -6 -16.5 -13t-6.5 -10q-2 0 -2 5zM51 446q-16 35 8.5 65 t55.5 46q47 23 122.5 30t154.5 9t144.5 5t90.5 17q8 4 13 -12t3 -38.5t-12 -46t-35 -34.5q-10 -4 -22.5 -6t-28.5 -4q-29 -4 -88.5 2t-128 9.5t-138 0t-114.5 -23.5q-14 -6 -16.5 -13.5t-6.5 -9.5q-2 0 -2 4z" />
<glyph unicode="&#x3e;" horiz-adv-x="532" d="M57 623q0 35 20.5 65.5t31.5 30.5q4 0 4 -4q4 -35 35.5 -62.5t78.5 -53.5t100.5 -53.5t99.5 -61t75.5 -74.5t29.5 -97q0 -41 -43 -77.5t-104 -71.5t-129 -66.5t-117 -58.5q0 -4 -4 -4q-6 0 -17.5 26.5t-11.5 57.5q0 43 38 64.5t94.5 38t120 34.5t114.5 57 q-61 63 -133 105.5t-135.5 75t-105.5 61.5t-42 68z" />
<glyph unicode="?" horiz-adv-x="858" d="M94 33q0 4 1 5t1 3q4 8 15.5 36.5t29 59.5t37 55.5t37.5 24.5q16 0 38.5 -10t22.5 -14q6 -6 7 -19q0 -35 -14.5 -82t-14.5 -90q0 -16 2 -22.5t2 -10.5q0 -12 -37 -12q-16 0 -31.5 1t-31.5 5h2q-37 0 -51.5 27.5t-14.5 42.5zM123 844q0 84 36 171t97 157.5t140 115.5 t165 45q57 0 104.5 -23.5t79 -63.5t49 -92t17.5 -110q0 -86 -36 -178t-89 -182q-45 -78 -91 -132t-87 -91t-75 -59.5t-54 -34.5q-31 -53 -46 -80t-38 -56q-6 -10 -25.5 -10t-39 7.5t-30 16.5t4.5 17q20 33 41 66q16 29 33.5 59.5t31.5 52.5q27 18 51.5 31.5t56.5 40.5t74 78 t103 147q57 92 90 184.5t33 163.5q0 57 -31 98.5t-96 41.5q-63 0 -120.5 -36t-100.5 -91.5t-69 -123t-26 -128.5q0 -43 9.5 -75t21.5 -55.5t25.5 -37.5t21.5 -21q29 -29 52.5 -37t23.5 -10q0 -8 -6 -24.5t-17.5 -32.5t-28 -28.5t-34.5 -12.5q-14 0 -24.5 2t-21.5 7 t-25.5 16.5t-34.5 29.5q-10 10 -29 32t-38 56.5t-33.5 81.5t-14.5 107z" />
<glyph unicode="@" horiz-adv-x="1335" d="M143 225q0 96 39 214t114 220.5t184.5 172t250.5 69.5q104 0 190.5 -44t145.5 -115.5t92 -166t33 -194.5q0 -137 -34 -226t-76 -141.5t-80.5 -73t-47.5 -20.5q-23 0 -40 14.5t-31.5 33t-21.5 35.5t-7 24q0 -12 27.5 -2t61.5 52t63.5 120.5t33.5 203.5q2 59 -16 124 t-57 118t-96.5 89t-133.5 38q-104 0 -196 -49t-161 -130t-110 -183.5t-41 -206.5q0 -76 21.5 -139.5t59.5 -109.5t91.5 -72.5t118.5 -26.5q57 0 96 17t62.5 45t34 63.5t10.5 74.5q0 41 -8 50.5t-8 17.5q-18 -23 -43 -49.5t-52.5 -49t-57.5 -37t-62 -14.5q-37 0 -63 16.5 t-43 44t-24.5 61.5t-7.5 71q0 80 27 161t76 148.5t120.5 114.5t161.5 57q102 8 154.5 -24.5t52.5 -75.5q0 -16 -9 -33.5t-20.5 -32t-21.5 -24t-14 -9.5t-11.5 9.5t-19.5 21.5t-30.5 21.5t-45.5 9.5q-70 0 -122 -44t-89 -106.5t-56.5 -128t-21.5 -108.5q0 -8 1 -21.5t4.5 -26 t7.5 -20.5t10 -8q29 0 54.5 18.5t47 46t40 62.5t32.5 68q4 4 11 37.5t22.5 71.5t41 69t62.5 31q23 0 43.5 -9.5t34.5 -20.5t22.5 -21.5t8.5 -12.5v4q-4 0 -24.5 -33.5t-45 -84t-46 -111t-28.5 -113.5q-16 -109 -76.5 -176.5t-193.5 -67.5q-72 0 -139.5 29t-118.5 83t-82 133 t-31 177z" />
<glyph unicode="A" d="M27 236q0 106 47 199t120.5 163t164 110t176.5 40q55 0 110 -12.5t99 -37t71 -58.5t27 -77q0 -18 -12.5 -35.5t-28 -32t-29.5 -22.5t-18 -8q-10 0 -15.5 20.5t-29.5 38.5q2 -2 -7.5 7.5t-29 20.5t-51 20.5t-74.5 9.5q-66 0 -138.5 -31t-134 -84t-101.5 -126t-40 -157 q0 -23 4 -45t17.5 -42.5t39 -33t68.5 -12.5q51 0 107.5 21.5t114 59.5t116.5 89t119 111q-25 2 -43.5 2h-28.5q-16 -2 -29.5 -4t-23.5 -4q-10 -4 -21 -7q-4 0 -11 9.5t-13 24t-10 30.5t-4 31q0 29 22.5 44t87.5 15q18 0 57 -6t111 -27q78 94 137.5 183.5t100.5 159 t61.5 114.5t20.5 51q0 10 -3.5 18.5t-3.5 12.5q0 12 25 12q12 0 33.5 -2t44 -11t39 -25.5t16.5 -43.5q0 -25 -18 -57q-2 -6 -29 -47t-70 -104.5t-101 -141.5t-126 -158q37 -12 74 -22t59 -21q31 78 66 159t65.5 148.5t52 116.5t27.5 66q0 6 4 14t4 19q0 12 -3 21t-3 13 q0 11 23 11q18 0 39.5 -2t40 -10.5t32 -24t13.5 -39.5q0 -23 -56.5 -141.5t-169.5 -362.5q12 0 13 -8q0 -10 -8.5 -16.5t-16.5 -6.5q-47 -100 -80 -185t-33 -128q0 -20 8.5 -26.5t8.5 -10.5q0 -2 -2 -2h-6q-41 0 -61.5 39t-20.5 78q0 47 13 106.5t34 122.5q-43 0 -92.5 2 t-98.5 6q-59 -63 -124.5 -124.5t-136 -108.5t-143.5 -77t-145 -32h-17q-124 1 -196 55q-78 58 -77 206z" />
<glyph unicode="B" horiz-adv-x="917" d="M20 205q0 39 12.5 81t40 78.5t70.5 63.5t107 39q33 80 56.5 128t36.5 76.5t19.5 44t6.5 27.5t-4.5 21.5t-4.5 13.5q0 10 23 10q14 0 36.5 -2t42 -9t34 -22.5t14.5 -41.5q0 -29 -14 -60q-6 -20 -34 -73.5t-63 -124.5q90 -29 121 -63t31 -60q0 -14 -7 -32.5t-18.5 -36 t-25 -30t-25.5 -12.5q-6 0 -20.5 18.5t-38.5 36.5q-6 4 -21.5 18.5t-62.5 27.5q-37 -78 -64.5 -148t-27.5 -108q0 -18 9 -26.5t9 -12.5q0 -2 -2 -2h-6q-25 0 -41 13t-25.5 32.5t-12.5 42t-3 43.5q0 41 7 79.5t20 79.5q-43 -20 -70 -71q-24 -44 -24 -90q0 -7 1 -13 q2 -23 9.5 -51.5t29 -56t59.5 -46t99 -18.5q102 0 191.5 45t156 114t104 151.5t37.5 160.5q0 35 -17 49.5t-40 22.5q-41 -39 -85 -55.5t-85 -16.5q-20 0 -35.5 9.5t-27 23.5t-16.5 28.5t-5 26.5q0 6 9.5 22.5t35 35t69.5 33t116 14.5q18 0 23 4t5 14q0 35 -8 72t-26.5 66.5 t-48 49t-74.5 19.5q-66 0 -119 -10t-94 -23.5t-69 -28t-40 -20.5q-45 -25 -65.5 -53.5t-12.5 -28.5q-6 0 -18.5 9.5t-26.5 23.5t-24.5 31.5t-10.5 36.5q0 23 15.5 46t56.5 54q10 8 39 23.5t71 31t95 27.5t114 12q45 0 102.5 -10t108 -39t85 -83t34.5 -142q0 -27 -3 -51.5 t-11 -45.5l18 -6q37 -16 71 -55t34 -104q0 -117 -51.5 -218.5t-132 -175t-183 -115.5t-207.5 -42q-53 0 -92 8q-25 4 -65.5 19.5t-79.5 49t-68 88t-29 138.5zM578 485q14 4 34.5 10.5t42.5 22.5q-25 -12 -43 -17.5t-34 -15.5z" />
<glyph unicode="C" horiz-adv-x="593" d="M12 250q0 113 42 231.5t108.5 217t148.5 161t162 62.5q35 0 58.5 -7.5t38 -15.5t22.5 -17.5t12 -11.5q6 16 16.5 37t10.5 39q0 10 -3 18.5t-3 12.5q-1 10 22 10q18 0 43 -3t46.5 -12t36.5 -25.5t15 -43.5q0 -12 -5 -25.5t-11 -29.5q-8 -25 -40 -74t-65.5 -105.5 t-61 -111.5t-27.5 -92q0 -18 12 -29.5t12 -15.5q0 -2 -4 -2q-16 0 -36.5 10t-38 26.5t-29 37t-11.5 43.5q0 47 13.5 93t35.5 97q10 10 -4 29.5t-55 15.5q-41 0 -102.5 -50t-117.5 -130t-97 -180q-39 -95 -39 -188v-9q2 -111 41 -169t104 -58q8 0 25 4q80 27 136 80t95 104 t63.5 90t36.5 39q14 0 15 -22q0 -14 -9.5 -33t-17.5 -31t-23.5 -36.5t-41 -57.5t-63.5 -71t-89 -77q-25 -19 -61 -39q-32 -19 -74 -18h-8q-72 2 -117 36t-70.5 83t-36 106.5t-10.5 106.5z" />
<glyph unicode="D" horiz-adv-x="862" d="M12 242q0 49 16.5 104t50.5 104.5t85 88.5t119 57q35 76 48 103.5t13 43.5q0 14 -4 22.5t-4 12.5q-18 -6 -29.5 -10t-15.5 -4v-2q-25 -6 -47.5 -20.5t-40 -29t-27.5 -24.5t-12 -10q-14 0 -27.5 11t-25 28.5t-17.5 36t-6 32.5q0 29 34 62t134 67q31 10 109.5 26.5 t189.5 16.5q61 0 134 -8t145 -43q57 -29 84.5 -84t27.5 -118q0 -53 -14 -101.5t-31 -91.5q-47 -127 -110.5 -238.5t-141.5 -195.5t-166 -133t-182 -49q-59 0 -119.5 25.5t-113.5 103.5q-8 14 -32 67t-24 150zM82 176q0 -23 4 -45t10 -35q4 -12 16.5 -35.5t35 -48t58.5 -43 t89 -18.5q86 0 172 65.5t158.5 172t125 238.5t68.5 265q0 39 -17.5 63.5t-47 38t-71.5 17.5t-91 4q-68 0 -124 -9t-97 -20q16 0 35.5 -2t37 -10t29.5 -22.5t12 -38.5q0 -29 -12 -55.5t-24 -55.5q2 0 2 -1t2 -1q61 -16 82.5 -45t21.5 -57q0 -6 -4 -21.5t-10 -31t-14.5 -26.5 t-18.5 -11l-12 7q-11 7 -30 15t-44 16.5t-49 10.5q-27 -53 -55.5 -110.5t-51 -110t-38 -97.5t-15.5 -73q0 -18 9 -26.5t9 -12.5q0 -2 -2 -2h-6q-41 0 -61.5 38.5t-20.5 77.5q0 66 15.5 131.5t44.5 139.5q-29 -20 -50.5 -49t-38 -62t-24.5 -65.5t-8 -59.5z" />
<glyph unicode="E" horiz-adv-x="757" d="M6 250q0 113 44 183.5t107.5 111.5t130 59.5t113.5 26.5q-92 14 -148 26.5t-87 26.5t-42 29.5t-11 36.5q0 6 3 23.5t8 36.5t14 33.5t22 14.5q10 0 36.5 -15.5t63.5 -15.5q31 0 93.5 4.5t125.5 26.5q47 12 93 29.5t85 35t66 32t37 20.5q20 12 30.5 19t18.5 7t20.5 -2 t28.5 -6q29 -4 57.5 -21.5t28.5 -45.5q0 -23 -16 -45q-10 -18 -42 -53t-66 -75t-61.5 -80t-27.5 -67q0 -12 10.5 -20t10.5 -11q0 -2 -9 -2q-41 10 -59 37t-18 58q0 49 26 98q-41 -16 -95 -35.5t-105 -19.5q16 -10 39.5 -23.5t46 -29t39 -35t16.5 -41.5q0 -23 -2 -40.5 t-14.5 -29.5t-37 -18.5t-69.5 -6.5q-72 -6 -142.5 -17t-126 -39t-90 -78t-34.5 -138q0 -61 24.5 -108.5t62.5 -80t83 -51t86 -20.5q10 -1 20 -1q91 0 149 49q64 54 64 169q0 47 -18.5 69.5t-46.5 22.5q-20 0 -38 -9t-31 -20.5t-22.5 -20.5t-13.5 -9q-12 0 -24.5 12 t-23.5 28.5t-17 35t-6 30.5q0 8 6 24.5t22.5 33t45 30t75.5 13.5q29 0 62.5 -9.5t63.5 -31t49.5 -57t19.5 -89.5q0 -43 -15.5 -102.5t-56.5 -110.5q-41 -50 -113 -84q-61 -28 -152 -29q-16 0 -34 1q-49 2 -107.5 24.5t-107.5 65.5t-83 108.5t-34 151.5z" />
<glyph unicode="F" horiz-adv-x="661" d="M25 604q0 88 45 149.5t128 100.5t198.5 56.5t258.5 19.5q0 16 -4 24.5t-4 12.5q0 10 16.5 12t41.5 2q27 0 53 -10t37 -39q158 0 259 4t162.5 14.5t92.5 27.5t49 44q2 4 8 4q12 0 23.5 -10t20.5 -25.5t15.5 -32t6.5 -26.5q0 -23 -13.5 -47.5t-52.5 -44.5 q-14 -6 -34.5 -14.5t-52.5 -15.5t-78 -12t-109 -5q-72 0 -152 7t-164 15q-4 -16 -11 -33.5t-15 -40.5q8 0 13 -1t13 -1q20 0 40 4.5t24 8.5l4 4q4 0 12 -27t8 -55q0 -31 -14 -55.5t-53 -24.5q-25 0 -48.5 7t-50.5 15q-35 -84 -71.5 -178t-69.5 -183t-53.5 -163t-20.5 -112 q0 -23 8.5 -30t8.5 -11t-8 -5q-25 0 -42.5 13.5t-28.5 34t-15.5 45t-4.5 45.5q0 72 16.5 145.5t40 147t52.5 147.5t53 145q-45 12 -88 21.5t-74 9.5q-18 0 -29.5 -6t-17.5 -12q-8 -8 -10 -17q-4 0 -5 11.5t-1 27.5q2 29 17.5 46.5t37 27.5t46 13t46.5 3q29 0 58.5 -4 t60.5 -10q4 16 10.5 31.5t10.5 27.5q-57 4 -110.5 8.5t-100.5 4.5q-49 0 -100.5 -7.5t-94.5 -29t-70.5 -58t-27.5 -96.5q0 -35 14.5 -60.5t36 -42t46 -25.5t44.5 -9q23 0 40 13.5t30.5 28.5t23 28.5t17.5 13.5q18 0 35.5 -10.5t32 -26.5t23.5 -34.5t9 -32.5q0 -6 -7 -27 t-27.5 -42.5t-57.5 -38.5t-98 -17q-45 0 -90.5 17t-82 48t-60 75t-25.5 97z" />
<glyph unicode="G" horiz-adv-x="698" d="M20 258q0 57 13.5 111.5t34.5 103.5q45 106 108.5 183t127 129.5t116.5 82t78 39.5q37 16 63.5 30.5t26.5 37.5q0 10 -4 10t-4 4q-1 10 22 10q18 0 43 -3t46.5 -11t36.5 -23.5t15 -41.5q0 -23 -16 -60q-12 -25 -46 -78t-71 -114.5t-65.5 -120t-28.5 -94.5 q0 -18 11.5 -28.5t11.5 -14.5q0 -2 -2 -2h-7q-29 0 -46 15t-27.5 37.5t-14.5 47t-4 45.5q0 27 2 46t8.5 38.5t15.5 42t23 53.5q-39 -20 -99 -66t-117.5 -112t-98.5 -149.5t-41 -178.5q0 -47 14.5 -91t39 -77.5t57 -54t69.5 -20.5q51 0 98.5 28.5t86.5 66.5t66.5 79t41.5 65 h-19t3 0t5 -1t-12.5 -1h-50h-108.5q-55 0 -91 14.5t-57.5 35t-29.5 43t-8 38.5q0 20 7 34.5t9 14.5q-2 0 0 -8t11 -17t25.5 -17.5t45.5 -8.5q31 0 69.5 5t75.5 10.5t70 10.5t53 5q51 0 68.5 -14.5t17.5 -40.5q0 -14 -5 -33t-11 -35t-13.5 -30.5t-11.5 -20.5 q-6 -14 -34.5 -61.5t-74.5 -98.5t-109.5 -92t-139.5 -41q-61 0 -111.5 31.5t-85.5 81t-53.5 111t-18.5 120.5z" />
<glyph unicode="H" horiz-adv-x="1226" d="M33 190q0 111 42 207.5t109.5 168t151.5 113.5t170 42q76 0 125 -16.5t76.5 -38t38 -44t10.5 -32.5q0 -16 -8.5 -33.5t-19.5 -33t-21.5 -25t-14.5 -9.5q-8 0 -18 18.5t-39 29.5q-10 4 -32.5 14t-76.5 10q-59 0 -124.5 -31.5t-121 -88t-91 -135.5t-35.5 -171 q0 -74 31.5 -124t88.5 -50q55 0 109.5 32t106 84t101.5 121.5t99 147.5h-14v-2q-20 0 -30.5 -9t-14.5 -9q-6 0 -19.5 35.5t-13.5 66.5q0 23 13.5 40t52.5 17q14 0 35.5 -2t58.5 -6q33 72 56.5 138.5t38.5 121t22.5 93t7.5 57.5q0 18 -8.5 31.5t-8.5 17.5q0 8 27 14t55 6 q31 0 59.5 -15t28.5 -58q0 -45 -15 -100.5t-39 -113t-50.5 -112.5t-46.5 -100q41 -6 84 -11.5t82 -9.5q45 111 82.5 201t65.5 154.5t44.5 99.5t16.5 39q0 12 -3.5 21.5t-3.5 13.5q0 10 23 10q14 0 35.5 -1t42 -8.5t34 -22.5t13.5 -42q0 -12 -11.5 -42t-36 -83t-62.5 -134 t-91 -196q12 7 12 19q0 6 5 6q2 0 6 -11t4 -26q-2 -35 -24.5 -54.5t-47.5 -31.5q-43 -96 -72.5 -176t-29.5 -121q0 -18 7 -25.5t7 -11.5q0 -2 -8 -2q-41 0 -61.5 39t-20.5 80q0 37 9 87t26 104q-59 0 -109.5 3t-85.5 7q-47 -82 -103.5 -161t-121 -140.5t-138 -99 t-153.5 -37.5q-125 0 -196.5 81.5t-71.5 214.5z" />
<glyph unicode="I" horiz-adv-x="686" d="M25 8q0 14 8 21q2 2 14 15t34.5 27.5t54.5 26t75 11.5q55 0 111.5 -13.5t91.5 -13.5q2 33 10 75t20.5 85t26.5 85t29 76q20 51 44.5 107.5t48 112t46.5 106.5t39 90q-66 10 -130.5 19.5t-119.5 9.5q-68 0 -110 -23.5t-67.5 -51.5t-37.5 -51.5t-20 -23.5q-23 0 -23 29 q0 12 6 23q2 6 8 20t20.5 33.5t36 40t52.5 37.5q53 39 138 52t173 13q29 0 57.5 -2t57.5 -2q0 10 -3 16.5t-3 10.5q0 12 35 12q27 0 57.5 -7t46.5 -32q51 2 78.5 5t43 9.5t22 15.5t12.5 19q2 8 10 8q4 0 15 -10t22.5 -25.5t19.5 -36t8 -38.5q0 -12 -5 -28.5t-23.5 -31 t-52 -24.5t-91.5 -10q-18 0 -38.5 1t-43.5 3q-23 -53 -66.5 -142.5t-90.5 -190.5t-91 -201.5t-69 -176.5q31 8 41 24.5t18 16.5q4 0 14.5 -10t20.5 -26.5t17.5 -36t7.5 -40.5q0 -31 -26.5 -56.5t-100.5 -25.5q-47 0 -95.5 14.5t-92.5 33t-82.5 36t-69.5 21.5q-23 0 -42.5 -8 t-34.5 -18.5t-24.5 -18.5t-13.5 -8q-20 0 -24 22z" />
<glyph unicode="J" horiz-adv-x="983" d="M31 354q0 88 33.5 165t86 134.5t114 90t114.5 32.5q27 0 44 -18.5t27.5 -42t13.5 -47t3 -33.5q0 -18 -10 -19q-4 0 -8.5 1t-8.5 1q-41 0 -95 -22.5t-103 -64.5t-83 -101t-34 -135q0 -29 8 -56.5t26.5 -50t47.5 -37t69 -14.5q45 0 91.5 22.5t90.5 60.5t89 89t92 109 q80 100 135 175t91 132t51.5 97t15.5 71q0 14 -5 23.5t-5 17.5q0 10 16 11t39 3q10 0 23.5 -3t27.5 -3q35 -10 61.5 -40t26.5 -77q-18 -66 -49 -155q-27 -78 -66.5 -191.5t-99.5 -261.5q0 -2 2 -2q25 -25 25 -59q0 -33 -16.5 -70t-26.5 -37q-4 0 -10.5 6t-32.5 17 q-23 -49 -48.5 -100.5t-53 -92.5t-57.5 -67.5t-58 -26.5q-31 0 -52.5 18.5t-37 46t-22.5 60.5t-7 61q0 86 25.5 140.5t63.5 85t80 42t73 11.5q6 0 14 20.5t18.5 49t19.5 58.5t17 50q-63 -74 -124.5 -139.5t-125 -113.5t-132 -75.5t-146.5 -27.5q-68 0 -117 23.5t-81 62.5 t-46 90t-14 106zM578 -78q-1 -12 -1 -23q0 -29 8 -49q11 -28 21 -18q2 2 13.5 27.5t27.5 66.5q14 37 29.5 83t32.5 97q-43 0 -69 -28.5t-39 -62t-18 -63.5z" />
<glyph unicode="K" horiz-adv-x="903" d="M31 213q0 25 5 63.5t16 87t30.5 102.5t50.5 107q49 96 119 172t144.5 128.5t146 80t121.5 27.5q18 0 39.5 -2t39 -11.5t28.5 -25.5t11 -43q0 -10 -5 -24.5t-9 -30.5q-6 -16 -27.5 -64.5t-54.5 -116t-69.5 -147.5t-73.5 -160q35 6 79 28t91 99q61 100 97 175t56.5 126.5 t26.5 79t6 31.5q0 2 -1 3t-1 3q0 8 14 8q8 0 20.5 -2t26.5 -6q25 -8 53.5 -26.5t28.5 -53.5q0 -10 -3 -19t-7 -22q-6 -12 -22.5 -55t-42 -100.5t-61.5 -121t-80 -117.5t-97 -89t-113 -35q-35 0 -55 6t-43 23q90 -90 145.5 -140.5t89 -73t53 -26.5t38.5 -4q6 0 9 1t5 1 q10 0 10 -18q0 -4 -1 -22.5t-7 -39t-19.5 -37t-35.5 -16.5q-23 0 -53.5 11.5t-72.5 41t-94.5 81.5t-113.5 136q-27 -66 -42 -118t-15 -80q0 -18 7 -24.5t7 -10.5t-8 -4q-41 0 -61.5 39t-20.5 80t12 96t29 115q-2 2 -15.5 11t-28 21.5t-26.5 27.5t-12 32q0 39 24.5 60.5 t53.5 21.5q18 0 32.5 -9.5t24.5 -19.5q31 72 63.5 149.5t62.5 146t50.5 119t26.5 64.5q2 2 5 9.5t3 13.5q-39 0 -90 -32t-104.5 -84t-101.5 -118.5t-79 -136.5q-47 -104 -63.5 -190t-16.5 -134q0 -39 12.5 -80.5t26.5 -52.5q6 -6 6 -8q0 -4 -10 -12t-26.5 -16.5t-36 -13.5 t-35.5 -5q-41 0 -66.5 45t-25.5 125zM365 383q0 -8 14 -12h-2q0 -2 7 -8.5t17 -14.5q2 4 3.5 8t3.5 9q-6 10 -11.5 19t-17.5 9q-14 0 -14 -10z" />
<glyph unicode="L" horiz-adv-x="475" d="M25 457q4 86 33.5 154.5t73.5 120.5t98.5 88t107.5 59.5t98 34t74 10.5q14 0 36.5 -1t43 -8.5t35 -24t14.5 -44.5q0 -12 -9 -38t-30.5 -75t-59.5 -129t-94 -198q10 -18 17.5 -36t7.5 -40q0 -25 -15.5 -45.5t-82.5 -42.5q-41 -86 -65.5 -158t-24.5 -107q0 -8 8 -9t14 -1 q43 0 101.5 12.5t111.5 28t92 29.5t45 20q2 6 11 6q4 0 12 -10t15 -25.5t13.5 -34t6.5 -36.5q0 -23 -5.5 -38t-28 -25.5t-68.5 -15.5t-126 -5q-47 0 -96 7t-96 26q-53 23 -68.5 47t-15.5 78q4 55 16.5 99t34.5 101q-35 0 -76 13.5t-75.5 41t-59 69.5t-24.5 102zM154 492 q0 -51 25.5 -80t86.5 -29q29 0 41 2t21 18q37 90 71.5 176.5t59 152t35 104t2.5 36.5q-37 -4 -93.5 -32.5t-110.5 -77.5t-94 -118.5t-44 -151.5z" />
<glyph unicode="M" horiz-adv-x="1314" d="M31 254q0 86 33.5 164t85 137t113 94t116.5 35q27 0 44 -17.5t27.5 -42t13.5 -49t3 -36.5q0 -16 -10 -17q-4 0 -8.5 1t-8.5 1q-10 0 -25.5 -2t-33.5 -10v2q-41 -14 -86 -42t-83 -69t-62.5 -94t-24.5 -116q0 -59 38 -109.5t113 -50.5q47 0 92.5 22.5t89.5 60.5t89 90 t92 111q82 104 138.5 182.5t91 136.5t50 99t15.5 72q0 14 -5 22.5t-5 14.5q0 10 16 12t39 2q16 0 36.5 -4t39 -13.5t31 -24.5t12.5 -40q0 -10 -4 -31q-4 -20 -17.5 -74.5t-30 -124t-36 -146t-35.5 -140.5q31 49 70.5 111.5t81.5 129t83 131t75 119t57.5 93.5t31.5 53 q2 2 7 13.5t5 23.5t-4 21.5t-4 13.5q0 10 18.5 11t41.5 1q31 -4 60.5 -19.5t29.5 -58.5q0 -10 -3 -26.5t-12 -32.5q-6 -18 -31.5 -72.5t-61.5 -127.5t-76.5 -158t-74.5 -164.5t-56.5 -145t-22.5 -100.5q0 -18 8 -25.5t8 -11.5q0 -2 -8 -2q-41 0 -62.5 38t-21.5 79 q0 61 9.5 112t35.5 119q-80 -100 -126 -160.5t-69.5 -92.5t-31.5 -41t-12 -9q-8 0 -18.5 8t-10.5 25v6q0 2 2 31.5t6 78t9 106.5t10 120q-66 -86 -136.5 -173t-149.5 -157t-165 -114t-178 -44q-68 0 -117 22.5t-81 61.5t-46 91.5t-14 109.5z" />
<glyph unicode="N" horiz-adv-x="1005" d="M53 227q0 117 33 211t85 169t119.5 129.5t137.5 90t137.5 53t118.5 17.5q16 0 36.5 -2t38 -10t30 -22.5t12.5 -41.5q0 -25 -13 -61q-6 -20 -37.5 -85t-72.5 -151q53 70 109.5 139.5t104.5 126t85 95.5t51 49q39 27 74 27q18 0 38.5 -3.5t39 -11.5t31 -23.5t12.5 -39.5 q0 -12 -4.5 -26.5t-10.5 -33.5q-6 -20 -34.5 -77.5t-67.5 -134t-82 -166t-80 -172.5t-61.5 -150.5t-24.5 -102.5q0 -18 7 -24t7 -10q0 -2 -4 -2q-41 0 -63.5 35.5t-22.5 80.5q0 68 23.5 147t57.5 163t74 166.5t71 156.5q-53 -39 -118 -93t-127.5 -113.5t-115.5 -121 t-80 -116.5q-51 -111 -87 -205t-36 -139q0 -20 8.5 -26.5t8.5 -12.5q0 -2 -8 -2q-41 0 -62.5 39t-21.5 80q0 33 9 81t24.5 100t32 102t32.5 87q29 72 59.5 141.5t56 128t44 99.5t24.5 57q4 8 8.5 20.5t-0.5 12.5q-29 -4 -65.5 -11t-77.5 -32q-53 -33 -109.5 -89t-101.5 -129 t-73.5 -157t-28.5 -172t19.5 -131t25.5 -51q35 -53 54.5 -64.5t19.5 -13.5q0 -6 -11.5 -20.5t-29 -29.5t-38 -26.5t-38.5 -11.5q-23 0 -49.5 17.5t-49 56.5t-38 97t-15.5 142z" />
<glyph unicode="O" horiz-adv-x="823" d="M20 270q0 109 31 191t72 140t82 93t61 49q23 12 35 24.5t18.5 22t9.5 14.5t9 5q4 0 14 -6q-4 10 -6 23.5t-2 23.5q0 45 23.5 70.5t56.5 40t65.5 18.5t51.5 4q49 0 93 -20.5t80 -54.5t61.5 -79t39.5 -96q6 2 50 23.5t98.5 52.5t103.5 65.5t66 67.5q2 4 16 -3t30.5 -22.5 t30 -38t13.5 -49.5q0 -18 -10 -39.5t-37 -44.5q-14 -10 -39 -29.5t-66 -41t-98.5 -41t-134.5 -27.5q0 -12 1 -25.5t1 -29.5q0 -90 -31 -205t-92.5 -215t-153.5 -168.5t-217 -68.5q-94 0 -156.5 35.5t-100.5 91t-53.5 122t-15.5 127.5zM139 209q0 -43 11.5 -88t36 -83 t62.5 -61.5t91 -23.5q88 0 150.5 52t103.5 129t60.5 166t19.5 163q0 47 -3 84t-7 59q-20 0 -52 7.5t-66 18.5t-65.5 27.5t-50.5 38.5q2 -8 2 -22q0 -16 -11 -41t-63 -53q-14 -8 -50 -31t-73.5 -66t-66.5 -110.5t-29 -165.5zM498 811q0 -10 7 -25.5t23.5 -31t44 -26.5 t70.5 -11q-12 45 -38.5 74.5t-67.5 29.5h-23.5t-15.5 -10z" />
<glyph unicode="P" horiz-adv-x="894" d="M31 678q0 14 19.5 49t60.5 76q8 8 41.5 35.5t92 58.5t140.5 54.5t186 23.5q76 -1 160 -19q43 -12 87 -33.5t80 -55t58.5 -82t22.5 -109.5q0 -57 -16 -111q-37 -113 -98.5 -192.5t-133.5 -129.5t-146.5 -73t-142.5 -23q-29 0 -53 3.5t-47 7.5q-29 -70 -47.5 -126.5 t-18.5 -86.5q0 -18 7.5 -24.5t7.5 -10.5t-8 -4q-41 0 -62.5 39t-21.5 80t10 86t27 92q-43 29 -61.5 75t-18.5 97q0 35 15 80t47 85t80 67.5t114 27.5q31 70 52 120t25 62q-57 -12 -100 -28.5t-73.5 -34t-50 -32.5t-27.5 -24q-35 -35 -50.5 -60.5t-21.5 -40.5t-7 -22.5 t-7 -7.5q-10 0 -30 8.5t-40.5 22.5t-35.5 34.5t-15 45.5zM219 334q0 -29 9.5 -50.5t23.5 -33.5l24 67q18 41 38 86.5t38 92.5q-53 -14 -93 -62.5t-40 -99.5zM362 207q31 -6 70 -6q45 0 100.5 14t110.5 49t104 94.5t84 149.5q14 37 24.5 75t10.5 72q0 45 -18.5 77t-50 52.5 t-72.5 31.5t-86 13v-29t-7 -28.5t-25.5 -58.5l-55.5 -117q68 -41 96.5 -90t28.5 -84q0 -29 -18.5 -47.5t-42 -28.5t-48 -15t-37.5 -5q-18 0 -18 12q0 4 2 18.5t2 34.5q0 12 -6 27.5t-29 38.5q-31 -61 -60.5 -126t-58.5 -124z" />
<glyph unicode="Q" horiz-adv-x="819" d="M-121 303q0 18 5 31.5t23.5 27t54.5 27.5t95 33q18 80 54 142.5t74 107.5t72 72.5t50 35.5q35 23 64.5 38.5t52.5 15.5q27 0 48.5 -24t35.5 -50.5t18 -48t-4 -17.5q-18 8 -44.5 -5t-80.5 -44q-4 -2 -24.5 -16.5t-47 -39t-56 -59t-52.5 -79.5q18 2 37.5 3t42.5 1 q31 0 86 -4.5t112.5 -24.5t106.5 -60t68 -114q41 119 41 240q0 76 -18.5 129t-43 88.5t-49.5 56t-37 31.5q-35 27 -66.5 48t-60.5 11q-6 -2 -2 18.5t18.5 45t36 46t48.5 21.5q2 0 13 -3t27.5 -9t35 -15.5t30.5 -21.5q20 -12 55 -43t69 -80t57.5 -118.5t23.5 -159.5 q0 -119 -42 -234t-112.5 -206t-164 -146t-197.5 -55q-68 0 -119 31.5t-88 80.5t-58.5 111.5t-25.5 124.5q-47 -23 -64.5 -34t-21.5 -30q-2 -6 -14.5 5.5t-25.5 31t-24.5 43t-11.5 43.5zM162 231q0 -66 17.5 -115.5t45 -84.5t64.5 -53.5t78 -18.5q61 0 114 28t88 91 q20 41 21 90q0 41 -16.5 69.5t-45 46t-65.5 25.5t-80 8q-61 0 -116.5 -9t-100.5 -21q-2 -14 -3 -27.5t-1 -28.5z" />
<glyph unicode="R" horiz-adv-x="780" d="M27 152q0 102 28 165q10 23 29.5 67t40 92t37 92t20.5 69h-6q-29 0 -57.5 9t-28.5 48q0 35 39 91.5t107.5 109.5t165 91t212.5 38h25t27 -2q86 -8 146 -48t91 -100q28 -54 28 -119v-13q-3 -72 -46 -144q-29 -57 -70 -111.5t-91 -97.5t-109.5 -68.5t-125.5 -25.5 q-16 0 -30.5 2t-30.5 2q0 -4 -1 -10t-1 -15q0 -68 20.5 -125t54.5 -100t79 -67.5t94 -24.5q4 0 8 1t8 1q12 0 12 -12q0 -18 -15 -22.5t-34 -4.5q-90 0 -161.5 38t-122 96.5t-77 129t-26.5 135.5q0 41 20.5 64t20.5 20q16 12 27 -2q2 -2 25.5 -22.5t60.5 -20.5q49 0 99 30 t92 73t72 90t42 82q8 23 13 38t8.5 30.5t5.5 34t2 48.5q-2 18 -12.5 39t-34 37.5t-60.5 27.5t-90 11q-76 0 -149.5 -19.5t-132 -50t-94.5 -65.5t-36 -66q0 -12 15 -12q10 0 20 3t25 3q18 0 38.5 -2t39 -10t31 -23.5t12.5 -42.5q0 -25 -15 -59q-8 -27 -41.5 -89.5t-70.5 -134 t-66 -141t-29 -110.5q0 -18 10.5 -28.5t10.5 -14.5q0 -2 -8 -2q-37 0 -63.5 38t-26.5 79z" />
<glyph unicode="S" horiz-adv-x="974" d="M31 242q0 84 39 145.5t98 102t131 61t137 20.5q92 0 155.5 -18t102.5 -43t56.5 -49.5t17.5 -38.5q0 -18 -9 -39t-21.5 -39t-25 -29.5t-18.5 -11.5q4 18 -14 40t-60 42.5t-106.5 33.5t-153.5 13q-49 0 -97 -14.5t-87 -41t-62.5 -61t-23.5 -77.5q0 -31 12.5 -62t45 -56.5 t89 -42t144.5 -16.5q68 0 146.5 21.5t146 64.5t112.5 105.5t45 144.5q0 78 -41.5 124t-104 70.5t-135.5 32t-134 7.5q-53 0 -92 -8.5t-48 -8.5q-6 0 -9 10.5t-4 24t-2 28.5t-1 28q0 27 13.5 57.5t52.5 30.5q8 0 18 -2.5t18 -2.5q4 0 7.5 1.5t9.5 3.5q45 23 130 53.5t172 60 t156.5 51t86.5 25.5q20 4 24 4q23 1 37 -24q6 -6 11 -31t5 -35q0 -14 -6 -23q-43 -86 -67.5 -132t-24.5 -58q0 -10 2 -12t2 -4q0 -4 -10 -4q-12 0 -32.5 3t-39 10t-33 18.5t-14.5 27.5q0 31 26.5 59.5t49.5 51.5q-39 -6 -84 -17.5t-91 -24t-90 -23.5t-77 -19 q59 -8 134 -20.5t151 -57.5q10 -6 36.5 -24.5t53 -53.5t47 -87t20.5 -126q0 -98 -47 -180t-122.5 -140.5t-172 -91t-196.5 -32.5q-72 0 -140.5 20t-123 58t-88 95.5t-33.5 131.5z" />
<glyph unicode="T" horiz-adv-x="626" d="M25 604q0 90 44 151.5t128 99.5t202.5 56.5t270.5 20.5q0 12 -4 21.5t-4 13.5q0 12 38 12q27 0 60 -7t47 -38q31 0 62.5 -1t62.5 -1q119 0 194.5 7t121.5 19.5t70 29t38 34.5q2 6 10 6q12 0 23.5 -11t20.5 -26.5t14.5 -32t5.5 -28.5q0 -20 -13.5 -45t-52.5 -45 q-27 -14 -88.5 -29.5t-188.5 -15.5q-70 0 -144.5 6t-154.5 14q-14 -37 -43.5 -103.5t-65.5 -147.5t-74 -170t-68.5 -169t-50 -145.5t-19.5 -99.5q0 -20 7 -26.5t7 -10.5q0 -2 -2 -2h-6q-23 0 -39 12t-26.5 30.5t-15.5 41t-5 43.5q0 33 7 74.5t18.5 86.5t26 88t26.5 78 q20 55 43.5 114.5t47.5 118t44.5 111t34.5 90.5q-53 4 -105.5 7.5t-99.5 3.5q-57 0 -112.5 -8.5t-99.5 -30t-70.5 -56t-26.5 -90.5q0 -37 13 -63.5t34.5 -44t46.5 -25.5t47 -8q33 0 50.5 13.5t27.5 28.5t16 28.5t17 13.5q18 0 35.5 -10t32 -25.5t23.5 -34t9 -34.5 q0 -6 -7 -25.5t-27.5 -42.5t-57.5 -40t-94 -17q-47 0 -93.5 17t-84 49t-61 75t-23.5 94z" />
<glyph unicode="U" horiz-adv-x="827" d="M63 588q0 90 32 160.5t80 120t104.5 75t105.5 25.5q25 0 53.5 -4t53 -14.5t40 -29t15.5 -47.5q0 -27 -15 -61v2q-4 -12 -16 -41t-32.5 -70.5t-46 -94t-52.5 -107.5h2q37 14 49.5 34.5t16.5 20.5t14 -10t21.5 -28.5t20.5 -43t9 -51.5q0 -18 -6 -37.5t-26.5 -36t-57.5 -27 t-100 -10.5q-8 0 -14.5 1t-14.5 1q-23 -51 -46.5 -106t-23.5 -90q0 -51 52 -51q35 0 86 25.5t110.5 77.5t122 132t119.5 189q31 78 62.5 152.5t58.5 133.5q31 70 57 133l-2 2q6 14 6 27q0 10 -3 18.5t-3 12.5q0 10 18 11t41 1q31 -4 60.5 -19.5t29.5 -58.5q0 -12 -4 -26.5 t-10 -32.5t-34.5 -76.5t-67.5 -136.5t-82 -169t-80 -175t-61.5 -152.5t-24.5 -103.5q0 -18 7 -24.5t7 -10.5q0 -2 -2 -2h-6q-39 0 -60.5 38t-21.5 79q0 29 5 62.5t16 68.5q-61 -78 -117.5 -125t-105 -73t-87.5 -34t-65 -8q-63 0 -89 34t-26 87q0 59 9.5 111.5t33.5 119.5 q-59 37 -87 97.5t-28 134.5zM201 633q0 -41 12 -75t29 -48q88 201 126 298t38 101q-18 0 -41 -4t-46 -16t-44 -40t-37.5 -62.5t-26.5 -74.5t-10 -79z" />
<glyph unicode="V" horiz-adv-x="485" d="M37 805q0 10 34.5 24.5t65.5 14.5q47 0 62.5 -43t20.5 -131t11.5 -220.5t34.5 -310.5q18 123 74.5 262.5t120.5 298.5q-29 55 -31 104.5t-2 69.5q0 47 17.5 77t41 46.5t48 22.5t40.5 6t38 -2t40.5 -10t31.5 -25.5t13 -46.5q0 -14 -1 -25.5t-9 -36t-28.5 -69.5t-57.5 -127 q18 -6 39 -6q39 0 65.5 16.5t42 39t21.5 45t6 34.5q0 25 -8 40t-18.5 24.5t-18.5 13.5t-8 6q0 14 14.5 28.5t34 25t37.5 16.5t27 6q23 0 44.5 -17.5t37.5 -66.5q4 -10 7 -25.5t3 -38.5q0 -35 -16.5 -80t-48.5 -83.5t-80 -65.5t-109 -27q-33 0 -60.5 9.5t-50.5 19.5 q-39 -86 -81 -179t-75.5 -179t-56 -155t-22.5 -105q0 -16 7 -23.5t7 -9.5t-7 -6t-32 -4q-43 0 -78 55t-60.5 139t-44 183.5t-29.5 188.5t-17 154.5t-8 81.5q0 31 -14.5 44.5t-14.5 21.5zM494 858q0 -16 1 -31.5t5 -25.5q6 14 16 35.5t19.5 45t16.5 46t7 41.5v11t-4 7 q-29 -14 -45 -53t-16 -76z" />
<glyph unicode="W" horiz-adv-x="1013" d="M33 674q0 45 10 73.5t25.5 45t31 23.5t25.5 7q8 0 27.5 -6t39 -16t34 -24.5t14.5 -28.5q0 -2 -8.5 -6.5t-18.5 -14.5t-18.5 -26.5t-8.5 -41.5q0 -14 4.5 -30.5t14.5 -32.5q20 80 42.5 135t33.5 74q4 8 6 20.5t11 23.5t28.5 19.5t56.5 8.5q51 0 92 -53.5t41 -129.5l1 -44 q1 -36 -15 -82q-16 -48 -59.5 -92t-133.5 -56q-12 -72 -12 -146q0 -127 38 -197.5t101 -101.5q-18 23 -21 52.5t-3 58.5q0 57 18.5 132t46 156t60 161.5t60.5 148.5t46.5 116t18.5 64q0 14 -4.5 23.5t-4.5 13.5q0 12 33 12q16 0 36.5 -2t38 -9t30 -21.5t12.5 -40.5 q0 -27 -12 -60q-4 -16 -23.5 -63t-41 -111.5t-38 -141.5t-16.5 -155q0 -129 36.5 -200.5t102.5 -106.5q-14 18 -20.5 44t-6.5 50q0 66 22.5 152t49.5 158q27 74 59.5 155.5t61.5 153t49.5 125t26.5 69.5q4 12 6 17.5t2 13.5q0 12 -4 22.5t-4 14.5q0 10 17 11t40 1 q31 -4 61.5 -18.5t30.5 -57.5q0 -27 -12 -59q-6 -18 -31.5 -77.5t-62.5 -141.5t-78 -175t-76 -181.5t-57.5 -161t-22.5 -109.5q0 -23 9.5 -28t9.5 -9t-7.5 -11t-23.5 -7q-4 0 -9 1t-14 3h2q-10 2 -43.5 12.5t-75.5 40t-82 87t-61 155.5q-35 -86 -56.5 -157.5t-21.5 -112.5 q0 -23 8.5 -29t8.5 -10q0 -16 -29 -17h-9t-15 2h2q-8 2 -24.5 5.5t-39 13.5t-50.5 28.5t-54 49.5q-53 53 -82 150t-29 202q0 16 1 33.5t3 33.5q-78 39 -112.5 104.5t-34.5 125.5zM336 528q27 0 53.5 15.5t42.5 34.5q14 10 23 28q8 14 14 36t4 50q-4 41 -18.5 85t-46.5 61 q23 -16 22 -35q0 -17 -20 -64q-8 -16 -30 -73.5t-44 -137.5z" />
<glyph unicode="X" horiz-adv-x="806" d="M31 240q0 72 25.5 141.5t63.5 124.5t83 90t86 39q27 0 47 -16.5t34.5 -39t21.5 -44t7 -29.5q0 -12 -12 -12q-33 0 -75 -26t-79.5 -72t-64.5 -108.5t-27 -135.5q0 -78 45 -130.5t109 -52.5q47 0 89 25.5t80 72t71.5 108t68.5 132.5q0 2 -1 4t-1 4q-33 158 -51.5 251 t-18.5 126q0 35 -14 46.5t-14 19.5q0 10 33.5 25.5t66.5 15.5q27 0 42.5 -9.5t23.5 -39t13 -87t11 -153.5q59 145 93 238.5t34 148.5q0 27 -11 41t-11 20q0 10 30.5 21.5t63.5 11.5q35 0 65.5 -17.5t30.5 -68.5q0 -4 -1 -10t-1 -12q0 -8 -16.5 -57.5t-48 -129.5t-77.5 -185 t-108 -224q-4 -8 -8 -16.5t-8 -16.5q12 -90 30.5 -152.5t47.5 -64.5l6 -6q0 -4 -10.5 -7.5t-26.5 -3.5q-23 2 -40 14.5t-31.5 30t-24.5 39t-19 39.5q-76 -111 -169 -174t-197 -63q-68 0 -117 29.5t-80 77.5t-45 107.5t-14 119.5z" />
<glyph unicode="Y" horiz-adv-x="854" d="M63 649q0 90 32 161t80 120t104.5 74.5t105.5 25.5q25 0 53.5 -4t53 -14.5t40 -28.5t15.5 -47q0 -14 -7.5 -36.5t-25.5 -63.5t-50 -106.5t-79 -164.5q35 10 49.5 31.5t18.5 21.5t14 -11t21.5 -29.5t20.5 -42t9 -50.5q0 -18 -6 -37.5t-26.5 -36t-58.5 -26.5t-99 -10 q-8 0 -14.5 1t-14.5 1q-23 -51 -47.5 -106.5t-24.5 -90.5q0 -49 52 -49q37 0 91 28.5t117.5 87t130 147.5t125.5 210q25 76 42.5 125t28.5 79t15.5 47t4.5 30q0 14 -5.5 24.5t-5.5 14.5q0 10 17.5 11t40.5 1q16 0 36.5 -4t38 -14.5t29.5 -27t12 -40.5q0 -12 -2 -26.5 t-10 -28.5q-6 -18 -27.5 -77t-50 -139.5t-63.5 -175t-72 -186.5q6 0 11 -8t8.5 -18.5t5.5 -20.5t2 -12q0 -16 -5.5 -36t-11.5 -36t-13 -26.5t-11 -10.5t-13.5 6t-31.5 17q-14 -33 -37 -82t-51.5 -95.5t-66.5 -78.5q-34 -27 -73 -27h-10q-10 0 -27.5 12.5t-33 35t-26.5 56 t-11 80.5q0 35 6 71t20 65q-49 -27 -89 -35t-66 -8q-57 0 -86 33.5t-29 86.5q0 61 9.5 112.5t35.5 119.5q-59 41 -87 99t-28 132zM201 694q0 -39 11 -72.5t30 -50.5q86 205 125 300.5t39 99.5q-49 0 -87 -23.5t-65 -62.5t-40 -89.5t-13 -101.5zM449 -63q-2 -15 -2 -28 q0 -33 11 -52q15 -27 25 -11q4 8 11 19q8 18 24 61q14 37 29.5 83t32.5 97q-35 0 -59.5 -23.5t-40 -52t-23.5 -57t-8 -36.5zM573 246q10 2 20.5 3t20.5 1q6 0 12.5 12t13.5 29.5t13.5 36t10.5 30.5q-49 -68 -91 -112z" />
<glyph unicode="Z" horiz-adv-x="493" d="M29 76q0 41 15 75.5t40 66.5t55.5 63.5t61.5 66.5q37 45 92 108.5t115.5 131t117 132t97.5 111.5q-166 -78 -249 -117.5t-116 -39.5q-25 0 -40 12t-23.5 29.5t-11.5 37t-3 35.5q0 33 13 33q4 0 12 -3t22 -3q12 0 26.5 4t46.5 16.5t90.5 37t158.5 65.5q68 29 121 40 t112 11q23 0 47.5 -5t44 -15.5t32 -26.5t12.5 -37q0 -8 -5 -8q-4 0 -14 9t-29 9q-10 0 -18 -1t-18 -3q4 -12 4 -22q0 -16 -8.5 -34.5t-28.5 -41.5q-10 -16 -59.5 -66.5t-119 -119t-150.5 -150.5t-154.5 -160.5t-133 -148.5t-86.5 -115q41 -10 106.5 -40.5t146.5 -64.5 t175.5 -60.5t194.5 -26.5q47 0 84 10t64.5 22.5t44 24.5t22.5 19q31 33 43 52t15 30.5t3 15.5t4 4q10 0 23 -7.5t29 -17.5q23 -12 41 -33.5t18 -50.5q0 -16 -21.5 -52t-62.5 -66q-12 -10 -36.5 -24.5t-58.5 -29t-76 -23.5t-89 -9q-68 0 -134.5 18t-128 45t-114.5 58.5 t-92 56.5q-57 31 -106.5 47t-86 30.5t-57 34t-20.5 60.5z" />
<glyph unicode="\" horiz-adv-x="438" d="M-141 961q0 29 20.5 50t45 33.5t43 14.5t14.5 -6t2 -30t14 -44.5t16.5 -41.5t10.5 -22q8 -27 40.5 -96t77.5 -165.5t94.5 -209t92.5 -223t71.5 -210t30.5 -167.5q-2 -39 -22.5 -77.5t-61.5 -38.5q-8 0 -8 2q0 4 7 10t7 22q0 37 -33.5 131.5t-85 214t-113 252t-114.5 246 t-91 195.5t-44 100t-10 32.5t-4 27.5z" />
<glyph unicode="_" horiz-adv-x="1384" d="M49 -145q0 47 46 72.5t122 37.5t175.5 14.5t205.5 2.5q260 0 411.5 -2.5t168.5 -2.5q27 0 60.5 3.5t41.5 9.5l2 2q4 0 8 -12.5t4 -28.5q0 -47 -21.5 -75t-103.5 -28q-41 0 -131 3.5t-203.5 8.5t-237.5 8t-232 3q-104 0 -180 -4t-105 -17q-16 -8 -17.5 -16t-5.5 -8t-6 11 t-2 18z" />
<glyph unicode="`" horiz-adv-x="368" d="M47 772q2 14 8 29q8 23 26.5 41t24.5 14q1 0 7 -6q0 -4 6 -20.5t24.5 -38t54 -45t97.5 -41.5q4 -2 14 -8.5t14.5 -13.5t-2 -13t-32.5 -8q-27 -2 -66 3t-67 15q-47 16 -71 31.5t-32 31t-6 29.5z" />
<glyph unicode="a" horiz-adv-x="489" d="M-29 197q0 76 31 161q6 20 27.5 62.5t59.5 85.5t92.5 76.5t127.5 38.5q92 0 137.5 -26t45.5 -63q0 -16 -7.5 -31.5t-16.5 -27.5t-19.5 -20.5t-14.5 -8.5l-6 10q-6 9 -16.5 19t-28.5 18.5t-43 8.5q-59 -2 -106.5 -42t-80 -95.5t-49 -115t-16.5 -97.5q0 -16 4 -37t14 -21 q25 0 47.5 16.5t43 41t37 54t28.5 58.5q2 2 7 32t18.5 63.5t36 61t57.5 27.5q18 0 35.5 -8t31 -18t20.5 -18.5t7 -10.5q0 -4 -3 -7t-9 -10t-15.5 -21.5t-21.5 -39.5q-8 -16 -21.5 -48t-26.5 -64.5t-22.5 -60t-9.5 -40.5q0 -8 8 -8q10 0 25.5 5t30.5 12q41 23 63.5 39 t33.5 26t16.5 15.5t11.5 5.5q6 -4 6 -11q0 -4 -3 -7t-3 -7l-15 -22q-14 -21 -41.5 -47.5t-64.5 -49t-82 -22.5q-29 0 -44.5 12t-22.5 27.5t-9 32t-2 26.5q-35 -43 -77 -71.5t-83 -28.5q-33 0 -55.5 14t-37.5 38.5t-22.5 55.5t-7.5 62z" />
<glyph unicode="b" horiz-adv-x="475" d="M-39 104q0 49 25.5 129t54.5 152q12 33 33.5 87t45 112.5t46 114t39.5 92.5q4 16 0 30.5t-4 30.5q0 12 41 12q14 0 34.5 -3t39 -11t31.5 -23.5t13 -40.5q0 -29 -16 -59q-10 -20 -44 -86t-76 -150.5t-83 -175t-67 -159.5q-6 -16 -6 -29q0 -37 41 -37q80 0 159 164 q-37 23 -50 56.5t-13 70.5q0 45 11 88t33.5 77t57.5 54.5t82 20.5q37 0 61.5 -34t24.5 -112q0 -41 -9 -80t-22 -73q37 16 44.5 23t17.5 7l12 -4q10 -8 10 -18q0 -18 -13 -32.5t-32.5 -25t-40 -17.5t-34.5 -11q-53 -96 -126 -153.5t-145 -57.5q-35 0 -53 8t-41 25 q0 -4 -1 -8.5t-1 -8.5q0 -2 1 -4t1 -4q0 -8 -14 -8q-18 0 -43 16.5t-25 54.5zM270 377q0 -18 6.5 -36t18.5 -28q16 39 26.5 76t12.5 66v23.5t-4 13.5q-23 0 -41.5 -38t-18.5 -77z" />
<glyph unicode="c" horiz-adv-x="405" d="M-16 184q-2 37 0 60q4 80 32.5 149.5t71.5 120.5t97.5 80t109.5 29q12 0 38.5 -3.5t51.5 -15.5t43 -36q16 -21 16 -56v-8q-2 -31 -16 -50.5t-30.5 -30.5t-32 -16.5t-19.5 -5.5q-6 0 -6 7q0 4 1 9l3 15q2 16 -6 43t-41 27t-64.5 -24.5t-58.5 -66.5t-44 -95.5t-21 -108.5 q-1 -10 -1 -20q0 -40 14 -68q17 -35 64 -35q29 0 62 12.5t62.5 30.5t53 39t35.5 39q14 18 21 18q2 0 6 -3t4 -7q0 -2 -1 -2t-1 -2v-2q-27 -49 -62.5 -84t-74.5 -56.5t-79 -31.5t-73 -10q-59 0 -91 26.5t-47 61t-17 71.5z" />
<glyph unicode="d" horiz-adv-x="493" d="M-31 193q0 74 33 167q8 20 29.5 62.5t59.5 85.5t92.5 75.5t127.5 37.5q37 0 54.5 -3.5t40.5 -21.5q29 70 57.5 133.5t28.5 93.5q-4 10 -6.5 17.5t-2.5 11.5q0 12 39 12q14 0 36 -2t40 -11t31.5 -26.5t13.5 -46.5q0 -23 -20 -61q-14 -27 -51 -98.5t-80 -159.5t-84 -178.5 t-64 -153.5q-4 -8 -4 -16q0 -14 18 -15q14 0 39 10.5t66 38.5q27 18 42 35t25 17q4 0 6.5 -4.5t2.5 -6.5q0 -10 -7.5 -15t-7.5 -13l-16 -20q-16 -21 -42 -45.5t-57.5 -44t-64.5 -19.5q-41 0 -67.5 26.5t-26.5 67.5q-33 -41 -75 -68.5t-83 -27.5q-66 0 -94.5 52t-28.5 114z M86 145q0 -16 4 -35.5t14 -19.5q25 2 49.5 16.5t47 38t42 51t33.5 56.5q4 12 16.5 44t26 65.5t23.5 63.5t10 42q0 29 -35 29q-43 0 -85 -39t-74.5 -93.5t-52 -115t-19.5 -103.5z" />
<glyph unicode="e" horiz-adv-x="436" d="M-12 163q-2 19 -2 38t2 39q6 72 33.5 141.5t72.5 123.5t102.5 88t118.5 34q16 0 40 -6.5t45.5 -23.5t35.5 -48q11 -25 11 -63q0 -8 -1 -17q-6 -55 -35.5 -96t-71.5 -69t-88 -42t-85 -14q-33 0 -60 10q-4 -16 -6 -30.5t-4 -30.5v-15q0 -52 25 -70q29 -20 69 -20 q33 0 69 11.5t67.5 27.5t57.5 37.5t40 42.5q6 8 9 13t7 5q5 0 9 -2q4 -4 4 -8q0 -8 -4 -12q-2 -4 -5 -4q-31 -51 -69.5 -85t-80.5 -53.5t-83 -27.5t-74 -8q-51 0 -82.5 18.5t-47 48t-19.5 67.5zM125 309q23 0 55.5 13.5t62 35t52 48t24.5 53.5q2 16 -8 23t-26 7 q-20 0 -39 -15.5t-39 -31.5q-49 -49 -82 -133z" />
<glyph unicode="f" horiz-adv-x="305" d="M-90 -59q2 49 15.5 99t36 106.5t50 123t56.5 148.5q-23 4 -45.5 5t-39 4t-24.5 8t-4 20q6 25 15.5 37t24.5 18t40.5 7t68.5 3q12 39 35 95.5t43.5 110.5t35.5 98t15 61q0 14 -3 23.5t-3 13.5q0 6 13 6q10 0 33.5 -3t47 -12.5t42 -25t18.5 -41.5q0 -20 -29.5 -99 t-109.5 -221q47 0 60 14.5t22 14.5q4 0 15 -19.5t11 -39.5q0 -29 -19.5 -56.5t-68.5 -29.5h-14q10 -48 10 -96q0 -21 -2 -42q-6 -69 -25.5 -130.5t-51.5 -114t-64 -84.5q-20 -20 -53 -49t-80 -29q-27 0 -41.5 7t-20.5 18.5t-8 24.5t-2 26zM14 -41q0 -10 4 -10q14 0 31 14 t33 37t31.5 52.5t27.5 58.5q14 37 23.5 96t9.5 100v25.5t-2 23.5q-14 -31 -41 -87t-52.5 -115.5t-45 -113.5t-19.5 -81z" />
<glyph unicode="g" horiz-adv-x="479" d="M-119 -51q0 27 14.5 44t36 25.5t47 11.5t48.5 3q18 0 32.5 -1t20.5 -1q-53 16 -76.5 61t-23.5 105q0 72 30 161q6 20 27.5 63.5t59.5 86.5t93.5 75.5t128.5 37.5q98 0 140.5 -27t42.5 -62q0 -16 -8.5 -32.5t-18.5 -28.5t-19.5 -19.5t-13.5 -7.5q-2 0 -8 8.5t-16 19.5 t-26.5 19.5t-41.5 8.5q-61 0 -107 -39t-78 -92.5t-49.5 -112.5t-19.5 -98q0 -14 4 -40t17 -26q33 0 61.5 25.5t51 63.5t40 80t27.5 75q2 14 8 33.5t17.5 36t28 28.5t38.5 12q35 0 65.5 -22.5t30.5 -32.5q0 -8 -13 -16t-36 -60q-4 -10 -21.5 -48t-38 -84t-40 -89t-25.5 -63 q27 0 56.5 1t57.5 2t50.5 3t34.5 8q2 2 6 2q8 0 13.5 -20.5t5.5 -42.5q0 -29 -23 -52.5t-82 -23.5q-16 0 -52 5t-112 15q-2 -2 -6 -10q-29 -53 -83 -82t-107 -29q-39 0 -73 13.5t-59.5 34t-41 46t-15.5 48.5zM-82 -51q10 -27 52 -43.5t83 -16.5q63 0 107 52q-27 2 -60.5 4 t-66.5 4t-60.5 3t-42.5 1q-12 0 -12 -4zM131 31q8 0 17.5 -1t19.5 -1q14 0 25.5 5t15.5 21t4 21q-39 -39 -82 -45z" />
<glyph unicode="h" horiz-adv-x="473" d="M-33 92q-4 20 1 54t15.5 74t25 83t30.5 84q12 33 32.5 84t42 107.5l43 113t36.5 99.5q4 10 11 34.5t1 38.5q-4 6 11 7t28 -1q20 -2 43.5 -11t38.5 -25q16 -18 19 -44v-7q0 -24 -15 -56q-6 -12 -21.5 -42t-36 -72t-46 -93t-50.5 -104q33 43 76 92t74 76q23 18 39 22 q8 4 16 4q20 2 50 -1t54.5 -17t35.5 -39q4 -9 4 -20q0 -20 -13 -46q-10 -20 -38 -69t-58.5 -106.5t-55 -115t-28.5 -96.5q4 -12 28.5 -4t54 24.5t57.5 37t38 37.5q2 0 4 2q2 0 3 1t5 -1q10 -4 6 -13q0 -6 -6 -12q-4 -6 -14 -20.5t-27.5 -33t-40 -35.5t-49.5 -30 q-12 -8 -31.5 -14t-42.5 -8q-10 -2 -24 1t-28.5 11t-25 22.5t-12.5 32.5v8q-2 7 -2 17q-1 19 7 51q12 48 31.5 107t41 116.5t33.5 94.5q2 20 -23 -3q-10 -8 -40.5 -39.5t-68.5 -76.5t-75 -96.5t-59 -100.5q-16 -45 -26.5 -79t-10.5 -52q2 -8 -7.5 -10t-21.5 3t-23.5 18.5 t-15.5 35.5z" />
<glyph unicode="i" horiz-adv-x="225" d="M-43 123q0 31 15.5 85t36 112.5t41 112.5t30.5 83q4 16 5 22.5t-1 16.5q-2 12 -5 16t-3 11q0 6 12 12t41 6q18 0 41 -4t41 -13.5t30.5 -24.5t12.5 -36q0 -18 -8 -35q-10 -23 -38 -70.5t-58.5 -106t-56 -116t-30.5 -96.5q2 -6 13 -6q18 0 47 16.5t57.5 36t49.5 35.5l22 17 q8 0 9 -5.5t1 -7.5q-2 -2 -4 -6t-4 -6q-4 -8 -21.5 -31.5t-45 -48t-65.5 -43t-81 -18.5q-29 0 -56.5 21.5t-27.5 70.5zM156 645q0 35 14 82t14 90q0 16 -3 21.5t-3 9.5q0 14 39 14q16 0 31.5 -1t32.5 -5h-2q39 -8 51 -32.5t12 -37.5v-8q-4 -10 -15.5 -38.5t-28.5 -59.5 t-36.5 -55.5t-38.5 -24.5q-18 0 -39.5 11.5t-21.5 15.5q-6 2 -6 18z" />
<glyph unicode="j" horiz-adv-x="219" d="M-401 -55q0 29 15 46t39.5 27.5t56.5 13.5t67 3q37 0 73.5 -2t67.5 -2q12 49 40 129t56.5 160.5t50 146t21.5 88.5q0 12 -4 16t-4 11q0 6 12 12t41 6q18 0 41 -4t41 -13.5t30.5 -24.5t12.5 -36q0 -18 -8 -35q-10 -23 -38 -70.5t-58.5 -106t-56 -116t-29.5 -96.5 q2 -6 12 -6q18 0 47 16.5t56.5 36t49 36t25.5 16.5q8 -4 8 -13q-2 -2 -4 -6t-4 -6q-4 -8 -19.5 -27.5t-40 -42t-56 -43t-68.5 -26.5q27 0 55.5 2t52 5t37.5 5l14 2q8 0 13.5 -19.5t5.5 -41.5q0 -29 -21.5 -53.5t-83.5 -24.5q-18 0 -52 5t-111 15q-2 -2 -7 -10 q-29 -53 -82 -82t-106 -29q-37 0 -70.5 12.5t-59.5 33t-42 45t-16 47.5zM-340 -51q10 -27 44 -43.5t69 -16.5q63 0 104 52q-53 0 -107.5 6t-93.5 6q-16 0 -16 -4zM25 31h2l-2 2v-2zM168 639q0 35 14.5 84t14.5 90q0 16 -4.5 23.5t-4.5 11.5q0 8 12.5 11t28.5 3q14 0 37 -1 t39 -9q16 -4 25.5 -14.5t14.5 -21.5t6 -21.5t1 -16.5q-4 -10 -15 -38.5t-28.5 -59.5t-37 -55.5t-38.5 -24.5q-23 0 -36 5t-19 11.5t-8 12.5t-2 10z" />
<glyph unicode="k" horiz-adv-x="493" d="M-39 113q0 25 6 56.5t16.5 68t23.5 74.5t28 73q12 37 32.5 98.5t44 128t46 128t39.5 98.5q4 10 4 28q0 14 -3 23.5t-3 13.5q0 8 12 8t35.5 -3t47 -12t42 -24.5t18.5 -42.5q0 -23 -44 -123t-134 -292q27 37 55.5 71.5t56 62t53 45t48.5 17.5q18 0 42 -7t45.5 -20.5 t35.5 -33t14 -45.5q0 -16 -19.5 -50t-54 -74t-83 -78t-105.5 -62q27 -20 63.5 -51t73.5 -63t71 -59.5t54 -41.5q28 -17 62 -21q5 -1 10 -1q28 0 55 17q0 -16 -7 -41.5t-22.5 -50t-38 -42t-55.5 -17.5q-35 0 -70.5 26.5t-71.5 65.5t-73 86t-73.5 86t-72.5 65.5t-71 26.5 q-23 -37 -34 -70.5t-19 -61t-12 -44t-11 -16.5q-16 0 -36.5 18.5t-20.5 61.5zM115 256q6 -2 20 -2q43 0 77 24.5t60.5 59.5t43 73t22.5 66q0 10 -2 20.5t-12 4.5l-20 -20q-21 -19 -51 -51t-66.5 -77t-71.5 -98z" />
<glyph unicode="l" horiz-adv-x="206" d="M-39 125q0 23 9.5 59.5t22.5 78.5t28.5 85t29.5 78q10 27 27.5 69t38 90t41 100t38 96t27.5 77t10 45t-2 18.5t-2 10.5q0 6 13 6q8 0 17.5 -1t21.5 -3q16 -4 35.5 -9t36 -13.5t27.5 -21.5t11 -34q0 -23 -18 -59q-8 -14 -32 -60.5t-56.5 -109t-69.5 -135t-69.5 -143 t-58.5 -132t-36 -100.5q0 -20 19 -21q14 0 38.5 11.5t65.5 39.5q25 16 42 33t26 17q4 0 6 -4.5t2 -6.5q0 -10 -7 -14t-7 -12q-2 -2 -17.5 -22.5t-41 -44t-58.5 -43t-70 -19.5q-43 0 -65.5 28.5t-22.5 65.5z" />
<glyph unicode="m" horiz-adv-x="770" d="M-68 104q4 33 23.5 94.5t44.5 127t49.5 125t36.5 88.5q10 20 10 36q2 12 -1 18.5t-3 10.5q0 6 10.5 10t38.5 4q18 0 40 -5t40.5 -15t29.5 -26.5t9 -36.5t-19.5 -46t-52.5 -86q31 33 57.5 70t50 67.5t44 50t41.5 19.5q16 0 40.5 -2t48.5 -9t40 -22.5t16 -39.5 q0 -18 -12 -44t-43 -85q27 35 53.5 70.5t52 64t53 46t58.5 17.5q18 0 41 -4t41 -13t30.5 -24.5t12.5 -36.5q0 -18 -8 -34q-10 -23 -38 -72t-59.5 -108.5t-57 -118t-29.5 -97.5q2 -6 12 -6q18 0 47 16.5t57.5 36t50 36t25.5 16.5q6 -4 6 -13q-2 -2 -4 -6t-4 -6 q-4 -8 -21.5 -31.5t-45 -48t-65.5 -43t-81 -18.5q-29 0 -56.5 21.5t-27.5 70.5q0 27 12.5 72t29.5 96t35.5 102t33.5 88v-2q2 6 2 15q0 6 -4 6q-6 0 -19 -13q-18 -16 -64 -65t-92.5 -113.5t-82 -134.5t-35.5 -125q0 -10 -3 -13t-18 -3q-23 0 -45 14t-22 49q0 31 10 80 t23.5 104.5t30 108.5t28.5 92q2 6 2 13q0 6 -4 6q-6 0 -19 -13q-18 -16 -65 -65t-99.5 -112.5t-94.5 -131t-48 -121.5q0 -4 1 -7t1 -7q0 -10 -14 -6q-18 0 -42 16.5t-20 50.5z" />
<glyph unicode="n" horiz-adv-x="477" d="M-63 98q2 33 20 94.5t42 128t47.5 126t35.5 88.5q4 10 7 20t5 20q0 10 -3 15.5t-3 9.5q0 14 45 14q18 0 41 -5t42.5 -15t31.5 -25.5t10 -38.5q-2 -18 -13.5 -38.5t-39.5 -65.5q31 33 53.5 65.5t44 58t44 41t50.5 15.5q18 0 41 -4t41.5 -13t30.5 -24.5t12 -36.5 q0 -18 -8 -34q-10 -23 -37.5 -72t-58.5 -108.5t-56.5 -118t-29.5 -97.5q0 -6 10 -6q18 0 47 16.5t57.5 36t50 36t25.5 16.5q6 -4 6 -13q0 -2 -3 -6t-3 -6q-6 -8 -24.5 -31.5t-46 -48t-63.5 -43t-79 -18.5q-29 0 -57.5 22.5t-28.5 69.5q0 27 12.5 72t30 96t35.5 102t33 88v-2 q2 6 2 15q0 6 -4 6q-6 0 -19 -13q-16 -14 -62 -62t-95.5 -111.5t-90 -133t-45.5 -127.5q-2 -10 -4 -15t-16 -3q-10 0 -21.5 3t-21.5 11t-16.5 20.5t-3.5 28.5z" />
<glyph unicode="o" horiz-adv-x="497" d="M-6 248q2 61 26.5 126.5t60.5 121t80 91.5t85 36q18 0 33.5 -10.5t25.5 -25t14.5 -27.5t4.5 -21t-11 -9q-45 -12 -80.5 -51t-60.5 -89t-39 -105.5t-16 -98.5q-1 -9 -1 -18q0 -78 50 -78q27 0 59.5 31t67.5 92q-25 12 -47 44q-19 27 -20 72q0 8 1 17q2 33 13.5 69t31 65.5 t48 49t63.5 19.5t54.5 -16.5t28.5 -38t10 -43t1 -33.5q-2 -35 -13 -77t-26 -83q35 6 59.5 16.5t42 21.5t26.5 19.5t14 8.5q2 0 2 -2q4 0 4 -9q0 -8 -10.5 -24.5t-32 -32.5t-53 -31.5t-74.5 -21.5q-55 -98 -128 -137t-141 -39q-67 0 -113 54q-41 48 -41 142q0 12 1 25z M307 350q0 -20 3 -33.5t16 -29.5q10 29 23 59.5t16 63.5q-1 16 -7 22q-27 -6 -38 -31.5t-13 -50.5z" />
<glyph unicode="p" horiz-adv-x="501" d="M-125 -139q0 49 23.5 125.5t48.5 148.5q12 33 31.5 87t42 113.5t44 115t35.5 92.5q4 16 4 24q0 14 -4 23.5t-4 15.5q0 10 16.5 11t39.5 1q31 0 66.5 -15t37.5 -56q31 35 66.5 56.5t83.5 21.5q39 0 63.5 -32t24.5 -118q0 -70 -23 -137q29 12 41 24.5t18 12.5q2 0 2.5 -1 t2.5 -1q6 -4 6 -8q0 -14 -23.5 -41t-71.5 -50q-53 -109 -129.5 -176t-152.5 -67q-41 0 -71 12t-44 27q-39 -90 -65.5 -165t-26.5 -110q4 -14 -16 -14q-23 0 -44.5 18.5t-21.5 61.5zM80 127q0 -39 39 -39q31 0 55.5 17.5t44 42t35.5 53t29 51.5q-10 2 -26.5 8t-33 19.5 t-29 33t-12.5 47.5q-16 -29 -28.5 -56.5t-16.5 -37.5q-6 -12 -16 -31.5t-19.5 -39t-15.5 -38t-6 -30.5zM260 395q0 -12 7 -39t42 -43q6 12 15.5 40t15.5 56.5t4 54t-20 36.5q-35 0 -49.5 -37t-14.5 -68z" />
<glyph unicode="q" horiz-adv-x="509" d="M-12 246q0 80 24.5 148.5t66.5 118.5t97 80t115 30q25 0 54.5 -3.5t55.5 -19.5q-2 2 -2 6q0 10 17.5 11t40.5 1q31 0 67.5 -16t36.5 -59q0 -12 -12 -40t-34.5 -77t-57.5 -124t-80 -179q23 12 47.5 29.5t46 34t35.5 27.5l14 11q2 0 6 -3t4 -7q0 -2 -1 -2t-1 -2v-2 q-31 -53 -81 -89t-97 -57q-37 -90 -63.5 -163.5t-26.5 -106.5q0 -12 -14 -12q-23 0 -44.5 18.5t-21.5 63.5q0 31 9.5 76t25.5 92q-10 -2 -19.5 -2h-19.5q-66 0 -103.5 24.5t-56 59t-23.5 71.5t-5 62zM125 209q0 -59 23.5 -91t84.5 -32q31 78 60 160t63 174v19.5t-4 26.5 t-15 24.5t-34 11.5q-35 0 -66.5 -24.5t-56 -65.5t-40 -94.5t-15.5 -108.5z" />
<glyph unicode="r" horiz-adv-x="438" d="M-16 141q0 12 8 21q25 27 46 65.5t38.5 84.5t30 94.5t22.5 93.5q-47 23 -67.5 64.5t-20.5 88.5q0 39 13.5 76t36 65.5t55 46t73.5 17.5q27 0 45.5 -17.5t18.5 -66.5q0 -20 -1 -34.5t-6.5 -33t-13.5 -45t-20 -69.5q37 0 74.5 4t70.5 14q6 0 16.5 -3t21.5 -12t19.5 -23.5 t8.5 -34.5q0 -23 -11 -50q-10 -23 -37.5 -70.5t-58.5 -106t-55.5 -116t-28.5 -96.5q0 -6 10 -6q31 0 63 16.5t56.5 36t41 36t20.5 16.5q6 -4 6 -13q0 -2 -3 -6t-3 -6q-27 -41 -60 -72q-29 -29 -68.5 -50t-86.5 -21q-27 0 -54.5 20.5t-27.5 61.5q0 27 16 80t34.5 110 t35 108.5t16.5 73.5q0 10 -10 11q-8 0 -19.5 -1t-25.5 -4q-16 -41 -43 -103t-55.5 -120.5t-57.5 -99.5t-49 -41q-14 0 -14 16zM113 674q0 -46 39 -64q4 18 9 41t5 47q0 33 -19 33q-12 0 -23 -16.5t-11 -40.5z" />
<glyph unicode="s" horiz-adv-x="448" d="M-47 203q0 37 13.5 61.5t31.5 39.5t37.5 22.5t32.5 7.5q31 66 55 128t33 91q10 41 20 71.5t10 61.5q0 14 -3 22.5t-3 12.5q2 12 25.5 11t52.5 -11t52.5 -29.5t23.5 -46.5q0 -25 -15 -55q-12 -25 -19 -37t-11 -17.5t-5 -5.5l-1 -2q41 -66 73.5 -136t32.5 -140 q0 -29 -13.5 -67t-43 -72.5t-77.5 -59t-118 -24.5q-49 0 -85 17t-57.5 43t-31.5 56.5t-10 57.5zM0 197q10 20 23.5 43.5t25.5 52.5q-25 -14 -37 -41t-12 -55zM8 150q10 -25 29.5 -40.5t48.5 -15.5q35 0 65.5 18.5t54 50.5t37 74t13.5 89q0 61 -27 129q-31 -45 -66.5 -97.5 t-68.5 -97.5t-56.5 -76.5t-29.5 -33.5z" />
<glyph unicode="t" horiz-adv-x="204" d="M-51 727q0 8 19.5 14.5t52 10.5t75.5 6t92 4q8 12 11.5 28.5t3.5 30.5q0 12 -2 19.5t-2 11.5q0 6 10 6q12 0 35.5 -3t48 -13.5t42 -28.5t17.5 -49q102 0 152.5 2t72 3t26.5 3t15 2q4 0 7.5 -17.5t3.5 -35.5q0 -14 -1 -22.5t-13.5 -12.5t-43 -5t-90.5 -1q-35 0 -77 1 t-87 3q-23 -43 -61.5 -117.5t-79.5 -157.5t-75.5 -162t-47.5 -132q0 -8 3 -13.5t16 -5.5q14 0 38.5 10.5t65.5 38.5q27 18 41 35t25 17q4 0 6 -5.5t2 -7.5q0 -12 -14 -26l-16 -20q-15 -21 -40.5 -45.5t-57.5 -44t-67 -19.5q-47 0 -70.5 28.5t-23.5 67.5q0 45 15.5 99.5 t41 123t61.5 152.5t79 188q-86 4 -147.5 13.5t-61.5 25.5z" />
<glyph unicode="u" horiz-adv-x="501" d="M-31 131q2 41 21.5 109.5t43 136t43 120t19.5 62.5q0 12 -4 17.5t-4 11.5q0 4 11.5 10t39.5 6q18 0 40 -4t40.5 -14.5t30.5 -25.5t12 -36q0 -18 -8 -37q-10 -23 -38 -70.5t-58.5 -106t-56 -116t-27.5 -96.5q0 -6 12 -6t35.5 10.5t48.5 25.5t47.5 32.5t32.5 29.5 q12 51 31.5 110.5t39 113t33 93.5t13.5 52t-4.5 17.5t-4.5 11.5q0 4 11.5 10t40.5 6q18 0 39.5 -5t40 -14.5t30.5 -25.5t12 -37q0 -18 -8 -35q-10 -23 -37.5 -70.5t-58.5 -106t-56.5 -116t-29.5 -96.5q2 -6 12 -6q31 0 61.5 16.5t56.5 36t42.5 36t20.5 16.5q6 -4 6 -13 q-2 -2 -4 -6t-5 -6q-4 -8 -22 -31.5t-46 -48t-65 -44t-80 -19.5q-35 0 -57 28.5t-22 81.5q-12 -16 -32 -34.5t-43.5 -36t-52 -28.5t-61.5 -11t-57.5 26.5t-24.5 75.5z" />
<glyph unicode="v" horiz-adv-x="509" d="M-33 131q0 47 16.5 122t37 146.5t37 121.5t16.5 48q0 8 -4 13.5t-4 11.5q0 14 40 14q18 0 41 -5t43.5 -15t34 -25.5t13.5 -38.5q0 -14 -11 -39q-10 -20 -34.5 -68t-50 -105.5t-47 -115t-23.5 -96.5q0 -8 10 -8q23 0 59 25q84 53 130 135t69 160q-45 29 -65.5 72.5 t-20.5 90.5q0 37 12.5 73t35 65.5t55 47t73.5 17.5q25 0 44.5 -16.5t19.5 -63.5v-34.5t-5.5 -36t-16.5 -55t-36 -93.5q18 2 37 7.5t37 17.5q6 4 14 -12.5t8 -38.5q0 -29 -17 -51.5t-62 -22.5q-29 0 -56 10q-25 -53 -59.5 -115.5t-78.5 -116t-96 -90t-110 -36.5 q-29 0 -57.5 23.5t-28.5 76.5zM319 592q0 -61 41 -90q8 45 9.5 72.5t1.5 29.5v-2q0 53 -21 53q-10 0 -20.5 -17t-10.5 -46z" />
<glyph unicode="w" horiz-adv-x="729" d="M-23 139q0 49 10.5 122t23 140.5t22.5 115.5t10 46q0 16 -5 21.5t-5 11.5t12 13t41 7q18 0 39.5 -4t40 -13t31 -24.5t12.5 -35.5q0 -14 -6 -33q-8 -23 -27.5 -73t-39 -108.5t-35 -118t-15.5 -100.5q0 -14 8 -14q10 0 30.5 12.5t42 30t42 36.5t33.5 36q6 55 16 115.5 t20.5 112.5t17.5 88t7 40q0 16 -5 21.5t-5 11.5t12 13t41 7q18 0 40 -4t40 -13t30.5 -24.5t12.5 -35.5q0 -14 -6 -33q-8 -23 -27.5 -73t-39 -108.5t-35 -118t-15.5 -100.5q0 -14 8 -14q8 2 24.5 9.5t33.5 21.5q39 33 67.5 73t49 81.5t33.5 85t22 81.5q-53 25 -78 74t-25 103 q0 35 11.5 69.5t33 63t51 46t68.5 17.5q35 0 50.5 -27.5t15.5 -105.5q0 -10 -1 -20.5t-5.5 -28t-12.5 -45t-20 -70.5q38 4 71 31q10 2 19.5 -16.5t9.5 -42.5q0 -31 -22.5 -51.5t-69.5 -20.5q-10 0 -19.5 1t-19.5 3q-20 -55 -51 -125t-71 -129t-89 -100t-104 -41 q-37 0 -62.5 27.5t-25.5 95.5q-10 -16 -26.5 -38t-39 -40.5t-49.5 -31.5t-57 -13q-33 0 -61 25.5t-28 84.5zM545 631q0 -69 51 -96q2 16 2 31.5v25.5t-1 18t-1 15v12v-2q0 53 -23 53q-10 0 -19 -16.5t-9 -40.5z" />
<glyph unicode="x" horiz-adv-x="434" d="M-10 96q0 25 38 80t87 121q-12 20 -28.5 51t-31 62.5t-25 63.5t-10.5 54q0 25 17.5 41.5t41 25.5t48.5 12t37 3q14 0 14 -8q0 -4 -4 -10t-4 -17q0 -14 3 -53t28 -110q45 59 62.5 93t17.5 60q0 12 -4.5 17.5t-4.5 11.5q0 4 10.5 10t36.5 6q18 0 39 -4t39.5 -12t29.5 -22.5 t11 -34.5q0 -29 -47 -91.5t-139 -177.5l15 -50t19.5 -58.5t21.5 -50t22 -23.5q23 0 46 16.5t41.5 37t31 37t10.5 16.5l4 2q6 0 6 2t4 2q2 -4 5 -6.5t3 -6.5l-2 -4l-4 -8q-2 -2 -2 -6v-2q0 -2 -12 -24.5t-33.5 -49t-54.5 -48t-74 -21.5q-20 0 -39.5 19t-37 45t-30 52.5 t-20.5 40.5q-18 -25 -36.5 -49.5t-32 -46t-21.5 -37.5t-8 -24t-12.5 -3t-29 17t-29.5 27.5t-13 31.5z" />
<glyph unicode="y" horiz-adv-x="491" d="M-125 -51q0 37 25.5 54t56.5 22.5t58.5 4.5t31.5 1q-29 2 -53.5 26.5t-24.5 73.5q2 41 22.5 110.5t44 137t43 120t19.5 60.5q0 14 -4 18.5t-4 10.5q0 4 10.5 10t38.5 6q18 0 40 -4t40.5 -14.5t30.5 -25.5t12 -36q0 -18 -8 -37q-10 -23 -38 -70.5t-58.5 -106t-55 -116 t-28.5 -96.5q0 -6 10 -6q12 0 36.5 11.5t50.5 26.5t48.5 32.5t28.5 32.5q12 51 32.5 110.5t39 111.5t32 91t13.5 51q0 14 -4.5 18.5t-4.5 10.5q0 4 10.5 10t39.5 6q18 0 39.5 -4t40 -14.5t30.5 -25.5t12 -36q0 -8 -16 -43t-42 -84t-56.5 -109.5t-59.5 -117.5 q-14 -35 -25.5 -66.5t-25.5 -72.5q31 0 67 1t66.5 3t52 5t21.5 7q8 0 13 -20.5t5 -42.5q0 -29 -22.5 -52.5t-81.5 -23.5q-16 0 -52 5t-112 15q-29 -59 -84 -90t-113 -31q-39 0 -72.5 13.5t-59 34t-41 46t-15.5 48.5zM-63 -51q10 -27 43.5 -43.5t68.5 -16.5q63 0 105 52 q-53 4 -107.5 8t-93.5 4q-16 0 -16 -4zM59 31h138q2 6 2 12t4 12q4 16 10 32.5t10 33.5q-29 -29 -66.5 -59.5t-97.5 -30.5z" />
<glyph unicode="z" horiz-adv-x="417" d="M-217 -51q0 27 13.5 43t35 24.5t47 11.5t47.5 3h55.5t41 -1t37 -1h42.5q2 6 3 13t4 13q8 23 23 70t29.5 95t27 84t14.5 36q14 45 27.5 85t13.5 56q0 8 -6 8q-8 0 -20.5 -1t-29.5 -1q-16 -41 -39.5 -102t-48 -117.5t-49 -96.5t-45.5 -40q-14 0 -14 19q0 10 8 20 q53 63 74.5 150.5t40.5 177.5q-47 23 -67.5 64.5t-20.5 88.5q0 39 13 75t35.5 64.5t55.5 46t72 17.5q27 0 46 -17.5t19 -66.5q0 -18 -1 -32.5t-5 -33t-12 -45t-23 -69.5q37 0 76 9t72 9q14 0 38.5 -18.5t24.5 -54.5q0 -10 -2 -24.5t-10 -25.5q-8 -23 -36 -70.5t-58.5 -105 t-56 -115t-29.5 -96.5q2 -6 12 -6q16 0 45 16.5t56.5 36t49 36t23.5 16.5l4 -2q6 -2 6 -9q0 -2 -1 -7t-5 -9l-13 -20q-13 -19 -37 -42.5t-57.5 -46t-76.5 -30.5q25 2 50.5 2h49.5q29 0 44.5 6t19.5 6q8 0 12 -18.5t4 -40.5q0 -29 -20.5 -53.5t-81.5 -24.5q-16 0 -52 5 t-112 15q-29 -59 -83 -90t-112 -31q-41 0 -75.5 14.5t-59 35t-39 45t-14.5 47.5zM-156 -51q10 -29 44 -45.5t69 -16.5q57 0 104 52q-2 2 -4 2q-53 4 -109.5 8t-90.5 4q-12 0 -13 -4zM98 670q0 -45 39 -64q6 35 8 55.5t5 20.5v-6q0 4 1 9t1 9q0 35 -19 35q-12 0 -23.5 -16.5 t-11.5 -42.5z" />
<glyph unicode="{" horiz-adv-x="718" d="M16 41q0 70 11.5 126t37 117.5t65.5 136.5t99 179q119 205 159 324.5t40 148.5q0 25 -8 45.5t-8 34.5t27.5 22.5t52.5 8.5q16 0 35.5 -6.5t36 -20.5t27.5 -39.5t11 -64.5q0 -14 -8 -55.5t-32.5 -104t-66.5 -145t-110 -179.5q-70 -104 -126 -174.5t-96 -128t-62.5 -115 t-22.5 -133.5q0 -29 14 -59.5t39 -55t56.5 -41t66.5 -16.5q57 0 90 22.5t47.5 50.5t17.5 53.5t3 31.5q0 29 -20.5 49.5t-20.5 30.5q0 16 16 28.5t37.5 19.5t42 11t27.5 4q14 0 31.5 -6t31.5 -21.5t23.5 -44t9.5 -73.5q0 -41 -19.5 -91t-56.5 -94t-93 -74t-130 -30 q-80 0 -131 32t-82 76t-44.5 92t-13.5 81q-2 10 -3 22.5t-1 24.5z" />
<glyph unicode="}" horiz-adv-x="1058" d="M152 10q0 68 25.5 113t37.5 57q29 33 52.5 46.5t43.5 13.5t41 -12.5t37.5 -31t26.5 -41t10 -40.5q0 -12 -16.5 -18.5t-37 -17.5t-37 -32.5t-16.5 -64.5q0 -23 8.5 -51.5t27 -55.5t47 -44t69.5 -17q90 0 140.5 49t74 128t28.5 179t5 203q0 47 -1 79.5t-2 62.5t-2 62.5 t-1 81.5q0 111 12 195t28.5 142.5t33 92t24.5 44.5q27 37 53.5 51t48.5 14q14 0 35 -7t38.5 -19.5t29.5 -27t12 -28.5q0 -4 -27.5 -27.5t-44.5 -58.5q-4 -10 -16 -47t-25.5 -99.5t-25.5 -147.5t-19 -187q-20 -262 -64 -438.5t-140 -276.5q-35 -47 -92.5 -88t-147.5 -41 q-59 0 -109.5 25.5t-87 68.5t-57 98.5t-20.5 112.5z" />
<glyph unicode="&#xa1;" horiz-adv-x="540" d="M-191 -170q0 12 4 26.5t10 32.5q6 20 37 85t73 154t90 191.5t88 197.5t66.5 173t26.5 115q0 16 -7 22t-7 10q0 2 8 3q41 0 61.5 -39t22.5 -78q-2 -68 -22.5 -151t-51 -169t-66.5 -170t-70 -155.5t-59.5 -124.5t-37.5 -78q-2 -4 -8 -22.5t-14.5 -40t-14.5 -43t-6 -31.5 q0 -6 -8 -6q-12 0 -31.5 7t-38 19t-32 30.5t-13.5 41.5zM231 883q0 35 14.5 82t14.5 90q0 16 -2 22t-2 10q0 12 36 13q16 0 32 -1t32 -6h-2q37 0 51 -27.5t14 -41.5q0 -4 -1 -5t-1 -3q-4 -8 -15 -37t-28.5 -59.5t-37 -55t-37.5 -24.5q-16 0 -39 10t-23 14q-6 6 -6 19z" />
<glyph unicode="&#xa2;" horiz-adv-x="651" d="M33 297q0 82 28.5 168t74.5 158.5t103.5 123t116.5 62.5q16 51 23 68q4 0 16.5 34.5t12.5 75.5q0 4 6 4t18 -4t24.5 -12t22.5 -19.5t10 -25.5q0 -10 -1 -14.5t-5 -14.5t-13 -31.5t-24 -66.5q18 -8 27.5 -16.5t13.5 -12.5q4 10 12.5 26.5t8.5 30.5q0 10 -2 15.5t-2 9.5 q0 6 16 6q14 0 32.5 -2t36 -8t29 -19.5t11.5 -33.5q0 -10 -4 -19.5t-9 -23.5q-6 -18 -30.5 -56t-51 -81.5t-47 -86.5t-20.5 -69q0 -16 9 -24.5t9 -10.5t-2 -2q-12 0 -28.5 7t-29.5 19.5t-22.5 29t-9.5 34.5q0 37 10.5 72t28.5 74q-4 4 -10 11t-16 13q-25 -66 -52.5 -143.5 t-55.5 -155.5t-52.5 -153.5t-42.5 -137.5q6 -2 22 -2q4 0 9.5 1t9.5 1q61 20 104 61.5t73 81.5t48 69.5t29 29.5q12 0 12 -19q0 -10 -8 -23t-13 -24q-2 -2 -24.5 -38.5t-60 -79.5t-88 -78t-105.5 -35q-16 0 -25 2q-23 -74 -22 -104q0 -10 4 -15.5t6 -7.5l-6 -2 q-29 0 -42 28.5t-13 57.5q0 33 8 72q-25 18 -41.5 45.5t-26.5 58.5t-15 62.5t-5 58.5zM113 268q0 -31 6 -60.5t20 -53.5q14 55 32.5 117.5t40 127t44.5 129t43 121.5q-33 -29 -66.5 -71.5t-60.5 -93t-43 -106t-16 -110.5z" />
<glyph unicode="&#xa8;" horiz-adv-x="325" d="M47 729q8 51 17.5 79t17.5 40t17.5 14t19.5 2t16 -6h-2q16 -4 28.5 -20.5t12.5 -20.5q-2 -4 -6 -7t-10 -15q-10 -14 -19.5 -35t-17.5 -40.5t-17.5 -34.5t-17.5 -19q-16 0 -31.5 8t-7.5 55zM172 729q8 51 17.5 79t17.5 40t17 14t20 2q10 0 16 -6h-2q16 -4 28.5 -20.5 t12.5 -20.5q-2 -4 -6 -7t-10 -15q-10 -14 -19.5 -35t-17.5 -40.5t-17.5 -34.5t-17.5 -19q-16 0 -31.5 8t-7.5 55z" />
<glyph unicode="&#xad;" horiz-adv-x="669" d="M43 326q-16 35 8.5 64.5t54.5 45.5q47 23 122 28t152 6t143 5.5t95 22.5q6 4 11.5 -12.5t4.5 -39t-11.5 -46t-34.5 -33.5q-10 -4 -22.5 -6.5t-28.5 -4.5q-29 -4 -88.5 2.5t-128 9.5t-138 0t-114.5 -24q-14 -6 -16.5 -13t-6.5 -9q-2 0 -2 4z" />
<glyph unicode="&#xb4;" horiz-adv-x="368" d="M44 683q5 7 15.5 13t14.5 9q61 18 97 41.5t54.5 45t24.5 38t6 20.5l6 6q6 4 24.5 -14.5t26.5 -40.5q6 -14 8.5 -27.5t-6 -28t-32 -30t-70.5 -35.5q-29 -12 -68 -16.5t-65 -1.5q-29 2 -35 8t-1 13z" />
<glyph unicode="&#xbf;" horiz-adv-x="774" d="M-158 17q0 86 36 178t89 182q45 78 91 132t87 91t75 59.5t54 34.5q31 53 46 80t38 56q6 10 25.5 10t39 -7.5t30 -16.5t-4.5 -17q-20 -33 -41 -66q-16 -29 -33.5 -59.5t-31.5 -52.5q-27 -18 -51.5 -31.5t-56.5 -40.5t-74 -78t-103 -147q-57 -92 -90 -184.5t-33 -163.5 q0 -57 31 -98.5t96 -41.5q63 0 120.5 36t100.5 91.5t69 123t26 128.5q0 43 -9.5 75t-21.5 55.5t-25.5 37.5t-21.5 21q-29 29 -52.5 37t-23.5 10q0 8 6 24.5t17.5 32.5t28 28.5t34.5 12.5q14 0 24.5 -2t21.5 -7t25.5 -16.5t34.5 -29.5q10 -10 29 -32t38 -56.5t33.5 -81.5 t14.5 -107q0 -84 -36 -171t-97 -157.5t-140 -115.5t-165 -45q-57 0 -104.5 23.5t-79 63.5t-49 92t-17.5 110zM370 887q0 35 14.5 82t14.5 90q0 16 -2 22.5t-2 10.5q0 12 37 12q16 0 31.5 -1t31.5 -5h-2q37 0 51.5 -27.5t14.5 -42.5q0 -4 -1 -5t-1 -3q-4 -8 -15.5 -36.5 t-29 -59.5t-37 -55.5t-37.5 -24.5q-16 0 -38.5 10t-22.5 14q-6 6 -7 19z" />
<glyph unicode="&#xc0;" d="M27 236q0 106 47 199t120.5 163t164 110t176.5 40q55 0 110 -12.5t99 -37t71 -58.5t27 -77q0 -18 -12.5 -35.5t-28 -32t-29.5 -22.5t-18 -8q-10 0 -15.5 20.5t-29.5 38.5q2 -2 -7.5 7.5t-29 20.5t-51 20.5t-74.5 9.5q-66 0 -138.5 -31t-134 -84t-101.5 -126t-40 -157 q0 -23 4 -45t17.5 -42.5t39 -33t68.5 -12.5q51 0 107.5 21.5t114 59.5t116.5 89t119 111q-25 2 -43.5 2h-28.5q-16 -2 -29.5 -4t-23.5 -4q-10 -4 -21 -7q-4 0 -11 9.5t-13 24t-10 30.5t-4 31q0 29 22.5 44t87.5 15q18 0 57 -6t111 -27q78 94 137.5 183.5t100.5 159 t61.5 114.5t20.5 51q0 10 -3.5 18.5t-3.5 12.5q0 12 25 12q12 0 33.5 -2t44 -11t39 -25.5t16.5 -43.5q0 -25 -18 -57q-2 -6 -29 -47t-70 -104.5t-101 -141.5t-126 -158q37 -12 74 -22t59 -21q31 78 66 159t65.5 148.5t52 116.5t27.5 66q0 6 4 14t4 19q0 12 -3 21t-3 13 q0 11 23 11q18 0 39.5 -2t40 -10.5t32 -24t13.5 -39.5q0 -23 -56.5 -141.5t-169.5 -362.5q12 0 13 -8q0 -10 -8.5 -16.5t-16.5 -6.5q-47 -100 -80 -185t-33 -128q0 -20 8.5 -26.5t8.5 -10.5q0 -2 -2 -2h-6q-41 0 -61.5 39t-20.5 78q0 47 13 106.5t34 122.5q-43 0 -92.5 2 t-98.5 6q-59 -63 -124.5 -124.5t-136 -108.5t-143.5 -77t-145 -32q-135 -4 -212.5 54.5t-77.5 206.5zM1204 1182q2 14 8 29q8 23 26.5 41t24.5 14q1 0 7 -6q0 -4 6 -20.5t24.5 -38t54 -45t97.5 -41.5q4 -2 14 -8.5t14.5 -13.5t-2 -13t-32.5 -8q-27 -2 -66 3t-67 15 q-47 16 -71 31.5t-32 31t-6 29.5z" />
<glyph unicode="&#xc1;" d="M27 236q0 106 47 199t120.5 163t164 110t176.5 40q55 0 110 -12.5t99 -37t71 -58.5t27 -77q0 -18 -12.5 -35.5t-28 -32t-29.5 -22.5t-18 -8q-10 0 -15.5 20.5t-29.5 38.5q2 -2 -7.5 7.5t-29 20.5t-51 20.5t-74.5 9.5q-66 0 -138.5 -31t-134 -84t-101.5 -126t-40 -157 q0 -23 4 -45t17.5 -42.5t39 -33t68.5 -12.5q51 0 107.5 21.5t114 59.5t116.5 89t119 111q-25 2 -43.5 2h-28.5q-16 -2 -29.5 -4t-23.5 -4q-10 -4 -21 -7q-4 0 -11 9.5t-13 24t-10 30.5t-4 31q0 29 22.5 44t87.5 15q18 0 57 -6t111 -27q78 94 137.5 183.5t100.5 159 t61.5 114.5t20.5 51q0 10 -3.5 18.5t-3.5 12.5q0 12 25 12q12 0 33.5 -2t44 -11t39 -25.5t16.5 -43.5q0 -25 -18 -57q-2 -6 -29 -47t-70 -104.5t-101 -141.5t-126 -158q37 -12 74 -22t59 -21q31 78 66 159t65.5 148.5t52 116.5t27.5 66q0 6 4 14t4 19q0 12 -3 21t-3 13 q0 11 23 11q18 0 39.5 -2t40 -10.5t32 -24t13.5 -39.5q0 -23 -56.5 -141.5t-169.5 -362.5q12 0 13 -8q0 -10 -8.5 -16.5t-16.5 -6.5q-47 -100 -80 -185t-33 -128q0 -20 8.5 -26.5t8.5 -10.5q0 -2 -2 -2h-6q-41 0 -61.5 39t-20.5 78q0 47 13 106.5t34 122.5q-43 0 -92.5 2 t-98.5 6q-59 -63 -124.5 -124.5t-136 -108.5t-143.5 -77t-145 -32q-135 -4 -212.5 54.5t-77.5 206.5zM1203 1093q5 7 15.5 13t14.5 9q61 18 97 41.5t54.5 45t24.5 38t6 20.5l6 6q6 4 24.5 -14.5t26.5 -40.5q6 -14 8.5 -27.5t-6 -28t-32 -30t-70.5 -35.5q-29 -12 -68 -16.5 t-65 -1.5q-29 2 -35 8t-1 13z" />
<glyph unicode="&#xc2;" d="M27 236q0 106 47 199t120.5 163t164 110t176.5 40q55 0 110 -12.5t99 -37t71 -58.5t27 -77q0 -18 -12.5 -35.5t-28 -32t-29.5 -22.5t-18 -8q-10 0 -15.5 20.5t-29.5 38.5q2 -2 -7.5 7.5t-29 20.5t-51 20.5t-74.5 9.5q-66 0 -138.5 -31t-134 -84t-101.5 -126t-40 -157 q0 -23 4 -45t17.5 -42.5t39 -33t68.5 -12.5q51 0 107.5 21.5t114 59.5t116.5 89t119 111q-25 2 -43.5 2h-28.5q-16 -2 -29.5 -4t-23.5 -4q-10 -4 -21 -7q-4 0 -11 9.5t-13 24t-10 30.5t-4 31q0 29 22.5 44t87.5 15q18 0 57 -6t111 -27q78 94 137.5 183.5t100.5 159 t61.5 114.5t20.5 51q0 10 -3.5 18.5t-3.5 12.5q0 12 25 12q12 0 33.5 -2t44 -11t39 -25.5t16.5 -43.5q0 -25 -18 -57q-2 -6 -29 -47t-70 -104.5t-101 -141.5t-126 -158q37 -12 74 -22t59 -21q31 78 66 159t65.5 148.5t52 116.5t27.5 66q0 6 4 14t4 19q0 12 -3 21t-3 13 q0 11 23 11q18 0 39.5 -2t40 -10.5t32 -24t13.5 -39.5q0 -23 -56.5 -141.5t-169.5 -362.5q12 0 13 -8q0 -10 -8.5 -16.5t-16.5 -6.5q-47 -100 -80 -185t-33 -128q0 -20 8.5 -26.5t8.5 -10.5q0 -2 -2 -2h-6q-41 0 -61.5 39t-20.5 78q0 47 13 106.5t34 122.5q-43 0 -92.5 2 t-98.5 6q-59 -63 -124.5 -124.5t-136 -108.5t-143.5 -77t-145 -32q-135 -4 -212.5 54.5t-77.5 206.5zM1126 1145q-2 10 12.5 15.5t18.5 9.5h22t23 4q33 4 55.5 14t38.5 21v2q12 12 23.5 17t21.5 7q16 4 26.5 -5t10.5 -23q4 -35 29.5 -67t78.5 -66q4 -6 10.5 -14.5t8.5 -18.5 q2 -8 -8 -10q-20 -4 -46 5t-50.5 24.5t-45 32.5t-32.5 32q-10 -4 -19.5 -6t-19.5 -4q-18 -4 -46 -2t-52.5 6t-42 11t-17.5 15z" />
<glyph unicode="&#xc3;" d="M27 236q0 106 47 199t120.5 163t164 110t176.5 40q55 0 110 -12.5t99 -37t71 -58.5t27 -77q0 -18 -12.5 -35.5t-28 -32t-29.5 -22.5t-18 -8q-10 0 -15.5 20.5t-29.5 38.5q2 -2 -7.5 7.5t-29 20.5t-51 20.5t-74.5 9.5q-66 0 -138.5 -31t-134 -84t-101.5 -126t-40 -157 q0 -23 4 -45t17.5 -42.5t39 -33t68.5 -12.5q51 0 107.5 21.5t114 59.5t116.5 89t119 111q-25 2 -43.5 2h-28.5q-16 -2 -29.5 -4t-23.5 -4q-10 -4 -21 -7q-4 0 -11 9.5t-13 24t-10 30.5t-4 31q0 29 22.5 44t87.5 15q18 0 57 -6t111 -27q78 94 137.5 183.5t100.5 159 t61.5 114.5t20.5 51q0 10 -3.5 18.5t-3.5 12.5q0 12 25 12q12 0 33.5 -2t44 -11t39 -25.5t16.5 -43.5q0 -25 -18 -57q-2 -6 -29 -47t-70 -104.5t-101 -141.5t-126 -158q37 -12 74 -22t59 -21q31 78 66 159t65.5 148.5t52 116.5t27.5 66q0 6 4 14t4 19q0 12 -3 21t-3 13 q0 11 23 11q18 0 39.5 -2t40 -10.5t32 -24t13.5 -39.5q0 -23 -56.5 -141.5t-169.5 -362.5q12 0 13 -8q0 -10 -8.5 -16.5t-16.5 -6.5q-47 -100 -80 -185t-33 -128q0 -20 8.5 -26.5t8.5 -10.5q0 -2 -2 -2h-6q-41 0 -61.5 39t-20.5 78q0 47 13 106.5t34 122.5q-43 0 -92.5 2 t-98.5 6q-59 -63 -124.5 -124.5t-136 -108.5t-143.5 -77t-145 -32q-135 -4 -212.5 54.5t-77.5 206.5zM1140 1158q0 29 36 57.5t99 28.5q76 0 125 -82q6 -10 16.5 -25.5t23 -30t27.5 -24.5t32 -10q8 0 12 2q4 0 6 1t6 1q25 0 25 -15q0 -10 -23.5 -19t-52.5 -9 q-66 0 -95.5 25.5t-47 55t-34.5 55t-58 25.5q-23 0 -38.5 -7t-24.5 -15t-14 -16l-5 -7q-14 0 -15 9z" />
<glyph unicode="&#xc4;" d="M27 236q0 106 47 199t120.5 163t164 110t176.5 40q55 0 110 -12.5t99 -37t71 -58.5t27 -77q0 -18 -12.5 -35.5t-28 -32t-29.5 -22.5t-18 -8q-10 0 -15.5 20.5t-29.5 38.5q2 -2 -7.5 7.5t-29 20.5t-51 20.5t-74.5 9.5q-66 0 -138.5 -31t-134 -84t-101.5 -126t-40 -157 q0 -23 4 -45t17.5 -42.5t39 -33t68.5 -12.5q51 0 107.5 21.5t114 59.5t116.5 89t119 111q-25 2 -43.5 2h-28.5q-16 -2 -29.5 -4t-23.5 -4q-10 -4 -21 -7q-4 0 -11 9.5t-13 24t-10 30.5t-4 31q0 29 22.5 44t87.5 15q18 0 57 -6t111 -27q78 94 137.5 183.5t100.5 159 t61.5 114.5t20.5 51q0 10 -3.5 18.5t-3.5 12.5q0 12 25 12q12 0 33.5 -2t44 -11t39 -25.5t16.5 -43.5q0 -25 -18 -57q-2 -6 -29 -47t-70 -104.5t-101 -141.5t-126 -158q37 -12 74 -22t59 -21q31 78 66 159t65.5 148.5t52 116.5t27.5 66q0 6 4 14t4 19q0 12 -3 21t-3 13 q0 11 23 11q18 0 39.5 -2t40 -10.5t32 -24t13.5 -39.5q0 -23 -56.5 -141.5t-169.5 -362.5q12 0 13 -8q0 -10 -8.5 -16.5t-16.5 -6.5q-47 -100 -80 -185t-33 -128q0 -20 8.5 -26.5t8.5 -10.5q0 -2 -2 -2h-6q-41 0 -61.5 39t-20.5 78q0 47 13 106.5t34 122.5q-43 0 -92.5 2 t-98.5 6q-59 -63 -124.5 -124.5t-136 -108.5t-143.5 -77t-145 -32q-135 -4 -212.5 54.5t-77.5 206.5zM1247 1139q8 51 17.5 79t17.5 40t17.5 14t19.5 2t16 -6h-2q16 -4 28.5 -20.5t12.5 -20.5q-2 -4 -6 -7t-10 -15q-10 -14 -19.5 -35t-17.5 -40.5t-17.5 -34.5t-17.5 -19 q-16 0 -31.5 8t-7.5 55zM1372 1139q8 51 17.5 79t17.5 40t17 14t20 2q10 0 16 -6h-2q16 -4 28.5 -20.5t12.5 -20.5q-2 -4 -6 -7t-10 -15q-10 -14 -19.5 -35t-17.5 -40.5t-17.5 -34.5t-17.5 -19q-16 0 -31.5 8t-7.5 55z" />
<glyph unicode="&#xc5;" d="M27 236q0 106 47 199t120.5 163t164 110t176.5 40q55 0 110 -12.5t99 -37t71 -58.5t27 -77q0 -18 -12.5 -35.5t-28 -32t-29.5 -22.5t-18 -8q-10 0 -15.5 20.5t-29.5 38.5q2 -2 -7.5 7.5t-29 20.5t-51 20.5t-74.5 9.5q-66 0 -138.5 -31t-134 -84t-101.5 -126t-40 -157 q0 -23 4 -45t17.5 -42.5t39 -33t68.5 -12.5q51 0 107.5 21.5t114 59.5t116.5 89t119 111q-25 2 -43.5 2h-28.5q-16 -2 -29.5 -4t-23.5 -4q-10 -4 -21 -7q-4 0 -11 9.5t-13 24t-10 30.5t-4 31q0 29 22.5 44t87.5 15q18 0 57 -6t111 -27q78 94 137.5 183.5t100.5 159 t61.5 114.5t20.5 51q0 10 -3.5 18.5t-3.5 12.5q0 12 25 12q12 0 33.5 -2t44 -11t39 -25.5t16.5 -43.5q0 -25 -18 -57q-2 -6 -29 -47t-70 -104.5t-101 -141.5t-126 -158q37 -12 74 -22t59 -21q31 78 66 159t65.5 148.5t52 116.5t27.5 66q0 6 4 14t4 19q0 12 -3 21t-3 13 q0 11 23 11q18 0 39.5 -2t40 -10.5t32 -24t13.5 -39.5q0 -23 -56.5 -141.5t-169.5 -362.5q12 0 13 -8q0 -10 -8.5 -16.5t-16.5 -6.5q-47 -100 -80 -185t-33 -128q0 -20 8.5 -26.5t8.5 -10.5q0 -2 -2 -2h-6q-41 0 -61.5 39t-20.5 78q0 47 13 106.5t34 122.5q-43 0 -92.5 2 t-98.5 6q-59 -63 -124.5 -124.5t-136 -108.5t-143.5 -77t-145 -32q-135 -4 -212.5 54.5t-77.5 206.5zM1305 1162q0 72 14.5 91t42.5 19q23 0 51.5 -19.5t28.5 -35.5q0 -4 -4 -24.5t-13.5 -43t-25.5 -41t-39 -18.5t-39 12.5t-16 59.5zM1350 1145q0 -14 5 -16t9 -2l2 2 q8 10 12.5 23.5t6.5 23.5q0 4 -9.5 9t-13.5 5q-8 0 -10 -9t-2 -36z" />
<glyph unicode="&#xc6;" horiz-adv-x="1814" d="M27 236q0 106 47 199t120.5 163t164 110t176.5 40q55 0 110 -12.5t99 -37t71 -58.5t27 -77q0 -18 -12.5 -35.5t-28 -32t-29.5 -22.5t-18 -8q-10 0 -15.5 20.5t-29.5 38.5q2 -2 -7.5 7.5t-29 20.5t-51 20.5t-74.5 9.5q-66 0 -138.5 -31t-134 -84t-101.5 -126t-40 -157 q0 -23 4 -45t17.5 -42.5t39 -33t68.5 -12.5q51 0 107.5 21.5t114 59.5t116.5 89t119 111q-25 2 -43.5 2h-28.5q-16 -2 -29.5 -4t-23.5 -4q-10 -4 -21 -7q-4 0 -11 9.5t-13 24t-10 30.5t-4 31q0 29 22.5 44t87.5 15q18 0 57 -6t111 -27q78 94 137.5 183.5t100.5 159 t61.5 114.5t20.5 51q0 10 -3.5 18.5t-3.5 12.5q0 12 25 12q12 0 33.5 -2t44 -11t39 -25.5t16.5 -43.5q0 -25 -18 -57q-2 -6 -29 -47t-70 -104.5t-101 -141.5t-126 -158q37 -12 74 -22t59 -21q31 78 66 159t65.5 148.5t52 116.5t27.5 66q0 6 4 14t4 19q0 12 -3 21t-3 13 q0 11 23 11q18 0 39.5 -2t40 -10.5t32 -24t13.5 -39.5q0 -6 -2 -10q23 2 49 5t67 13q47 12 93.5 29.5t85 35t65.5 32t37 20.5q20 12 30.5 19t18.5 7t20.5 -2t28.5 -6q29 -4 57.5 -21.5t28.5 -45.5q0 -23 -16 -45q-10 -18 -42 -53t-66 -75t-61.5 -80t-27.5 -67 q0 -12 10.5 -20t10.5 -11q0 -2 -9 -2q-41 10 -59 37t-18 58q0 49 26 98q-41 -16 -95 -35.5t-105 -19.5q16 -10 39.5 -23.5t46 -29t39 -35t16.5 -41.5q0 -23 -2 -40.5t-14.5 -29.5t-37 -18.5t-69.5 -6.5q-55 -6 -110.5 -13t-103.5 -21.5t-87 -40t-64 -68.5q6 0 7 -6 q0 -8 -6.5 -13.5t-12.5 -9.5q-16 -45 -16 -100q0 -61 24.5 -108.5t62.5 -80t83 -51t86 -20.5q104 -6 168.5 48t64.5 169q0 47 -18.5 69.5t-46.5 22.5q-20 0 -38 -9t-31 -20.5t-22.5 -20.5t-13.5 -9q-12 0 -24.5 12t-23.5 28.5t-17 35t-6 30.5q0 8 6 24.5t22.5 33t45 30 t75.5 13.5q29 0 62.5 -9.5t63.5 -31t49.5 -57t19.5 -89.5q0 -43 -15.5 -102.5t-56.5 -110.5t-112.5 -84.5t-186.5 -27.5q-37 2 -80 15t-85 39t-78 62.5t-58 85.5q-23 -68 -23 -100q0 -20 8.5 -26.5t8.5 -10.5q0 -2 -2 -2h-6q-41 0 -61.5 39t-20.5 78q0 47 13 106.5t34 122.5 q-43 0 -92.5 2t-98.5 6q-59 -63 -124.5 -124.5t-136 -108.5t-143.5 -77t-145 -32q-135 -4 -212.5 54.5t-77.5 206.5zM1323 592q41 16 79.5 24.5t67.5 14.5q-41 6 -68.5 11l-49.5 9q-6 -14 -13.5 -28.5t-15.5 -30.5z" />
<glyph unicode="&#xc7;" horiz-adv-x="593" d="M8 -156q2 31 13.5 41.5t23.5 10.5q4 0 23.5 -5.5t21.5 -15.5q-2 -4 -9 -12t-9 -19q0 -2 2 -10t7 -18.5t16.5 -18.5t31.5 -8q27 0 45.5 20.5t18.5 40.5t-18.5 32t-39 22t-39 22.5t-18.5 34.5q0 20 10 31q-45 53 -60.5 125.5t-15.5 132.5q0 113 42 231.5t108.5 217 t148.5 161t162 62.5q35 0 58.5 -7.5t38 -15.5t22.5 -17.5t12 -11.5q6 16 16.5 37t10.5 39q0 10 -3 18.5t-3 12.5q-1 10 22 10q18 0 43 -3t46.5 -12t36.5 -25.5t15 -43.5q0 -12 -5 -25.5t-11 -29.5q-8 -25 -40 -74t-65.5 -105.5t-61 -111.5t-27.5 -92q0 -18 12 -29.5 t12 -15.5q0 -2 -4 -2q-16 0 -36.5 10t-38 26.5t-29 37t-11.5 43.5q0 47 13.5 93t35.5 97q10 10 -4 29.5t-55 15.5q-41 0 -102.5 -50t-117.5 -130t-97 -179.5t-39 -197.5q2 -111 41 -169t104 -58q8 0 25 4q80 27 136 80t95 104t63.5 90t36.5 39q14 0 15 -22q0 -14 -9.5 -33 t-17.5 -31t-23.5 -36.5t-41 -57.5t-63.5 -71t-89 -77q-25 -18 -60.5 -38.5t-82.5 -18.5q-55 4 -92 23q16 -18 37.5 -36t21.5 -46q0 -4 1 -8.5t-1 -10.5q0 -10 -4 -27.5t-15.5 -33t-30 -27.5t-46.5 -12q-27 0 -47.5 11t-33.5 27.5t-20.5 34t-7.5 31.5z" />
<glyph unicode="&#xc8;" horiz-adv-x="757" d="M6 250q0 113 44 183.5t107.5 111.5t130 59.5t113.5 26.5q-92 14 -148 26.5t-87 26.5t-42 29.5t-11 36.5q0 6 3 23.5t8 36.5t14 33.5t22 14.5q10 0 36.5 -15.5t63.5 -15.5q31 0 93.5 4.5t125.5 26.5q47 12 93 29.5t85 35t66 32t37 20.5q20 12 30.5 19t18.5 7t20.5 -2 t28.5 -6q29 -4 57.5 -21.5t28.5 -45.5q0 -23 -16 -45q-10 -18 -42 -53t-66 -75t-61.5 -80t-27.5 -67q0 -12 10.5 -20t10.5 -11q0 -2 -9 -2q-41 10 -59 37t-18 58q0 49 26 98q-41 -16 -95 -35.5t-105 -19.5q16 -10 39.5 -23.5t46 -29t39 -35t16.5 -41.5q0 -23 -2 -40.5 t-14.5 -29.5t-37 -18.5t-69.5 -6.5q-72 -6 -142.5 -17t-126 -39t-90 -78t-34.5 -138q0 -61 24.5 -108.5t62.5 -80t83 -51t86 -20.5q104 -6 168.5 48t64.5 169q0 47 -18.5 69.5t-46.5 22.5q-20 0 -38 -9t-31 -20.5t-22.5 -20.5t-13.5 -9q-12 0 -24.5 12t-23.5 28.5t-17 35 t-6 30.5q0 8 6 24.5t22.5 33t45 30t75.5 13.5q29 0 62.5 -9.5t63.5 -31t49.5 -57t19.5 -89.5q0 -43 -15.5 -102.5t-56.5 -110.5t-112.5 -84.5t-186.5 -27.5q-49 2 -107.5 24.5t-107.5 65.5t-83 108.5t-34 151.5zM336 1120q2 14 8 29q8 23 26.5 41t24.5 14q1 0 7 -6 q0 -4 6 -20.5t24.5 -38t54 -45t97.5 -41.5q4 -2 14 -8.5t14.5 -13.5t-2 -13t-32.5 -8q-27 -2 -66 3t-67 15q-47 16 -71 31.5t-32 31t-6 29.5z" />
<glyph unicode="&#xc9;" horiz-adv-x="757" d="M6 250q0 113 44 183.5t107.5 111.5t130 59.5t113.5 26.5q-92 14 -148 26.5t-87 26.5t-42 29.5t-11 36.5q0 6 3 23.5t8 36.5t14 33.5t22 14.5q10 0 36.5 -15.5t63.5 -15.5q31 0 93.5 4.5t125.5 26.5q47 12 93 29.5t85 35t66 32t37 20.5q20 12 30.5 19t18.5 7t20.5 -2 t28.5 -6q29 -4 57.5 -21.5t28.5 -45.5q0 -23 -16 -45q-10 -18 -42 -53t-66 -75t-61.5 -80t-27.5 -67q0 -12 10.5 -20t10.5 -11q0 -2 -9 -2q-41 10 -59 37t-18 58q0 49 26 98q-41 -16 -95 -35.5t-105 -19.5q16 -10 39.5 -23.5t46 -29t39 -35t16.5 -41.5q0 -23 -2 -40.5 t-14.5 -29.5t-37 -18.5t-69.5 -6.5q-72 -6 -142.5 -17t-126 -39t-90 -78t-34.5 -138q0 -61 24.5 -108.5t62.5 -80t83 -51t86 -20.5q104 -6 168.5 48t64.5 169q0 47 -18.5 69.5t-46.5 22.5q-20 0 -38 -9t-31 -20.5t-22.5 -20.5t-13.5 -9q-12 0 -24.5 12t-23.5 28.5t-17 35 t-6 30.5q0 8 6 24.5t22.5 33t45 30t75.5 13.5q29 0 62.5 -9.5t63.5 -31t49.5 -57t19.5 -89.5q0 -43 -15.5 -102.5t-56.5 -110.5t-112.5 -84.5t-186.5 -27.5q-49 2 -107.5 24.5t-107.5 65.5t-83 108.5t-34 151.5zM384 1043q5 7 15.5 13t14.5 9q61 18 97 41.5t54.5 45t24.5 38 t6 20.5l6 6q6 4 24.5 -14.5t26.5 -40.5q6 -14 8.5 -27.5t-6 -28t-32 -30t-70.5 -35.5q-29 -12 -68 -16.5t-65 -1.5q-29 2 -35 8t-1 13z" />
<glyph unicode="&#xca;" horiz-adv-x="757" d="M6 250q0 113 44 183.5t107.5 111.5t130 59.5t113.5 26.5q-92 14 -148 26.5t-87 26.5t-42 29.5t-11 36.5q0 6 3 23.5t8 36.5t14 33.5t22 14.5q10 0 36.5 -15.5t63.5 -15.5q31 0 93.5 4.5t125.5 26.5q47 12 93 29.5t85 35t66 32t37 20.5q20 12 30.5 19t18.5 7t20.5 -2 t28.5 -6q29 -4 57.5 -21.5t28.5 -45.5q0 -23 -16 -45q-10 -18 -42 -53t-66 -75t-61.5 -80t-27.5 -67q0 -12 10.5 -20t10.5 -11q0 -2 -9 -2q-41 10 -59 37t-18 58q0 49 26 98q-41 -16 -95 -35.5t-105 -19.5q16 -10 39.5 -23.5t46 -29t39 -35t16.5 -41.5q0 -23 -2 -40.5 t-14.5 -29.5t-37 -18.5t-69.5 -6.5q-72 -6 -142.5 -17t-126 -39t-90 -78t-34.5 -138q0 -61 24.5 -108.5t62.5 -80t83 -51t86 -20.5q104 -6 168.5 48t64.5 169q0 47 -18.5 69.5t-46.5 22.5q-20 0 -38 -9t-31 -20.5t-22.5 -20.5t-13.5 -9q-12 0 -24.5 12t-23.5 28.5t-17 35 t-6 30.5q0 8 6 24.5t22.5 33t45 30t75.5 13.5q29 0 62.5 -9.5t63.5 -31t49.5 -57t19.5 -89.5q0 -43 -15.5 -102.5t-56.5 -110.5t-112.5 -84.5t-186.5 -27.5q-49 2 -107.5 24.5t-107.5 65.5t-83 108.5t-34 151.5zM684 1112q-2 10 12.5 15.5t18.5 9.5h22t23 4q33 4 55.5 14 t38.5 21v2q12 12 23.5 17t21.5 7q16 4 26.5 -5t10.5 -23q4 -35 29.5 -67t78.5 -66q4 -6 10.5 -14.5t8.5 -18.5q2 -8 -8 -10q-20 -4 -46 5t-50.5 24.5t-45 32.5t-32.5 32q-10 -4 -19.5 -6t-19.5 -4q-18 -4 -46 -2t-52.5 6t-42 11t-17.5 15z" />
<glyph unicode="&#xcb;" horiz-adv-x="757" d="M6 250q0 113 44 183.5t107.5 111.5t130 59.5t113.5 26.5q-92 14 -148 26.5t-87 26.5t-42 29.5t-11 36.5q0 6 3 23.5t8 36.5t14 33.5t22 14.5q10 0 36.5 -15.5t63.5 -15.5q31 0 93.5 4.5t125.5 26.5q47 12 93 29.5t85 35t66 32t37 20.5q20 12 30.5 19t18.5 7t20.5 -2 t28.5 -6q29 -4 57.5 -21.5t28.5 -45.5q0 -23 -16 -45q-10 -18 -42 -53t-66 -75t-61.5 -80t-27.5 -67q0 -12 10.5 -20t10.5 -11q0 -2 -9 -2q-41 10 -59 37t-18 58q0 49 26 98q-41 -16 -95 -35.5t-105 -19.5q16 -10 39.5 -23.5t46 -29t39 -35t16.5 -41.5q0 -23 -2 -40.5 t-14.5 -29.5t-37 -18.5t-69.5 -6.5q-72 -6 -142.5 -17t-126 -39t-90 -78t-34.5 -138q0 -61 24.5 -108.5t62.5 -80t83 -51t86 -20.5q104 -6 168.5 48t64.5 169q0 47 -18.5 69.5t-46.5 22.5q-20 0 -38 -9t-31 -20.5t-22.5 -20.5t-13.5 -9q-12 0 -24.5 12t-23.5 28.5t-17 35 t-6 30.5q0 8 6 24.5t22.5 33t45 30t75.5 13.5q29 0 62.5 -9.5t63.5 -31t49.5 -57t19.5 -89.5q0 -43 -15.5 -102.5t-56.5 -110.5t-112.5 -84.5t-186.5 -27.5q-49 2 -107.5 24.5t-107.5 65.5t-83 108.5t-34 151.5zM369 1077q8 51 17.5 79t17.5 40t17.5 14t19.5 2t16 -6h-2 q16 -4 28.5 -20.5t12.5 -20.5q-2 -4 -6 -7t-10 -15q-10 -14 -19.5 -35t-17.5 -40.5t-17.5 -34.5t-17.5 -19q-16 0 -31.5 8t-7.5 55zM494 1077q8 51 17.5 79t17.5 40t17 14t20 2q10 0 16 -6h-2q16 -4 28.5 -20.5t12.5 -20.5q-2 -4 -6 -7t-10 -15q-10 -14 -19.5 -35 t-17.5 -40.5t-17.5 -34.5t-17.5 -19q-16 0 -31.5 8t-7.5 55z" />
<glyph unicode="&#xcc;" horiz-adv-x="686" d="M25 8q0 14 8 21q2 2 14 15t34.5 27.5t54.5 26t75 11.5q55 0 111.5 -13.5t91.5 -13.5q2 33 10 75t20.5 85t26.5 85t29 76q20 51 44.5 107.5t48 112t46.5 106.5t39 90q-66 10 -130.5 19.5t-119.5 9.5q-68 0 -110 -23.5t-67.5 -51.5t-37.5 -51.5t-20 -23.5q-23 0 -23 29 q0 12 6 23q2 6 8 20t20.5 33.5t36 40t52.5 37.5q53 39 138 52t173 13q29 0 57.5 -2t57.5 -2q0 10 -3 16.5t-3 10.5q0 12 35 12q27 0 57.5 -7t46.5 -32q51 2 78.5 5t43 9.5t22 15.5t12.5 19q2 8 10 8q4 0 15 -10t22.5 -25.5t19.5 -36t8 -38.5q0 -12 -5 -28.5t-23.5 -31 t-52 -24.5t-91.5 -10q-18 0 -38.5 1t-43.5 3q-23 -53 -66.5 -142.5t-90.5 -190.5t-91 -201.5t-69 -176.5q31 8 41 24.5t18 16.5q4 0 14.5 -10t20.5 -26.5t17.5 -36t7.5 -40.5q0 -31 -26.5 -56.5t-100.5 -25.5q-47 0 -95.5 14.5t-92.5 33t-82.5 36t-69.5 21.5q-23 0 -42.5 -8 t-34.5 -18.5t-24.5 -18.5t-13.5 -8q-20 0 -24 22zM688 1182q2 14 8 29q8 23 26.5 41t24.5 14q1 0 7 -6q0 -4 6 -20.5t24.5 -38t54 -45t97.5 -41.5q4 -2 14 -8.5t14.5 -13.5t-2 -13t-32.5 -8q-27 -2 -66 3t-67 15q-47 16 -71 31.5t-32 31t-6 29.5z" />
<glyph unicode="&#xcd;" horiz-adv-x="686" d="M25 8q0 14 8 21q2 2 14 15t34.5 27.5t54.5 26t75 11.5q55 0 111.5 -13.5t91.5 -13.5q2 33 10 75t20.5 85t26.5 85t29 76q20 51 44.5 107.5t48 112t46.5 106.5t39 90q-66 10 -130.5 19.5t-119.5 9.5q-68 0 -110 -23.5t-67.5 -51.5t-37.5 -51.5t-20 -23.5q-23 0 -23 29 q0 12 6 23q2 6 8 20t20.5 33.5t36 40t52.5 37.5q53 39 138 52t173 13q29 0 57.5 -2t57.5 -2q0 10 -3 16.5t-3 10.5q0 12 35 12q27 0 57.5 -7t46.5 -32q51 2 78.5 5t43 9.5t22 15.5t12.5 19q2 8 10 8q4 0 15 -10t22.5 -25.5t19.5 -36t8 -38.5q0 -12 -5 -28.5t-23.5 -31 t-52 -24.5t-91.5 -10q-18 0 -38.5 1t-43.5 3q-23 -53 -66.5 -142.5t-90.5 -190.5t-91 -201.5t-69 -176.5q31 8 41 24.5t18 16.5q4 0 14.5 -10t20.5 -26.5t17.5 -36t7.5 -40.5q0 -31 -26.5 -56.5t-100.5 -25.5q-47 0 -95.5 14.5t-92.5 33t-82.5 36t-69.5 21.5q-23 0 -42.5 -8 t-34.5 -18.5t-24.5 -18.5t-13.5 -8q-20 0 -24 22zM681 1093q5 7 15.5 13t14.5 9q61 18 97 41.5t54.5 45t24.5 38t6 20.5l6 6q6 4 24.5 -14.5t26.5 -40.5q6 -14 8.5 -27.5t-6 -28t-32 -30t-70.5 -35.5q-29 -12 -68 -16.5t-65 -1.5q-29 2 -35 8t-1 13z" />
<glyph unicode="&#xce;" horiz-adv-x="686" d="M25 8q0 14 8 21q2 2 14 15t34.5 27.5t54.5 26t75 11.5q55 0 111.5 -13.5t91.5 -13.5q2 33 10 75t20.5 85t26.5 85t29 76q20 51 44.5 107.5t48 112t46.5 106.5t39 90q-66 10 -130.5 19.5t-119.5 9.5q-68 0 -110 -23.5t-67.5 -51.5t-37.5 -51.5t-20 -23.5q-23 0 -23 29 q0 12 6 23q2 6 8 20t20.5 33.5t36 40t52.5 37.5q53 39 138 52t173 13q29 0 57.5 -2t57.5 -2q0 10 -3 16.5t-3 10.5q0 12 35 12q27 0 57.5 -7t46.5 -32q51 2 78.5 5t43 9.5t22 15.5t12.5 19q2 8 10 8q4 0 15 -10t22.5 -25.5t19.5 -36t8 -38.5q0 -12 -5 -28.5t-23.5 -31 t-52 -24.5t-91.5 -10q-18 0 -38.5 1t-43.5 3q-23 -53 -66.5 -142.5t-90.5 -190.5t-91 -201.5t-69 -176.5q31 8 41 24.5t18 16.5q4 0 14.5 -10t20.5 -26.5t17.5 -36t7.5 -40.5q0 -31 -26.5 -56.5t-100.5 -25.5q-47 0 -95.5 14.5t-92.5 33t-82.5 36t-69.5 21.5q-23 0 -42.5 -8 t-34.5 -18.5t-24.5 -18.5t-13.5 -8q-20 0 -24 22zM596 1145q-2 10 12.5 15.5t18.5 9.5h22t23 4q33 4 55.5 14t38.5 21v2q12 12 23.5 17t21.5 7q16 4 26.5 -5t10.5 -23q4 -35 29.5 -67t78.5 -66q4 -6 10.5 -14.5t8.5 -18.5q2 -8 -8 -10q-20 -4 -46 5t-50.5 24.5t-45 32.5 t-32.5 32q-10 -4 -19.5 -6t-19.5 -4q-18 -4 -46 -2t-52.5 6t-42 11t-17.5 15z" />
<glyph unicode="&#xcf;" horiz-adv-x="686" d="M25 8q0 14 8 21q2 2 14 15t34.5 27.5t54.5 26t75 11.5q55 0 111.5 -13.5t91.5 -13.5q2 33 10 75t20.5 85t26.5 85t29 76q20 51 44.5 107.5t48 112t46.5 106.5t39 90q-66 10 -130.5 19.5t-119.5 9.5q-68 0 -110 -23.5t-67.5 -51.5t-37.5 -51.5t-20 -23.5q-23 0 -23 29 q0 12 6 23q2 6 8 20t20.5 33.5t36 40t52.5 37.5q53 39 138 52t173 13q29 0 57.5 -2t57.5 -2q0 10 -3 16.5t-3 10.5q0 12 35 12q27 0 57.5 -7t46.5 -32q51 2 78.5 5t43 9.5t22 15.5t12.5 19q2 8 10 8q4 0 15 -10t22.5 -25.5t19.5 -36t8 -38.5q0 -12 -5 -28.5t-23.5 -31 t-52 -24.5t-91.5 -10q-18 0 -38.5 1t-43.5 3q-23 -53 -66.5 -142.5t-90.5 -190.5t-91 -201.5t-69 -176.5q31 8 41 24.5t18 16.5q4 0 14.5 -10t20.5 -26.5t17.5 -36t7.5 -40.5q0 -31 -26.5 -56.5t-100.5 -25.5q-47 0 -95.5 14.5t-92.5 33t-82.5 36t-69.5 21.5q-23 0 -42.5 -8 t-34.5 -18.5t-24.5 -18.5t-13.5 -8q-20 0 -24 22zM737 1139q8 51 17.5 79t17.5 40t17.5 14t19.5 2t16 -6h-2q16 -4 28.5 -20.5t12.5 -20.5q-2 -4 -6 -7t-10 -15q-10 -14 -19.5 -35t-17.5 -40.5t-17.5 -34.5t-17.5 -19q-16 0 -31.5 8t-7.5 55zM862 1139q8 51 17.5 79t17.5 40 t17 14t20 2q10 0 16 -6h-2q16 -4 28.5 -20.5t12.5 -20.5q-2 -4 -6 -7t-10 -15q-10 -14 -19.5 -35t-17.5 -40.5t-17.5 -34.5t-17.5 -19q-16 0 -31.5 8t-7.5 55z" />
<glyph unicode="&#xd0;" horiz-adv-x="862" d="M-60 303.5q-1 18.5 6 43t23.5 46t44.5 25.5q8 2 19.5 1t23.5 -3q33 61 89.5 109t136.5 71q35 76 48 103.5t13 43.5q0 14 -4 22.5t-4 12.5q-18 -6 -29.5 -10t-15.5 -4v-2q-25 -6 -47.5 -20.5t-40 -29t-27.5 -24.5t-12 -10q-14 0 -27.5 11t-25 28.5t-17.5 36t-6 32.5 q0 29 34 62t134 67q31 10 109.5 26.5t189.5 16.5q61 0 134 -8t145 -43q57 -29 84.5 -84t27.5 -118q0 -53 -14 -101.5t-31 -91.5q-47 -127 -110.5 -238.5t-141.5 -195.5t-166 -133t-182 -49q-59 0 -119.5 25.5t-113.5 103.5q-8 14 -32 67t-24 150v24.5t4 24.5q-20 2 -37.5 1 t-29.5 -5q-8 -2 -9 16.5zM82 176q0 -23 4 -45t10 -35q4 -12 16.5 -35.5t35 -48t58.5 -43t89 -18.5q86 0 172 65.5t158.5 172t125 238.5t68.5 265q0 39 -17.5 63.5t-47 38t-71.5 17.5t-91 4q-68 0 -124 -9t-97 -20q16 0 35.5 -2t37 -10t29.5 -22.5t12 -38.5q0 -29 -12 -55.5 t-24 -55.5q2 0 2 -1t2 -1q61 -16 82.5 -45t21.5 -57q0 -6 -4 -21.5t-10 -31t-14.5 -26.5t-18.5 -11l-12 7q-11 7 -30 15t-44 16.5t-49 10.5q-16 -29 -29.5 -58.5t-30.5 -58.5q66 -20 131.5 -31.5t114.5 -3.5q14 4 19.5 11.5t9.5 7.5q2 0 0 -7q8 -39 -26 -64.5t-68 -33.5 q-43 -10 -102.5 -2t-125.5 23q-23 -53 -38 -99.5t-15 -74.5q0 -18 9 -26.5t9 -12.5q0 -2 -2 -2h-6q-41 0 -61.5 38.5t-20.5 77.5q0 66 15 125q-14 4 -27.5 5t-28.5 5q-10 -27 -15 -52t-5 -48zM172 385l18 -6q4 8 6.5 15.5t6.5 17.5q-8 -6 -15.5 -12.5t-15.5 -14.5z" />
<glyph unicode="&#xd1;" horiz-adv-x="1005" d="M53 227q0 117 33 211t85 169t119.5 129.5t137.5 90t137.5 53t118.5 17.5q16 0 36.5 -2t38 -10t30 -22.5t12.5 -41.5q0 -25 -13 -61q-6 -20 -37.5 -85t-72.5 -151q53 70 109.5 139.5t104.5 126t85 95.5t51 49q39 27 74 27q18 0 38.5 -3.5t39 -11.5t31 -23.5t12.5 -39.5 q0 -12 -4.5 -26.5t-10.5 -33.5q-6 -20 -34.5 -77.5t-67.5 -134t-82 -166t-80 -172.5t-61.5 -150.5t-24.5 -102.5q0 -18 7 -24t7 -10q0 -2 -4 -2q-41 0 -63.5 35.5t-22.5 80.5q0 68 23.5 147t57.5 163t74 166.5t71 156.5q-53 -39 -118 -93t-127.5 -113.5t-115.5 -121 t-80 -116.5q-51 -111 -87 -205t-36 -139q0 -20 8.5 -26.5t8.5 -12.5q0 -2 -8 -2q-41 0 -62.5 39t-21.5 80q0 33 9 81t24.5 100t32 102t32.5 87q29 72 59.5 141.5t56 128t44 99.5t24.5 57q4 8 8.5 20.5t-0.5 12.5q-29 -4 -65.5 -11t-77.5 -32q-53 -33 -109.5 -89t-101.5 -129 t-73.5 -157t-28.5 -172t19.5 -131t25.5 -51q35 -53 54.5 -64.5t19.5 -13.5q0 -6 -11.5 -20.5t-29 -29.5t-38 -26.5t-38.5 -11.5q-23 0 -49.5 17.5t-49 56.5t-38 97t-15.5 142zM751 1158q0 29 36 57.5t99 28.5q76 0 125 -82q6 -10 16.5 -25.5t23 -30t27.5 -24.5t32 -10 q8 0 12 2q4 0 6 1t6 1q25 0 25 -15q0 -10 -23.5 -19t-52.5 -9q-66 0 -95.5 25.5t-47 55t-34.5 55t-58 25.5q-23 0 -38.5 -7t-24.5 -15t-14 -16l-5 -7q-14 0 -15 9z" />
<glyph unicode="&#xd2;" horiz-adv-x="823" d="M20 270q0 109 31 191t72 140t82 93t61 49q23 12 35 24.5t18.5 22t9.5 14.5t9 5q4 0 14 -6q-4 10 -6 23.5t-2 23.5q0 45 23.5 70.5t56.5 40t65.5 18.5t51.5 4q49 0 93 -20.5t80 -54.5t61.5 -79t39.5 -96q6 2 50 23.5t98.5 52.5t103.5 65.5t66 67.5q2 4 16 -3t30.5 -22.5 t30 -38t13.5 -49.5q0 -18 -10 -39.5t-37 -44.5q-14 -10 -39 -29.5t-66 -41t-98.5 -41t-134.5 -27.5q0 -12 1 -25.5t1 -29.5q0 -90 -31 -205t-92.5 -215t-153.5 -168.5t-217 -68.5q-94 0 -156.5 35.5t-100.5 91t-53.5 122t-15.5 127.5zM139 209q0 -43 11.5 -88t36 -83 t62.5 -61.5t91 -23.5q88 0 150.5 52t103.5 129t60.5 166t19.5 163q0 47 -3 84t-7 59q-20 0 -52 7.5t-66 18.5t-65.5 27.5t-50.5 38.5q2 -8 2 -22q0 -16 -11 -41t-63 -53q-14 -8 -50 -31t-73.5 -66t-66.5 -110.5t-29 -165.5zM498 811q0 -10 7 -25.5t23.5 -31t44 -26.5 t70.5 -11q-12 45 -38.5 74.5t-67.5 29.5h-23.5t-15.5 -10zM504 1182q2 14 8 29q8 23 26.5 41t24.5 14q1 0 7 -6q0 -4 6 -20.5t24.5 -38t54 -45t97.5 -41.5q4 -2 14 -8.5t14.5 -13.5t-2 -13t-32.5 -8q-27 -2 -66 3t-67 15q-47 16 -71 31.5t-32 31t-6 29.5z" />
<glyph unicode="&#xd3;" horiz-adv-x="823" d="M20 270q0 109 31 191t72 140t82 93t61 49q23 12 35 24.5t18.5 22t9.5 14.5t9 5q4 0 14 -6q-4 10 -6 23.5t-2 23.5q0 45 23.5 70.5t56.5 40t65.5 18.5t51.5 4q49 0 93 -20.5t80 -54.5t61.5 -79t39.5 -96q6 2 50 23.5t98.5 52.5t103.5 65.5t66 67.5q2 4 16 -3t30.5 -22.5 t30 -38t13.5 -49.5q0 -18 -10 -39.5t-37 -44.5q-14 -10 -39 -29.5t-66 -41t-98.5 -41t-134.5 -27.5q0 -12 1 -25.5t1 -29.5q0 -90 -31 -205t-92.5 -215t-153.5 -168.5t-217 -68.5q-94 0 -156.5 35.5t-100.5 91t-53.5 122t-15.5 127.5zM139 209q0 -43 11.5 -88t36 -83 t62.5 -61.5t91 -23.5q88 0 150.5 52t103.5 129t60.5 166t19.5 163q0 47 -3 84t-7 59q-20 0 -52 7.5t-66 18.5t-65.5 27.5t-50.5 38.5q2 -8 2 -22q0 -16 -11 -41t-63 -53q-14 -8 -50 -31t-73.5 -66t-66.5 -110.5t-29 -165.5zM460 1093q5 7 15.5 13t14.5 9q61 18 97 41.5 t54.5 45t24.5 38t6 20.5l6 6q6 4 24.5 -14.5t26.5 -40.5q6 -14 8.5 -27.5t-6 -28t-32 -30t-70.5 -35.5q-29 -12 -68 -16.5t-65 -1.5q-29 2 -35 8t-1 13zM498 811q0 -10 7 -25.5t23.5 -31t44 -26.5t70.5 -11q-12 45 -38.5 74.5t-67.5 29.5h-23.5t-15.5 -10z" />
<glyph unicode="&#xd4;" horiz-adv-x="823" d="M20 270q0 109 31 191t72 140t82 93t61 49q23 12 35 24.5t18.5 22t9.5 14.5t9 5q4 0 14 -6q-4 10 -6 23.5t-2 23.5q0 45 23.5 70.5t56.5 40t65.5 18.5t51.5 4q49 0 93 -20.5t80 -54.5t61.5 -79t39.5 -96q6 2 50 23.5t98.5 52.5t103.5 65.5t66 67.5q2 4 16 -3t30.5 -22.5 t30 -38t13.5 -49.5q0 -18 -10 -39.5t-37 -44.5q-14 -10 -39 -29.5t-66 -41t-98.5 -41t-134.5 -27.5q0 -12 1 -25.5t1 -29.5q0 -90 -31 -205t-92.5 -215t-153.5 -168.5t-217 -68.5q-94 0 -156.5 35.5t-100.5 91t-53.5 122t-15.5 127.5zM139 209q0 -43 11.5 -88t36 -83 t62.5 -61.5t91 -23.5q88 0 150.5 52t103.5 129t60.5 166t19.5 163q0 47 -3 84t-7 59q-20 0 -52 7.5t-66 18.5t-65.5 27.5t-50.5 38.5q2 -8 2 -22q0 -16 -11 -41t-63 -53q-14 -8 -50 -31t-73.5 -66t-66.5 -110.5t-29 -165.5zM416 1145q-2 10 12.5 15.5t18.5 9.5h22t23 4 q33 4 55.5 14t38.5 21v2q12 12 23.5 17t21.5 7q16 4 26.5 -5t10.5 -23q4 -35 29.5 -67t78.5 -66q4 -6 10.5 -14.5t8.5 -18.5q2 -8 -8 -10q-20 -4 -46 5t-50.5 24.5t-45 32.5t-32.5 32q-10 -4 -19.5 -6t-19.5 -4q-18 -4 -46 -2t-52.5 6t-42 11t-17.5 15zM498 811 q0 -10 7 -25.5t23.5 -31t44 -26.5t70.5 -11q-12 45 -38.5 74.5t-67.5 29.5h-23.5t-15.5 -10z" />
<glyph unicode="&#xd5;" horiz-adv-x="823" d="M20 270q0 109 31 191t72 140t82 93t61 49q23 12 35 24.5t18.5 22t9.5 14.5t9 5q4 0 14 -6q-4 10 -6 23.5t-2 23.5q0 45 23.5 70.5t56.5 40t65.5 18.5t51.5 4q49 0 93 -20.5t80 -54.5t61.5 -79t39.5 -96q6 2 50 23.5t98.5 52.5t103.5 65.5t66 67.5q2 4 16 -3t30.5 -22.5 t30 -38t13.5 -49.5q0 -18 -10 -39.5t-37 -44.5q-14 -10 -39 -29.5t-66 -41t-98.5 -41t-134.5 -27.5q0 -12 1 -25.5t1 -29.5q0 -90 -31 -205t-92.5 -215t-153.5 -168.5t-217 -68.5q-94 0 -156.5 35.5t-100.5 91t-53.5 122t-15.5 127.5zM139 209q0 -43 11.5 -88t36 -83 t62.5 -61.5t91 -23.5q88 0 150.5 52t103.5 129t60.5 166t19.5 163q0 47 -3 84t-7 59q-20 0 -52 7.5t-66 18.5t-65.5 27.5t-50.5 38.5q2 -8 2 -22q0 -16 -11 -41t-63 -53q-14 -8 -50 -31t-73.5 -66t-66.5 -110.5t-29 -165.5zM483 1158q0 29 36 57.5t99 28.5q76 0 125 -82 q6 -10 16.5 -25.5t23 -30t27.5 -24.5t32 -10q8 0 12 2q4 0 6 1t6 1q25 0 25 -15q0 -10 -23.5 -19t-52.5 -9q-66 0 -95.5 25.5t-47 55t-34.5 55t-58 25.5q-23 0 -38.5 -7t-24.5 -15t-14 -16l-5 -7q-14 0 -15 9zM498 811q0 -10 7 -25.5t23.5 -31t44 -26.5t70.5 -11 q-12 45 -38.5 74.5t-67.5 29.5h-23.5t-15.5 -10z" />
<glyph unicode="&#xd6;" horiz-adv-x="823" d="M20 270q0 109 31 191t72 140t82 93t61 49q23 12 35 24.5t18.5 22t9.5 14.5t9 5q4 0 14 -6q-4 10 -6 23.5t-2 23.5q0 45 23.5 70.5t56.5 40t65.5 18.5t51.5 4q49 0 93 -20.5t80 -54.5t61.5 -79t39.5 -96q6 2 50 23.5t98.5 52.5t103.5 65.5t66 67.5q2 4 16 -3t30.5 -22.5 t30 -38t13.5 -49.5q0 -18 -10 -39.5t-37 -44.5q-14 -10 -39 -29.5t-66 -41t-98.5 -41t-134.5 -27.5q0 -12 1 -25.5t1 -29.5q0 -90 -31 -205t-92.5 -215t-153.5 -168.5t-217 -68.5q-94 0 -156.5 35.5t-100.5 91t-53.5 122t-15.5 127.5zM139 209q0 -43 11.5 -88t36 -83 t62.5 -61.5t91 -23.5q88 0 150.5 52t103.5 129t60.5 166t19.5 163q0 47 -3 84t-7 59q-20 0 -52 7.5t-66 18.5t-65.5 27.5t-50.5 38.5q2 -8 2 -22q0 -16 -11 -41t-63 -53q-14 -8 -50 -31t-73.5 -66t-66.5 -110.5t-29 -165.5zM498 811q0 -10 7 -25.5t23.5 -31t44 -26.5 t70.5 -11q-12 45 -38.5 74.5t-67.5 29.5h-23.5t-15.5 -10zM532 1139q8 51 17.5 79t17.5 40t17.5 14t19.5 2t16 -6h-2q16 -4 28.5 -20.5t12.5 -20.5q-2 -4 -6 -7t-10 -15q-10 -14 -19.5 -35t-17.5 -40.5t-17.5 -34.5t-17.5 -19q-16 0 -31.5 8t-7.5 55zM657 1139q8 51 17.5 79 t17.5 40t17 14t20 2q10 0 16 -6h-2q16 -4 28.5 -20.5t12.5 -20.5q-2 -4 -6 -7t-10 -15q-10 -14 -19.5 -35t-17.5 -40.5t-17.5 -34.5t-17.5 -19q-16 0 -31.5 8t-7.5 55z" />
<glyph unicode="&#xd7;" horiz-adv-x="538" d="M-4 217q2 2 7 -2t22 6q39 23 78.5 73t82.5 107q-6 16 -17 42t-25.5 55.5t-32 59.5t-35.5 54q-7 9 -13 9q-4 4 9 18q10 12 25.5 25.5t31.5 21.5t33.5 6t32.5 -16q16 -16 32.5 -51t40.5 -101q20 29 37 53.5t31 43.5q53 70 87 69.5t62 -28.5q10 -14 15.5 -25.5t1.5 -15.5 q2 2 4 2q-4 2 -23.5 -18.5t-47 -54.5t-59.5 -74t-59 -75q20 -47 43 -90t50 -69q25 -29 37 -26t16 1q0 -2 -3 -8t-5 -8q-18 -25 -43 -29t-48.5 5t-44 26.5t-28.5 32.5q-10 16 -24.5 31.5t-26.5 37.5q-27 -31 -60 -60.5t-64.5 -49t-61 -24.5t-48.5 15q-4 6 -8 17.5t-2 13.5z " />
<glyph unicode="&#xd8;" horiz-adv-x="823" d="M35 281q0 113 34.5 200.5t80 150t89.5 100.5t62 48q12 8 29.5 18.5t36 17.5t33 12.5t20.5 5.5q20 -2 35.5 -14.5t25.5 -28.5q4 10 9.5 20t9.5 20q-47 27 -80 17q-8 -4 -2 16.5t22.5 47t39 49t46.5 24.5q16 0 33 -8q16 49 16 76q0 6 9 6q12 0 31.5 -7.5t38 -19.5 t31.5 -30.5t13 -40.5q0 -12 -4 -26.5t-10 -31.5q27 -23 54.5 -55.5t51 -76.5t38 -100.5t14.5 -125.5q0 -127 -43 -247t-119 -212q53 -4 87 11.5t64 37.5q6 4 8.5 0t4.5 -4q-14 -35 -42 -56.5t-58.5 -34.5t-62.5 -18.5t-56 -5.5q-8 0 -30 -18t-56.5 -41t-85 -41t-113.5 -18 q-51 0 -96 16q-41 -106 -41 -152q0 -16 7 -22t7 -10q0 -2 -8 -2q-41 0 -61.5 38.5t-22.5 77.5q2 31 7 64t13 67q-59 57 -84.5 140.5t-25.5 165.5zM158 227q0 -74 20 -129q45 139 111.5 283.5t130.5 275.5q-10 -4 -21 -10q-4 -4 -42 -28.5t-82 -75.5t-80.5 -129t-36.5 -187z M268 -20q39 -27 88 -27q102 0 183 80q-72 29 -107 88t-35 127v17t2 18q-37 -82 -70.5 -160t-60.5 -143zM508 518q12 -2 31.5 -9t39 -18.5t33 -28t13.5 -38.5q0 -10 -11.5 -31.5t-23.5 -51.5t-23.5 -66.5t-11.5 -77.5q0 -29 8 -52.5t31 -38.5q51 80 81 181t30 205 q0 98 -29 159.5t-62 96.5q-23 -47 -50 -106.5t-56 -123.5z" />
<glyph unicode="&#xd9;" horiz-adv-x="827" d="M63 588q0 90 32 160.5t80 120t104.5 75t105.5 25.5q25 0 53.5 -4t53 -14.5t40 -29t15.5 -47.5q0 -27 -15 -61v2q-4 -12 -16 -41t-32.5 -70.5t-46 -94t-52.5 -107.5h2q37 14 49.5 34.5t16.5 20.5t14 -10t21.5 -28.5t20.5 -43t9 -51.5q0 -18 -6 -37.5t-26.5 -36t-57.5 -27 t-100 -10.5q-8 0 -14.5 1t-14.5 1q-23 -51 -46.5 -106t-23.5 -90q0 -51 52 -51q35 0 86 25.5t110.5 77.5t122 132t119.5 189q31 78 62.5 152.5t58.5 133.5q31 70 57 133l-2 2q6 14 6 27q0 10 -3 18.5t-3 12.5q0 10 18 11t41 1q31 -4 60.5 -19.5t29.5 -58.5q0 -12 -4 -26.5 t-10 -32.5t-34.5 -76.5t-67.5 -136.5t-82 -169t-80 -175t-61.5 -152.5t-24.5 -103.5q0 -18 7 -24.5t7 -10.5q0 -2 -2 -2h-6q-39 0 -60.5 38t-21.5 79q0 29 5 62.5t16 68.5q-61 -78 -117.5 -125t-105 -73t-87.5 -34t-65 -8q-63 0 -89 34t-26 87q0 59 9.5 111.5t33.5 119.5 q-59 37 -87 97.5t-28 134.5zM201 633q0 -41 12 -75t29 -48q88 201 126 298t38 101q-18 0 -41 -4t-46 -16t-44 -40t-37.5 -62.5t-26.5 -74.5t-10 -79zM575 1182q2 14 8 29q8 23 26.5 41t24.5 14q1 0 7 -6q0 -4 6 -20.5t24.5 -38t54 -45t97.5 -41.5q4 -2 14 -8.5t14.5 -13.5 t-2 -13t-32.5 -8q-27 -2 -66 3t-67 15q-47 16 -71 31.5t-32 31t-6 29.5z" />
<glyph unicode="&#xda;" horiz-adv-x="827" d="M63 588q0 90 32 160.5t80 120t104.5 75t105.5 25.5q25 0 53.5 -4t53 -14.5t40 -29t15.5 -47.5q0 -27 -15 -61v2q-4 -12 -16 -41t-32.5 -70.5t-46 -94t-52.5 -107.5h2q37 14 49.5 34.5t16.5 20.5t14 -10t21.5 -28.5t20.5 -43t9 -51.5q0 -18 -6 -37.5t-26.5 -36t-57.5 -27 t-100 -10.5q-8 0 -14.5 1t-14.5 1q-23 -51 -46.5 -106t-23.5 -90q0 -51 52 -51q35 0 86 25.5t110.5 77.5t122 132t119.5 189q31 78 62.5 152.5t58.5 133.5q31 70 57 133l-2 2q6 14 6 27q0 10 -3 18.5t-3 12.5q0 10 18 11t41 1q31 -4 60.5 -19.5t29.5 -58.5q0 -12 -4 -26.5 t-10 -32.5t-34.5 -76.5t-67.5 -136.5t-82 -169t-80 -175t-61.5 -152.5t-24.5 -103.5q0 -18 7 -24.5t7 -10.5q0 -2 -2 -2h-6q-39 0 -60.5 38t-21.5 79q0 29 5 62.5t16 68.5q-61 -78 -117.5 -125t-105 -73t-87.5 -34t-65 -8q-63 0 -89 34t-26 87q0 59 9.5 111.5t33.5 119.5 q-59 37 -87 97.5t-28 134.5zM201 633q0 -41 12 -75t29 -48q88 201 126 298t38 101q-18 0 -41 -4t-46 -16t-44 -40t-37.5 -62.5t-26.5 -74.5t-10 -79zM568 1093q5 7 15.5 13t14.5 9q61 18 97 41.5t54.5 45t24.5 38t6 20.5l6 6q6 4 24.5 -14.5t26.5 -40.5q6 -14 8.5 -27.5 t-6 -28t-32 -30t-70.5 -35.5q-29 -12 -68 -16.5t-65 -1.5q-29 2 -35 8t-1 13z" />
<glyph unicode="&#xdb;" horiz-adv-x="827" d="M63 588q0 90 32 160.5t80 120t104.5 75t105.5 25.5q25 0 53.5 -4t53 -14.5t40 -29t15.5 -47.5q0 -27 -15 -61v2q-4 -12 -16 -41t-32.5 -70.5t-46 -94t-52.5 -107.5h2q37 14 49.5 34.5t16.5 20.5t14 -10t21.5 -28.5t20.5 -43t9 -51.5q0 -18 -6 -37.5t-26.5 -36t-57.5 -27 t-100 -10.5q-8 0 -14.5 1t-14.5 1q-23 -51 -46.5 -106t-23.5 -90q0 -51 52 -51q35 0 86 25.5t110.5 77.5t122 132t119.5 189q31 78 62.5 152.5t58.5 133.5q31 70 57 133l-2 2q6 14 6 27q0 10 -3 18.5t-3 12.5q0 10 18 11t41 1q31 -4 60.5 -19.5t29.5 -58.5q0 -12 -4 -26.5 t-10 -32.5t-34.5 -76.5t-67.5 -136.5t-82 -169t-80 -175t-61.5 -152.5t-24.5 -103.5q0 -18 7 -24.5t7 -10.5q0 -2 -2 -2h-6q-39 0 -60.5 38t-21.5 79q0 29 5 62.5t16 68.5q-61 -78 -117.5 -125t-105 -73t-87.5 -34t-65 -8q-63 0 -89 34t-26 87q0 59 9.5 111.5t33.5 119.5 q-59 37 -87 97.5t-28 134.5zM201 633q0 -41 12 -75t29 -48q88 201 126 298t38 101q-18 0 -41 -4t-46 -16t-44 -40t-37.5 -62.5t-26.5 -74.5t-10 -79zM479 1145q-2 10 12.5 15.5t18.5 9.5h22t23 4q33 4 55.5 14t38.5 21v2q12 12 23.5 17t21.5 7q16 4 26.5 -5t10.5 -23 q4 -35 29.5 -67t78.5 -66q4 -6 10.5 -14.5t8.5 -18.5q2 -8 -8 -10q-20 -4 -46 5t-50.5 24.5t-45 32.5t-32.5 32q-10 -4 -19.5 -6t-19.5 -4q-18 -4 -46 -2t-52.5 6t-42 11t-17.5 15z" />
<glyph unicode="&#xdc;" horiz-adv-x="827" d="M63 588q0 90 32 160.5t80 120t104.5 75t105.5 25.5q25 0 53.5 -4t53 -14.5t40 -29t15.5 -47.5q0 -27 -15 -61v2q-4 -12 -16 -41t-32.5 -70.5t-46 -94t-52.5 -107.5h2q37 14 49.5 34.5t16.5 20.5t14 -10t21.5 -28.5t20.5 -43t9 -51.5q0 -18 -6 -37.5t-26.5 -36t-57.5 -27 t-100 -10.5q-8 0 -14.5 1t-14.5 1q-23 -51 -46.5 -106t-23.5 -90q0 -51 52 -51q35 0 86 25.5t110.5 77.5t122 132t119.5 189q31 78 62.5 152.5t58.5 133.5q31 70 57 133l-2 2q6 14 6 27q0 10 -3 18.5t-3 12.5q0 10 18 11t41 1q31 -4 60.5 -19.5t29.5 -58.5q0 -12 -4 -26.5 t-10 -32.5t-34.5 -76.5t-67.5 -136.5t-82 -169t-80 -175t-61.5 -152.5t-24.5 -103.5q0 -18 7 -24.5t7 -10.5q0 -2 -2 -2h-6q-39 0 -60.5 38t-21.5 79q0 29 5 62.5t16 68.5q-61 -78 -117.5 -125t-105 -73t-87.5 -34t-65 -8q-63 0 -89 34t-26 87q0 59 9.5 111.5t33.5 119.5 q-59 37 -87 97.5t-28 134.5zM201 633q0 -41 12 -75t29 -48q88 201 126 298t38 101q-18 0 -41 -4t-46 -16t-44 -40t-37.5 -62.5t-26.5 -74.5t-10 -79zM612 1139q8 51 17.5 79t17.5 40t17.5 14t19.5 2t16 -6h-2q16 -4 28.5 -20.5t12.5 -20.5q-2 -4 -6 -7t-10 -15 q-10 -14 -19.5 -35t-17.5 -40.5t-17.5 -34.5t-17.5 -19q-16 0 -31.5 8t-7.5 55zM737 1139q8 51 17.5 79t17.5 40t17 14t20 2q10 0 16 -6h-2q16 -4 28.5 -20.5t12.5 -20.5q-2 -4 -6 -7t-10 -15q-10 -14 -19.5 -35t-17.5 -40.5t-17.5 -34.5t-17.5 -19q-16 0 -31.5 8t-7.5 55z " />
<glyph unicode="&#xdd;" horiz-adv-x="854" d="M63 649q0 90 32 161t80 120t104.5 74.5t105.5 25.5q25 0 53.5 -4t53 -14.5t40 -28.5t15.5 -47q0 -14 -7.5 -36.5t-25.5 -63.5t-50 -106.5t-79 -164.5q35 10 49.5 31.5t18.5 21.5t14 -11t21.5 -29.5t20.5 -42t9 -50.5q0 -18 -6 -37.5t-26.5 -36t-58.5 -26.5t-99 -10 q-8 0 -14.5 1t-14.5 1q-23 -51 -47.5 -106.5t-24.5 -90.5q0 -49 52 -49q37 0 91 28.5t117.5 87t130 147.5t125.5 210q25 76 42.5 125t28.5 79t15.5 47t4.5 30q0 14 -5.5 24.5t-5.5 14.5q0 10 17.5 11t40.5 1q16 0 36.5 -4t38 -14.5t29.5 -27t12 -40.5q0 -12 -2 -26.5 t-10 -28.5q-6 -18 -27.5 -77t-50 -139.5t-63.5 -175t-72 -186.5q6 0 11 -8t8.5 -18.5t5.5 -20.5t2 -12q0 -16 -5.5 -36t-11.5 -36t-13 -26.5t-11 -10.5t-13.5 6t-31.5 17q-14 -33 -37 -82t-51.5 -95.5t-66.5 -78t-83 -27.5q-10 0 -27.5 12.5t-33 35t-26.5 56t-11 80.5 q0 35 6 71t20 65q-49 -27 -89 -35t-66 -8q-57 0 -86 33.5t-29 86.5q0 61 9.5 112.5t35.5 119.5q-59 41 -87 99t-28 132zM201 694q0 -39 11 -72.5t30 -50.5q86 205 125 300.5t39 99.5q-49 0 -87 -23.5t-65 -62.5t-40 -89.5t-13 -101.5zM449 -63q-6 -53 9 -80t25 -11 q4 8 11 19q8 18 24 61q14 37 29.5 83t32.5 97q-35 0 -59.5 -23.5t-40 -52t-23.5 -57t-8 -36.5zM570 1093q5 7 15.5 13t14.5 9q61 18 97 41.5t54.5 45t24.5 38t6 20.5l6 6q6 4 24.5 -14.5t26.5 -40.5q6 -14 8.5 -27.5t-6 -28t-32 -30t-70.5 -35.5q-29 -12 -68 -16.5t-65 -1.5 q-29 2 -35 8t-1 13zM573 246q10 2 20.5 3t20.5 1q6 0 12.5 12t13.5 29.5t13.5 36t10.5 30.5q-49 -68 -91 -112z" />
<glyph unicode="&#xe0;" horiz-adv-x="489" d="M-29 197q0 76 31 161q6 20 27.5 62.5t59.5 85.5t92.5 76.5t127.5 38.5q92 0 137.5 -26t45.5 -63q0 -16 -7.5 -31.5t-16.5 -27.5t-19.5 -20.5t-14.5 -8.5l-6 10q-6 9 -16.5 19t-28.5 18.5t-43 8.5q-59 -2 -106.5 -42t-80 -95.5t-49 -115t-16.5 -97.5q0 -16 4 -37t14 -21 q25 0 47.5 16.5t43 41t37 54t28.5 58.5q2 2 7 32t18.5 63.5t36 61t57.5 27.5q18 0 35.5 -8t31 -18t20.5 -18.5t7 -10.5q0 -4 -3 -7t-9 -10t-15.5 -21.5t-21.5 -39.5q-8 -16 -21.5 -48t-26.5 -64.5t-22.5 -60t-9.5 -40.5q0 -8 8 -8q10 0 25.5 5t30.5 12q41 23 63.5 39 t33.5 26t16.5 15.5t11.5 5.5q6 -4 6 -11q0 -4 -3 -7t-3 -7l-15 -22q-14 -21 -41.5 -47.5t-64.5 -49t-82 -22.5q-29 0 -44.5 12t-22.5 27.5t-9 32t-2 26.5q-35 -43 -77 -71.5t-83 -28.5q-33 0 -55.5 14t-37.5 38.5t-22.5 55.5t-7.5 62zM229 772q2 14 8 29q8 23 26.5 41 t24.5 14q1 0 7 -6q0 -4 6 -20.5t24.5 -38t54 -45t97.5 -41.5q4 -2 14 -8.5t14.5 -13.5t-2 -13t-32.5 -8q-27 -2 -66 3t-67 15q-47 16 -71 31.5t-32 31t-6 29.5z" />
<glyph unicode="&#xe1;" horiz-adv-x="489" d="M-29 197q0 76 31 161q6 20 27.5 62.5t59.5 85.5t92.5 76.5t127.5 38.5q92 0 137.5 -26t45.5 -63q0 -16 -7.5 -31.5t-16.5 -27.5t-19.5 -20.5t-14.5 -8.5l-6 10q-6 9 -16.5 19t-28.5 18.5t-43 8.5q-59 -2 -106.5 -42t-80 -95.5t-49 -115t-16.5 -97.5q0 -16 4 -37t14 -21 q25 0 47.5 16.5t43 41t37 54t28.5 58.5q2 2 7 32t18.5 63.5t36 61t57.5 27.5q18 0 35.5 -8t31 -18t20.5 -18.5t7 -10.5q0 -4 -3 -7t-9 -10t-15.5 -21.5t-21.5 -39.5q-8 -16 -21.5 -48t-26.5 -64.5t-22.5 -60t-9.5 -40.5q0 -8 8 -8q10 0 25.5 5t30.5 12q41 23 63.5 39 t33.5 26t16.5 15.5t11.5 5.5q6 -4 6 -11q0 -4 -3 -7t-3 -7l-15 -22q-14 -21 -41.5 -47.5t-64.5 -49t-82 -22.5q-29 0 -44.5 12t-22.5 27.5t-9 32t-2 26.5q-35 -43 -77 -71.5t-83 -28.5q-33 0 -55.5 14t-37.5 38.5t-22.5 55.5t-7.5 62zM214 683q5 7 15.5 13t14.5 9 q61 18 97 41.5t54.5 45t24.5 38t6 20.5l6 6q6 4 24.5 -14.5t26.5 -40.5q6 -14 8.5 -27.5t-6 -28t-32 -30t-70.5 -35.5q-29 -12 -68 -16.5t-65 -1.5q-29 2 -35 8t-1 13z" />
<glyph unicode="&#xe2;" horiz-adv-x="489" d="M-29 197q0 76 31 161q6 20 27.5 62.5t59.5 85.5t92.5 76.5t127.5 38.5q92 0 137.5 -26t45.5 -63q0 -16 -7.5 -31.5t-16.5 -27.5t-19.5 -20.5t-14.5 -8.5l-6 10q-6 9 -16.5 19t-28.5 18.5t-43 8.5q-59 -2 -106.5 -42t-80 -95.5t-49 -115t-16.5 -97.5q0 -16 4 -37t14 -21 q25 0 47.5 16.5t43 41t37 54t28.5 58.5q2 2 7 32t18.5 63.5t36 61t57.5 27.5q18 0 35.5 -8t31 -18t20.5 -18.5t7 -10.5q0 -4 -3 -7t-9 -10t-15.5 -21.5t-21.5 -39.5q-8 -16 -21.5 -48t-26.5 -64.5t-22.5 -60t-9.5 -40.5q0 -8 8 -8q10 0 25.5 5t30.5 12q41 23 63.5 39 t33.5 26t16.5 15.5t11.5 5.5q6 -4 6 -11q0 -4 -3 -7t-3 -7l-15 -22q-14 -21 -41.5 -47.5t-64.5 -49t-82 -22.5q-29 0 -44.5 12t-22.5 27.5t-9 32t-2 26.5q-35 -43 -77 -71.5t-83 -28.5q-33 0 -55.5 14t-37.5 38.5t-22.5 55.5t-7.5 62zM184 735q-2 10 12.5 15.5t18.5 9.5h22 t23 4q33 4 55.5 14t38.5 21v2q12 12 23.5 17t21.5 7q16 4 26.5 -5t10.5 -23q4 -35 29.5 -67t78.5 -66q4 -6 10.5 -14.5t8.5 -18.5q2 -8 -8 -10q-20 -4 -46 5t-50.5 24.5t-45 32.5t-32.5 32q-10 -4 -19.5 -6t-19.5 -4q-18 -4 -46 -2t-52.5 6t-42 11t-17.5 15z" />
<glyph unicode="&#xe3;" horiz-adv-x="489" d="M-29 197q0 76 31 161q6 20 27.5 62.5t59.5 85.5t92.5 76.5t127.5 38.5q92 0 137.5 -26t45.5 -63q0 -16 -7.5 -31.5t-16.5 -27.5t-19.5 -20.5t-14.5 -8.5l-6 10q-6 9 -16.5 19t-28.5 18.5t-43 8.5q-59 -2 -106.5 -42t-80 -95.5t-49 -115t-16.5 -97.5q0 -16 4 -37t14 -21 q25 0 47.5 16.5t43 41t37 54t28.5 58.5q2 2 7 32t18.5 63.5t36 61t57.5 27.5q18 0 35.5 -8t31 -18t20.5 -18.5t7 -10.5q0 -4 -3 -7t-9 -10t-15.5 -21.5t-21.5 -39.5q-8 -16 -21.5 -48t-26.5 -64.5t-22.5 -60t-9.5 -40.5q0 -8 8 -8q10 0 25.5 5t30.5 12q41 23 63.5 39 t33.5 26t16.5 15.5t11.5 5.5q6 -4 6 -11q0 -4 -3 -7t-3 -7l-15 -22q-14 -21 -41.5 -47.5t-64.5 -49t-82 -22.5q-29 0 -44.5 12t-22.5 27.5t-9 32t-2 26.5q-35 -43 -77 -71.5t-83 -28.5q-33 0 -55.5 14t-37.5 38.5t-22.5 55.5t-7.5 62zM219 748q0 29 36 57.5t99 28.5 q76 0 125 -82q6 -10 16.5 -25.5t23 -30t27.5 -24.5t32 -10q8 0 12 2q4 0 6 1t6 1q25 0 25 -15q0 -10 -23.5 -19t-52.5 -9q-66 0 -95.5 25.5t-47 55t-34.5 55t-58 25.5q-23 0 -38.5 -7t-24.5 -15t-14 -16l-5 -7q-14 0 -15 9z" />
<glyph unicode="&#xe4;" horiz-adv-x="489" d="M-29 197q0 76 31 161q6 20 27.5 62.5t59.5 85.5t92.5 76.5t127.5 38.5q92 0 137.5 -26t45.5 -63q0 -16 -7.5 -31.5t-16.5 -27.5t-19.5 -20.5t-14.5 -8.5l-6 10q-6 9 -16.5 19t-28.5 18.5t-43 8.5q-59 -2 -106.5 -42t-80 -95.5t-49 -115t-16.5 -97.5q0 -16 4 -37t14 -21 q25 0 47.5 16.5t43 41t37 54t28.5 58.5q2 2 7 32t18.5 63.5t36 61t57.5 27.5q18 0 35.5 -8t31 -18t20.5 -18.5t7 -10.5q0 -4 -3 -7t-9 -10t-15.5 -21.5t-21.5 -39.5q-8 -16 -21.5 -48t-26.5 -64.5t-22.5 -60t-9.5 -40.5q0 -8 8 -8q10 0 25.5 5t30.5 12q41 23 63.5 39 t33.5 26t16.5 15.5t11.5 5.5q6 -4 6 -11q0 -4 -3 -7t-3 -7l-15 -22q-14 -21 -41.5 -47.5t-64.5 -49t-82 -22.5q-29 0 -44.5 12t-22.5 27.5t-9 32t-2 26.5q-35 -43 -77 -71.5t-83 -28.5q-33 0 -55.5 14t-37.5 38.5t-22.5 55.5t-7.5 62zM289 729q8 51 17.5 79t17.5 40t17.5 14 t19.5 2t16 -6h-2q16 -4 28.5 -20.5t12.5 -20.5q-2 -4 -6 -7t-10 -15q-10 -14 -19.5 -35t-17.5 -40.5t-17.5 -34.5t-17.5 -19q-16 0 -31.5 8t-7.5 55zM414 729q8 51 17.5 79t17.5 40t17 14t20 2q10 0 16 -6h-2q16 -4 28.5 -20.5t12.5 -20.5q-2 -4 -6 -7t-10 -15 q-10 -14 -19.5 -35t-17.5 -40.5t-17.5 -34.5t-17.5 -19q-16 0 -31.5 8t-7.5 55z" />
<glyph unicode="&#xe5;" horiz-adv-x="489" d="M-29 197q0 76 31 161q6 20 27.5 62.5t59.5 85.5t92.5 76.5t127.5 38.5q92 0 137.5 -26t45.5 -63q0 -16 -7.5 -31.5t-16.5 -27.5t-19.5 -20.5t-14.5 -8.5l-6 10q-6 9 -16.5 19t-28.5 18.5t-43 8.5q-59 -2 -106.5 -42t-80 -95.5t-49 -115t-16.5 -97.5q0 -16 4 -37t14 -21 q25 0 47.5 16.5t43 41t37 54t28.5 58.5q2 2 7 32t18.5 63.5t36 61t57.5 27.5q18 0 35.5 -8t31 -18t20.5 -18.5t7 -10.5q0 -4 -3 -7t-9 -10t-15.5 -21.5t-21.5 -39.5q-8 -16 -21.5 -48t-26.5 -64.5t-22.5 -60t-9.5 -40.5q0 -8 8 -8q10 0 25.5 5t30.5 12q41 23 63.5 39 t33.5 26t16.5 15.5t11.5 5.5q6 -4 6 -11q0 -4 -3 -7t-3 -7l-15 -22q-14 -21 -41.5 -47.5t-64.5 -49t-82 -22.5q-29 0 -44.5 12t-22.5 27.5t-9 32t-2 26.5q-35 -43 -77 -71.5t-83 -28.5q-33 0 -55.5 14t-37.5 38.5t-22.5 55.5t-7.5 62zM365 752q0 72 14.5 91t42.5 19 q23 0 51.5 -19.5t28.5 -35.5q0 -4 -4 -24.5t-13.5 -43t-25.5 -41t-39 -18.5t-39 12.5t-16 59.5zM410 735q0 -14 5 -16t9 -2l2 2q8 10 12.5 23.5t6.5 23.5q0 4 -9.5 9t-13.5 5q-8 0 -10 -9t-2 -36z" />
<glyph unicode="&#xe6;" horiz-adv-x="749" d="M-29 197q0 76 31 161q6 20 27.5 62.5t59.5 85.5t92.5 76.5t127.5 38.5q66 0 107 -13.5t59 -36.5q33 23 69 36.5t72 13.5q16 0 40 -6.5t45.5 -24t37 -47t13.5 -78.5q-4 -53 -32 -94t-69 -69t-87 -42t-83 -14q-33 0 -59 10q-4 -16 -6 -30.5t-2 -30.5q-2 -31 5 -51.5 t21.5 -32t31.5 -15.5t38 -4q33 0 67.5 10.5t65.5 27.5t56.5 37.5t37.5 41.5q6 8 9.5 13t7.5 5t8 -2q4 -4 4 -8q0 -8 -4 -12l-2 -4q-29 -49 -67 -83t-80 -53.5t-81.5 -27.5t-72.5 -8q-41 0 -70 11t-47 30q0 -12 -1 -23.5t1 -13.5l-10 -4q-27 -8 -42.5 2t-23.5 28.5t-10 38 t-2 29.5q-35 -43 -77 -71.5t-83 -28.5q-33 0 -55.5 14t-37.5 38.5t-22.5 55.5t-7.5 62zM88 150q0 -16 4 -37t14 -21q25 0 47.5 16.5t43 41t37 54t28.5 58.5q2 2 7 27.5t15.5 57.5t30 59.5t47.5 35.5q6 12 13.5 23.5t15.5 21.5q-23 12 -51 13q-59 -2 -106.5 -42t-80 -95.5 t-49 -115t-16.5 -97.5zM438 307q23 0 54.5 13.5t61.5 34t50.5 47t20.5 53.5q2 16 -8.5 23t-26.5 7q-20 0 -39 -15.5t-35 -31.5q-25 -25 -44 -58.5t-34 -72.5z" />
<glyph unicode="&#xe7;" horiz-adv-x="405" d="M-16 199.5v44.5q4 80 32.5 149.5t71.5 120.5t97.5 80t109.5 29q12 0 38.5 -3.5t51.5 -15.5t43 -35.5t16 -64.5q-2 -31 -16 -50.5t-30.5 -30.5t-32 -16.5t-19.5 -5.5q-6 0 -6 7q0 4 1 9l3 15q2 16 -6 43t-41 27t-64.5 -24.5t-58.5 -66.5t-44 -95.5t-21 -108.5 q-4 -53 13 -88t64 -35q29 0 62 12.5t62.5 30.5t53 39t35.5 39q14 18 21 18q2 0 6 -3t4 -7q0 -2 -1 -2t-1 -2v-2q-27 -49 -62.5 -84t-74.5 -56.5t-79 -31.5t-73 -10h-14q6 -12 17.5 -22.5t22.5 -22t20.5 -23.5t9.5 -29q0 -4 1 -8t-1 -10q0 -10 -4.5 -27.5t-15.5 -33 t-29.5 -27.5t-47.5 -12q-27 0 -47 11t-33.5 27.5t-20.5 34t-7 31.5q2 31 13 41t24 10q4 0 23.5 -5t21.5 -15q-2 -4 -9.5 -12.5t-9.5 -18.5q0 -2 2 -10t7.5 -18.5t16.5 -18.5t32 -8q27 0 45 20.5t18 40.5t-18.5 31.5t-39 22t-39 22.5t-18.5 35v12q-29 16 -45 43t-23 56.5 t-7 57z" />
<glyph unicode="&#xe8;" horiz-adv-x="436" d="M-12 163q-4 38 0 77q6 72 33.5 141.5t72.5 123.5t102.5 88t118.5 34q16 0 40 -6.5t45.5 -23.5t35 -48t10.5 -80q-6 -55 -35.5 -96t-71.5 -69t-88 -42t-85 -14q-33 0 -60 10q-4 -16 -6 -30.5t-4 -30.5q-4 -66 25 -85.5t69 -19.5q33 0 69 11.5t67.5 27.5t57.5 37.5t40 42.5 q6 8 9 13t7 5q5 0 9 -2q4 -4 4 -8q0 -8 -4 -12q-2 -4 -5 -4q-31 -51 -69.5 -85t-80.5 -53.5t-83 -27.5t-74 -8q-51 0 -82.5 18.5t-47 48t-19.5 67.5zM125 309q23 0 55.5 13.5t62 35t52 48t24.5 53.5q2 16 -8 23t-26 7q-20 0 -39 -15.5t-39 -31.5q-49 -49 -82 -133zM199 772 q2 14 8 29q8 23 26.5 41t24.5 14q1 0 7 -6q0 -4 6 -20.5t24.5 -38t54 -45t97.5 -41.5q4 -2 14 -8.5t14.5 -13.5t-2 -13t-32.5 -8q-27 -2 -66 3t-67 15q-47 16 -71 31.5t-32 31t-6 29.5z" />
<glyph unicode="&#xe9;" horiz-adv-x="436" d="M-12 163q-4 38 0 77q6 72 33.5 141.5t72.5 123.5t102.5 88t118.5 34q16 0 40 -6.5t45.5 -23.5t35 -48t10.5 -80q-6 -55 -35.5 -96t-71.5 -69t-88 -42t-85 -14q-33 0 -60 10q-4 -16 -6 -30.5t-4 -30.5q-4 -66 25 -85.5t69 -19.5q33 0 69 11.5t67.5 27.5t57.5 37.5t40 42.5 q6 8 9 13t7 5q5 0 9 -2q4 -4 4 -8q0 -8 -4 -12q-2 -4 -5 -4q-31 -51 -69.5 -85t-80.5 -53.5t-83 -27.5t-74 -8q-51 0 -82.5 18.5t-47 48t-19.5 67.5zM125 309q23 0 55.5 13.5t62 35t52 48t24.5 53.5q2 16 -8 23t-26 7q-20 0 -39 -15.5t-39 -31.5q-49 -49 -82 -133zM179 683 q5 7 15.5 13t14.5 9q61 18 97 41.5t54.5 45t24.5 38t6 20.5l6 6q6 4 24.5 -14.5t26.5 -40.5q6 -14 8.5 -27.5t-6 -28t-32 -30t-70.5 -35.5q-29 -12 -68 -16.5t-65 -1.5q-29 2 -35 8t-1 13z" />
<glyph unicode="&#xea;" horiz-adv-x="436" d="M-12 163q-4 38 0 77q6 72 33.5 141.5t72.5 123.5t102.5 88t118.5 34q16 0 40 -6.5t45.5 -23.5t35 -48t10.5 -80q-6 -55 -35.5 -96t-71.5 -69t-88 -42t-85 -14q-33 0 -60 10q-4 -16 -6 -30.5t-4 -30.5q-4 -66 25 -85.5t69 -19.5q33 0 69 11.5t67.5 27.5t57.5 37.5t40 42.5 q6 8 9 13t7 5q5 0 9 -2q4 -4 4 -8q0 -8 -4 -12q-2 -4 -5 -4q-31 -51 -69.5 -85t-80.5 -53.5t-83 -27.5t-74 -8q-51 0 -82.5 18.5t-47 48t-19.5 67.5zM125 309q23 0 55.5 13.5t62 35t52 48t24.5 53.5q2 16 -8 23t-26 7q-20 0 -39 -15.5t-39 -31.5q-49 -49 -82 -133zM133 735 q-2 10 12.5 15.5t18.5 9.5h22t23 4q33 4 55.5 14t38.5 21v2q12 12 23.5 17t21.5 7q16 4 26.5 -5t10.5 -23q4 -35 29.5 -67t78.5 -66q4 -6 10.5 -14.5t8.5 -18.5q2 -8 -8 -10q-20 -4 -46 5t-50.5 24.5t-45 32.5t-32.5 32q-10 -4 -19.5 -6t-19.5 -4q-18 -4 -46 -2t-52.5 6 t-42 11t-17.5 15z" />
<glyph unicode="&#xeb;" horiz-adv-x="436" d="M-12 163q-4 38 0 77q6 72 33.5 141.5t72.5 123.5t102.5 88t118.5 34q16 0 40 -6.5t45.5 -23.5t35 -48t10.5 -80q-6 -55 -35.5 -96t-71.5 -69t-88 -42t-85 -14q-33 0 -60 10q-4 -16 -6 -30.5t-4 -30.5q-4 -66 25 -85.5t69 -19.5q33 0 69 11.5t67.5 27.5t57.5 37.5t40 42.5 q6 8 9 13t7 5q5 0 9 -2q4 -4 4 -8q0 -8 -4 -12q-2 -4 -5 -4q-31 -51 -69.5 -85t-80.5 -53.5t-83 -27.5t-74 -8q-51 0 -82.5 18.5t-47 48t-19.5 67.5zM125 309q23 0 55.5 13.5t62 35t52 48t24.5 53.5q2 16 -8 23t-26 7q-20 0 -39 -15.5t-39 -31.5q-49 -49 -82 -133zM248 729 q8 51 17.5 79t17.5 40t17.5 14t19.5 2t16 -6h-2q16 -4 28.5 -20.5t12.5 -20.5q-2 -4 -6 -7t-10 -15q-10 -14 -19.5 -35t-17.5 -40.5t-17.5 -34.5t-17.5 -19q-16 0 -31.5 8t-7.5 55zM373 729q8 51 17.5 79t17.5 40t17 14t20 2q10 0 16 -6h-2q16 -4 28.5 -20.5t12.5 -20.5 q-2 -4 -6 -7t-10 -15q-10 -14 -19.5 -35t-17.5 -40.5t-17.5 -34.5t-17.5 -19q-16 0 -31.5 8t-7.5 55z" />
<glyph unicode="&#xec;" horiz-adv-x="208" d="M-43 123q0 -49 27.5 -70.5t56.5 -21.5q43 0 81 18.5t65.5 43t45 48t21.5 31.5q2 2 4 6t4 6q0 2 -1 7.5t-9 5.5l-22 -17q-21 -16 -49.5 -35.5t-57.5 -36t-47 -16.5q-10 0 -13 6q4 39 30 96.5t56.5 116t58.5 106.5t38 70q8 16 8 35q0 20 -12.5 35.5t-30.5 25t-41 13.5 t-41 4q-29 0 -41 -6t-12 -12t3 -10.5t5 -16.5q2 -10 1 -16.5t-5 -22.5q-10 -29 -30.5 -83t-41 -112.5t-36 -112.5t-15.5 -85zM98 772q2 14 8 29q8 23 27 41t25 14l6 -6q0 -4 6 -20.5t24.5 -38t54.5 -45t97 -41.5q4 -2 14.5 -8.5t14.5 -13.5t-2 -13t-33 -8t-65.5 3t-67.5 15 q-47 16 -70.5 31.5t-32 31t-6.5 29.5z" />
<glyph unicode="&#xed;" horiz-adv-x="208" d="M-43 123q0 31 15.5 85t36 112.5t41 112.5t30.5 83q4 16 5 22.5t-1 16.5q-2 12 -5 16t-3 11q0 6 12 12t41 6q18 0 41 -4t41 -13.5t30.5 -24.5t12.5 -36q0 -18 -8 -35q-10 -23 -38 -70.5t-58.5 -106t-56 -116t-30.5 -96.5q2 -6 13 -6q18 0 47 16.5t57.5 36t49.5 35.5l22 17 q8 0 9 -5.5t1 -7.5q-2 -2 -4 -6t-4 -6q-4 -8 -21.5 -31.5t-45 -48t-65.5 -43t-81 -18.5q-29 0 -56.5 21.5t-27.5 70.5zM75 683q5 7 15 13t14 9q61 18 97.5 41.5t54.5 45t24.5 38t6.5 20.5l6 6q6 4 24.5 -14.5t26.5 -40.5q6 -14 8 -27.5t-6 -28t-31.5 -30t-70.5 -35.5 q-29 -12 -68 -16.5t-65 -1.5q-29 2 -35 8t-1 13z" />
<glyph unicode="&#xee;" horiz-adv-x="208" d="M-43 123q0 31 15.5 85t36 112.5t41 112.5t30.5 83q4 16 5 22.5t-1 16.5q-2 12 -5 16t-3 11q0 6 12 12t41 6q18 0 41 -4t41 -13.5t30.5 -24.5t12.5 -36q0 -18 -8 -35q-10 -23 -38 -70.5t-58.5 -106t-56 -116t-30.5 -96.5q2 -6 13 -6q18 0 47 16.5t57.5 36t49.5 35.5l22 17 q8 0 9 -5.5t1 -7.5q-2 -2 -4 -6t-4 -6q-4 -8 -21.5 -31.5t-45 -48t-65.5 -43t-81 -18.5q-29 0 -56.5 21.5t-27.5 70.5zM-4 735q-2 10 12.5 15.5t18.5 9.5h22t23 4q33 4 55.5 14t38.5 21v2q12 12 23.5 17t21.5 7q16 4 26.5 -5t10.5 -23q4 -35 29.5 -67t78.5 -66 q4 -6 10.5 -14.5t8.5 -18.5q2 -8 -8 -10q-20 -4 -46 5t-50.5 24.5t-45 32.5t-32.5 32q-10 -4 -19.5 -6t-19.5 -4q-18 -4 -46 -2t-52.5 6t-42 11t-17.5 15z" />
<glyph unicode="&#xef;" horiz-adv-x="208" d="M-43 123q0 -49 27.5 -70.5t56.5 -21.5q43 0 81 18.5t65.5 43t45 48t21.5 31.5q2 2 4 6t4 6q0 2 -1 7.5t-9 5.5l-22 -17q-21 -16 -49.5 -35.5t-57.5 -36t-47 -16.5q-10 0 -13 6q4 39 30 96.5t56.5 116t58.5 106.5t38 70q8 16 8 35q0 20 -12.5 35.5t-30.5 25t-41 13.5 t-41 4q-29 0 -41 -6t-12 -12t3 -10.5t5 -16.5q2 -10 1 -16.5t-5 -22.5q-10 -29 -30.5 -83t-41 -112.5t-36 -112.5t-15.5 -85zM133 729q8 51 17.5 79t17.5 40t17.5 14t19.5 2t16 -6h-2q16 -4 28.5 -20.5t12.5 -20.5q-2 -4 -6 -7t-10 -15q-10 -14 -19.5 -35t-17.5 -40.5 t-17.5 -34.5t-17.5 -19q-16 0 -31.5 8t-7.5 55zM258 729q8 51 17.5 79t17.5 40t17 14t20 2q10 0 16 -6h-2q16 -4 28.5 -20.5t12.5 -20.5q-2 -4 -6 -7t-10 -15q-10 -14 -19.5 -35t-17.5 -40.5t-17.5 -34.5t-17.5 -19q-16 0 -31.5 8t-7.5 55z" />
<glyph unicode="&#xf1;" horiz-adv-x="477" d="M-63 98q2 33 20 94.5t42 128t47.5 126t35.5 88.5q4 10 7 20t5 20q0 10 -3 15.5t-3 9.5q0 14 45 14q18 0 41 -5t42.5 -15t31.5 -25.5t10 -38.5q-2 -18 -13.5 -38.5t-39.5 -65.5q31 33 53.5 65.5t44 58t44 41t50.5 15.5q18 0 41 -4t41.5 -13t30.5 -24.5t12 -36.5 q0 -18 -8 -34q-10 -23 -37.5 -72t-58.5 -108.5t-56.5 -118t-29.5 -97.5q0 -6 10 -6q18 0 47 16.5t57.5 36t50 36t25.5 16.5q6 -4 6 -13q0 -2 -3 -6t-3 -6q-6 -8 -24.5 -31.5t-46 -48t-63.5 -43t-79 -18.5q-29 0 -57.5 22.5t-28.5 69.5q0 27 12.5 72t30 96t35.5 102t33 88v-2 q2 6 2 15q0 6 -4 6q-6 0 -19 -13q-16 -14 -62 -62t-95.5 -111.5t-90 -133t-45.5 -127.5q-2 -10 -4 -15t-16 -3q-10 0 -21.5 3t-21.5 11t-16.5 20.5t-3.5 28.5zM162 748q0 29 36 57.5t99 28.5q76 0 125 -82q6 -10 16.5 -25.5t23 -30t27.5 -24.5t32 -10q8 0 12 2q4 0 6 1t6 1 q25 0 25 -15q0 -10 -23.5 -19t-52.5 -9q-66 0 -95.5 25.5t-47 55t-34.5 55t-58 25.5q-23 0 -38.5 -7t-24.5 -15t-14 -16l-5 -7q-14 0 -15 9z" />
<glyph unicode="&#xf2;" horiz-adv-x="497" d="M-6 248q2 61 26.5 126.5t60.5 121t80 91.5t85 36q18 0 33.5 -10.5t25.5 -25t14.5 -27.5t4.5 -21t-11 -9q-45 -12 -80.5 -51t-60.5 -89t-39 -105.5t-16 -98.5q-6 -96 49 -96q27 0 59.5 31t67.5 92q-25 12 -47.5 44t-18.5 89q2 33 13.5 69t31 65.5t48 49t63.5 19.5 t54.5 -16.5t28.5 -38t10 -43t1 -33.5q-2 -35 -13 -77t-26 -83q35 6 59.5 16.5t42 21.5t26.5 19.5t14 8.5q2 0 2 -2q4 0 4 -9q0 -8 -10.5 -24.5t-32 -32.5t-53 -31.5t-74.5 -21.5q-55 -98 -128 -137t-141 -39q-66 0 -112.5 54t-40.5 167zM248 772q2 14 8 29q8 23 26.5 41 t24.5 14q1 0 7 -6q0 -4 6 -20.5t24.5 -38t54 -45t97.5 -41.5q4 -2 14 -8.5t14.5 -13.5t-2 -13t-32.5 -8q-27 -2 -66 3t-67 15q-47 16 -71 31.5t-32 31t-6 29.5zM307 350q0 -20 3 -33.5t16 -29.5q10 29 23 59.5t16 63.5q-1 16 -7 22q-27 -6 -38 -31.5t-13 -50.5z" />
<glyph unicode="&#xf3;" horiz-adv-x="497" d="M-6 248q2 61 26.5 126.5t60.5 121t80 91.5t85 36q18 0 33.5 -10.5t25.5 -25t14.5 -27.5t4.5 -21t-11 -9q-45 -12 -80.5 -51t-60.5 -89t-39 -105.5t-16 -98.5q-6 -96 49 -96q27 0 59.5 31t67.5 92q-25 12 -47.5 44t-18.5 89q2 33 13.5 69t31 65.5t48 49t63.5 19.5 t54.5 -16.5t28.5 -38t10 -43t1 -33.5q-2 -35 -13 -77t-26 -83q35 6 59.5 16.5t42 21.5t26.5 19.5t14 8.5q2 0 2 -2q4 0 4 -9q0 -8 -10.5 -24.5t-32 -32.5t-53 -31.5t-74.5 -21.5q-55 -98 -128 -137t-141 -39q-66 0 -112.5 54t-40.5 167zM239 683q5 7 15.5 13t14.5 9 q61 18 97 41.5t54.5 45t24.5 38t6 20.5l6 6q6 4 24.5 -14.5t26.5 -40.5q6 -14 8.5 -27.5t-6 -28t-32 -30t-70.5 -35.5q-29 -12 -68 -16.5t-65 -1.5q-29 2 -35 8t-1 13zM307 350q0 -20 3 -33.5t16 -29.5q10 29 23 59.5t16 63.5q-1 16 -7 22q-27 -6 -38 -31.5t-13 -50.5z" />
<glyph unicode="&#xf4;" horiz-adv-x="497" d="M-6 248q2 61 26.5 126.5t60.5 121t80 91.5t85 36q18 0 33.5 -10.5t25.5 -25t14.5 -27.5t4.5 -21t-11 -9q-45 -12 -80.5 -51t-60.5 -89t-39 -105.5t-16 -98.5q-6 -96 49 -96q27 0 59.5 31t67.5 92q-25 12 -47.5 44t-18.5 89q2 33 13.5 69t31 65.5t48 49t63.5 19.5 t54.5 -16.5t28.5 -38t10 -43t1 -33.5q-2 -35 -13 -77t-26 -83q35 6 59.5 16.5t42 21.5t26.5 19.5t14 8.5q2 0 2 -2q4 0 4 -9q0 -8 -10.5 -24.5t-32 -32.5t-53 -31.5t-74.5 -21.5q-55 -98 -128 -137t-141 -39q-66 0 -112.5 54t-40.5 167zM193 735q-2 10 12.5 15.5t18.5 9.5 h22t23 4q33 4 55.5 14t38.5 21v2q12 12 23.5 17t21.5 7q16 4 26.5 -5t10.5 -23q4 -35 29.5 -67t78.5 -66q4 -6 10.5 -14.5t8.5 -18.5q2 -8 -8 -10q-20 -4 -46 5t-50.5 24.5t-45 32.5t-32.5 32q-10 -4 -19.5 -6t-19.5 -4q-18 -4 -46 -2t-52.5 6t-42 11t-17.5 15zM307 350 q0 -20 3 -33.5t16 -29.5q10 29 23 59.5t16 63.5q-1 16 -7 22q-27 -6 -38 -31.5t-13 -50.5z" />
<glyph unicode="&#xf5;" horiz-adv-x="497" d="M-6 248q2 61 26.5 126.5t60.5 121t80 91.5t85 36q18 0 33.5 -10.5t25.5 -25t14.5 -27.5t4.5 -21t-11 -9q-45 -12 -80.5 -51t-60.5 -89t-39 -105.5t-16 -98.5q-6 -96 49 -96q27 0 59.5 31t67.5 92q-25 12 -47.5 44t-18.5 89q2 33 13.5 69t31 65.5t48 49t63.5 19.5 t54.5 -16.5t28.5 -38t10 -43t1 -33.5q-2 -35 -13 -77t-26 -83q35 6 59.5 16.5t42 21.5t26.5 19.5t14 8.5q2 0 2 -2q4 0 4 -9q0 -8 -10.5 -24.5t-32 -32.5t-53 -31.5t-74.5 -21.5q-55 -98 -128 -137t-141 -39q-66 0 -112.5 54t-40.5 167zM196 748q0 29 36 57.5t99 28.5 q76 0 125 -82q6 -10 16.5 -25.5t23 -30t27.5 -24.5t32 -10q8 0 12 2q4 0 6 1t6 1q25 0 25 -15q0 -10 -23.5 -19t-52.5 -9q-66 0 -95.5 25.5t-47 55t-34.5 55t-58 25.5q-23 0 -38.5 -7t-24.5 -15t-14 -16l-5 -7q-14 0 -15 9zM307 350q0 -20 3 -33.5t16 -29.5q10 29 23 59.5 t16 63.5q-1 16 -7 22q-27 -6 -38 -31.5t-13 -50.5z" />
<glyph unicode="&#xf6;" horiz-adv-x="497" d="M-6 248q2 61 26.5 126.5t60.5 121t80 91.5t85 36q18 0 33.5 -10.5t25.5 -25t14.5 -27.5t4.5 -21t-11 -9q-45 -12 -80.5 -51t-60.5 -89t-39 -105.5t-16 -98.5q-6 -96 49 -96q27 0 59.5 31t67.5 92q-25 12 -47.5 44t-18.5 89q2 33 13.5 69t31 65.5t48 49t63.5 19.5 t54.5 -16.5t28.5 -38t10 -43t1 -33.5q-2 -35 -13 -77t-26 -83q35 6 59.5 16.5t42 21.5t26.5 19.5t14 8.5q2 0 2 -2q4 0 4 -9q0 -8 -10.5 -24.5t-32 -32.5t-53 -31.5t-74.5 -21.5q-55 -98 -128 -137t-141 -39q-66 0 -112.5 54t-40.5 167zM307 350q0 -20 3 -33.5t16 -29.5 q10 29 23 59.5t16 63.5q-1 16 -7 22q-27 -6 -38 -31.5t-13 -50.5zM313 729q8 51 17.5 79t17.5 40t17.5 14t19.5 2t16 -6h-2q16 -4 28.5 -20.5t12.5 -20.5q-2 -4 -6 -7t-10 -15q-10 -14 -19.5 -35t-17.5 -40.5t-17.5 -34.5t-17.5 -19q-16 0 -31.5 8t-7.5 55zM438 729 q8 51 17.5 79t17.5 40t17 14t20 2q10 0 16 -6h-2q16 -4 28.5 -20.5t12.5 -20.5q-2 -4 -6 -7t-10 -15q-10 -14 -19.5 -35t-17.5 -40.5t-17.5 -34.5t-17.5 -19q-16 0 -31.5 8t-7.5 55z" />
<glyph unicode="&#xf7;" horiz-adv-x="653" d="M39 326q-16 35 8.5 64.5t54.5 45.5q33 16 79 21.5t97.5 6.5t104.5 -1t99 0t81 9.5t51 25.5q6 6 11.5 -10.5t3.5 -40t-11.5 -47t-33.5 -33.5q-10 -4 -22.5 -6.5t-28.5 -4.5q-29 -4 -88.5 2.5t-128 9.5t-138 0t-114.5 -24q-14 -6 -16.5 -13t-6.5 -9q-2 0 -2 4zM205 225 q0 6 5 7t18 12q12 12 25.5 31.5t26.5 37t24.5 30.5t21.5 13t30.5 -11t20.5 -34t-8 -46t-17.5 -43.5t-16.5 -35t-7 -16.5q-4 -4 -15.5 -9t-23.5 -5q-20 0 -35 14q-16 10 -32.5 29.5t-16.5 25.5zM256 569q0 6 5.5 7.5t17.5 11.5q12 12 25.5 31.5t25.5 37t23.5 30.5t21.5 13 t30.5 -12t20.5 -35q0 -20 -7 -43.5t-16 -44t-16.5 -35t-7.5 -16.5q-4 -4 -15 -9t-26 -5q-18 0 -33 14q-16 10 -32.5 28.5t-16.5 26.5z" />
<glyph unicode="&#xf8;" horiz-adv-x="497" d="M-6 248q2 61 26.5 126.5t60.5 121t80 91.5t85 36q16 0 30.5 -9.5t24.5 -21.5q14 39 14 55q0 2 4 2q12 0 35 -13t23 -36q0 -10 -6 -29q-2 -4 -11 -24q4 0 10.5 1t12.5 1q35 0 54.5 -16.5t28.5 -38t10 -43t1 -33.5q-2 -35 -13 -77t-26 -83q35 6 59.5 16.5t42 21.5 t26.5 19.5t14 8.5q2 0 2 -2q4 0 4 -9q0 -8 -10.5 -24.5t-32 -32.5t-53 -31.5t-74.5 -21.5q-55 -98 -128 -137t-141 -39h-14q-4 -20 -4 -25q0 -10 4 -12t4 -4t-4 -2q-20 0 -30.5 17t-12.5 36q-47 20 -73.5 71.5t-22.5 139.5zM115 166q29 86 72.5 177t78.5 165 q-35 -23 -61.5 -62.5t-46 -85t-29.5 -91.5t-12 -83q0 -6 -1 -11t-1 -9zM154 90h12q27 0 59.5 31t67.5 92q-16 8 -31.5 23.5t-25.5 42.5q-23 -51 -44.5 -99.5t-37.5 -89.5zM307 350q0 -20 3 -33.5t16 -29.5q10 29 23 59.5t16 63.5q-1 16 -7 22q-27 -6 -38 -31.5t-13 -50.5z " />
<glyph unicode="&#xf9;" horiz-adv-x="501" d="M-31 131q2 41 21.5 109.5t43 136t43 120t19.5 62.5q0 12 -4 17.5t-4 11.5q0 4 11.5 10t39.5 6q18 0 40 -4t40.5 -14.5t30.5 -25.5t12 -36q0 -18 -8 -37q-10 -23 -38 -70.5t-58.5 -106t-56 -116t-27.5 -96.5q0 -6 12 -6t35.5 10.5t48.5 25.5t47.5 32.5t32.5 29.5 q12 51 31.5 110.5t39 113t33 93.5t13.5 52t-4.5 17.5t-4.5 11.5q0 4 11.5 10t40.5 6q18 0 39.5 -5t40 -14.5t30.5 -25.5t12 -37q0 -18 -8 -35q-10 -23 -37.5 -70.5t-58.5 -106t-56.5 -116t-29.5 -96.5q2 -6 12 -6q31 0 61.5 16.5t56.5 36t42.5 36t20.5 16.5q6 -4 6 -13 q-2 -2 -4 -6t-5 -6q-4 -8 -22 -31.5t-46 -48t-65 -44t-80 -19.5q-35 0 -57 28.5t-22 81.5q-12 -16 -32 -34.5t-43.5 -36t-52 -28.5t-61.5 -11t-57.5 26.5t-24.5 75.5zM211 772q2 14 8 29q8 23 26.5 41t24.5 14q1 0 7 -6q0 -4 6 -20.5t24.5 -38t54 -45t97.5 -41.5 q4 -2 14 -8.5t14.5 -13.5t-2 -13t-32.5 -8q-27 -2 -66 3t-67 15q-47 16 -71 31.5t-32 31t-6 29.5z" />
<glyph unicode="&#xfa;" horiz-adv-x="501" d="M-31 131q2 41 21.5 109.5t43 136t43 120t19.5 62.5q0 12 -4 17.5t-4 11.5q0 4 11.5 10t39.5 6q18 0 40 -4t40.5 -14.5t30.5 -25.5t12 -36q0 -18 -8 -37q-10 -23 -38 -70.5t-58.5 -106t-56 -116t-27.5 -96.5q0 -6 12 -6t35.5 10.5t48.5 25.5t47.5 32.5t32.5 29.5 q12 51 31.5 110.5t39 113t33 93.5t13.5 52t-4.5 17.5t-4.5 11.5q0 4 11.5 10t40.5 6q18 0 39.5 -5t40 -14.5t30.5 -25.5t12 -37q0 -18 -8 -35q-10 -23 -37.5 -70.5t-58.5 -106t-56.5 -116t-29.5 -96.5q2 -6 12 -6q31 0 61.5 16.5t56.5 36t42.5 36t20.5 16.5q6 -4 6 -13 q-2 -2 -4 -6t-5 -6q-4 -8 -22 -31.5t-46 -48t-65 -44t-80 -19.5q-35 0 -57 28.5t-22 81.5q-12 -16 -32 -34.5t-43.5 -36t-52 -28.5t-61.5 -11t-57.5 26.5t-24.5 75.5zM198 683q5 7 15.5 13t14.5 9q61 18 97 41.5t54.5 45t24.5 38t6 20.5l6 6q6 4 24.5 -14.5t26.5 -40.5 q6 -14 8.5 -27.5t-6 -28t-32 -30t-70.5 -35.5q-29 -12 -68 -16.5t-65 -1.5q-29 2 -35 8t-1 13z" />
<glyph unicode="&#xfb;" horiz-adv-x="501" d="M-31 131q2 41 21.5 109.5t43 136t43 120t19.5 62.5q0 12 -4 17.5t-4 11.5q0 4 11.5 10t39.5 6q18 0 40 -4t40.5 -14.5t30.5 -25.5t12 -36q0 -18 -8 -37q-10 -23 -38 -70.5t-58.5 -106t-56 -116t-27.5 -96.5q0 -6 12 -6t35.5 10.5t48.5 25.5t47.5 32.5t32.5 29.5 q12 51 31.5 110.5t39 113t33 93.5t13.5 52t-4.5 17.5t-4.5 11.5q0 4 11.5 10t40.5 6q18 0 39.5 -5t40 -14.5t30.5 -25.5t12 -37q0 -18 -8 -35q-10 -23 -37.5 -70.5t-58.5 -106t-56.5 -116t-29.5 -96.5q2 -6 12 -6q31 0 61.5 16.5t56.5 36t42.5 36t20.5 16.5q6 -4 6 -13 q-2 -2 -4 -6t-5 -6q-4 -8 -22 -31.5t-46 -48t-65 -44t-80 -19.5q-35 0 -57 28.5t-22 81.5q-12 -16 -32 -34.5t-43.5 -36t-52 -28.5t-61.5 -11t-57.5 26.5t-24.5 75.5zM148 735q-2 10 12.5 15.5t18.5 9.5h22t23 4q33 4 55.5 14t38.5 21v2q12 12 23.5 17t21.5 7q16 4 26.5 -5 t10.5 -23q4 -35 29.5 -67t78.5 -66q4 -6 10.5 -14.5t8.5 -18.5q2 -8 -8 -10q-20 -4 -46 5t-50.5 24.5t-45 32.5t-32.5 32q-10 -4 -19.5 -6t-19.5 -4q-18 -4 -46 -2t-52.5 6t-42 11t-17.5 15z" />
<glyph unicode="&#xfc;" horiz-adv-x="501" d="M-31 131q2 41 21.5 109.5t43 136t43 120t19.5 62.5q0 12 -4 17.5t-4 11.5q0 4 11.5 10t39.5 6q18 0 40 -4t40.5 -14.5t30.5 -25.5t12 -36q0 -18 -8 -37q-10 -23 -38 -70.5t-58.5 -106t-56 -116t-27.5 -96.5q0 -6 12 -6t35.5 10.5t48.5 25.5t47.5 32.5t32.5 29.5 q12 51 31.5 110.5t39 113t33 93.5t13.5 52t-4.5 17.5t-4.5 11.5q0 4 11.5 10t40.5 6q18 0 39.5 -5t40 -14.5t30.5 -25.5t12 -37q0 -18 -8 -35q-10 -23 -37.5 -70.5t-58.5 -106t-56.5 -116t-29.5 -96.5q2 -6 12 -6q31 0 61.5 16.5t56.5 36t42.5 36t20.5 16.5q6 -4 6 -13 q-2 -2 -4 -6t-5 -6q-4 -8 -22 -31.5t-46 -48t-65 -44t-80 -19.5q-35 0 -57 28.5t-22 81.5q-12 -16 -32 -34.5t-43.5 -36t-52 -28.5t-61.5 -11t-57.5 26.5t-24.5 75.5zM260 729q8 51 17.5 79t17.5 40t17.5 14t19.5 2t16 -6h-2q16 -4 28.5 -20.5t12.5 -20.5q-2 -4 -6 -7 t-10 -15q-10 -14 -19.5 -35t-17.5 -40.5t-17.5 -34.5t-17.5 -19q-16 0 -31.5 8t-7.5 55zM385 729q8 51 17.5 79t17.5 40t17 14t20 2q10 0 16 -6h-2q16 -4 28.5 -20.5t12.5 -20.5q-2 -4 -6 -7t-10 -15q-10 -14 -19.5 -35t-17.5 -40.5t-17.5 -34.5t-17.5 -19q-16 0 -31.5 8 t-7.5 55z" />
<glyph unicode="&#xfd;" horiz-adv-x="491" d="M-125 -51q0 37 25.5 54t56.5 22.5t58.5 4.5t31.5 1q-29 2 -53.5 26.5t-24.5 73.5q2 41 22.5 110.5t44 137t43 120t19.5 60.5q0 14 -4 18.5t-4 10.5q0 4 10.5 10t38.5 6q18 0 40 -4t40.5 -14.5t30.5 -25.5t12 -36q0 -18 -8 -37q-10 -23 -38 -70.5t-58.5 -106t-55 -116 t-28.5 -96.5q0 -6 10 -6q12 0 36.5 11.5t50.5 26.5t48.5 32.5t28.5 32.5q12 51 32.5 110.5t39 111.5t32 91t13.5 51q0 14 -4.5 18.5t-4.5 10.5q0 4 10.5 10t39.5 6q18 0 39.5 -4t40 -14.5t30.5 -25.5t12 -36q0 -8 -16 -43t-42 -84t-56.5 -109.5t-59.5 -117.5 q-14 -35 -25.5 -66.5t-25.5 -72.5q31 0 67 1t66.5 3t52 5t21.5 7q8 0 13 -20.5t5 -42.5q0 -29 -22.5 -52.5t-81.5 -23.5q-16 0 -52 5t-112 15q-29 -59 -84 -90t-113 -31q-39 0 -72.5 13.5t-59 34t-41 46t-15.5 48.5zM-63 -51q10 -27 43.5 -43.5t68.5 -16.5q63 0 105 52 q-53 4 -107.5 8t-93.5 4q-16 0 -16 -4zM59 31h138q2 6 2 12t4 12q4 16 10 32.5t10 33.5q-29 -29 -66.5 -59.5t-97.5 -30.5zM206 683q5 7 15.5 13t14.5 9q61 18 97 41.5t54.5 45t24.5 38t6 20.5l6 6q6 4 24.5 -14.5t26.5 -40.5q6 -14 8.5 -27.5t-6 -28t-32 -30t-70.5 -35.5 q-29 -12 -68 -16.5t-65 -1.5q-29 2 -35 8t-1 13z" />
<glyph unicode="&#xff;" horiz-adv-x="491" d="M-125 -51q0 37 25.5 54t56.5 22.5t58.5 4.5t31.5 1q-29 2 -53.5 26.5t-24.5 73.5q2 41 22.5 110.5t44 137t43 120t19.5 60.5q0 14 -4 18.5t-4 10.5q0 4 10.5 10t38.5 6q18 0 40 -4t40.5 -14.5t30.5 -25.5t12 -36q0 -18 -8 -37q-10 -23 -38 -70.5t-58.5 -106t-55 -116 t-28.5 -96.5q0 -6 10 -6q12 0 36.5 11.5t50.5 26.5t48.5 32.5t28.5 32.5q12 51 32.5 110.5t39 111.5t32 91t13.5 51q0 14 -4.5 18.5t-4.5 10.5q0 4 10.5 10t39.5 6q18 0 39.5 -4t40 -14.5t30.5 -25.5t12 -36q0 -8 -16 -43t-42 -84t-56.5 -109.5t-59.5 -117.5 q-14 -35 -25.5 -66.5t-25.5 -72.5q31 0 67 1t66.5 3t52 5t21.5 7q8 0 13 -20.5t5 -42.5q0 -29 -22.5 -52.5t-81.5 -23.5q-16 0 -52 5t-112 15q-29 -59 -84 -90t-113 -31q-39 0 -72.5 13.5t-59 34t-41 46t-15.5 48.5zM-63 -51q10 -27 43.5 -43.5t68.5 -16.5q63 0 105 52 q-53 4 -107.5 8t-93.5 4q-16 0 -16 -4zM59 31h138q2 6 2 12t4 12q4 16 10 32.5t10 33.5q-29 -29 -66.5 -59.5t-97.5 -30.5zM240 729q8 51 17.5 79t17.5 40t17.5 14t19.5 2t16 -6h-2q16 -4 28.5 -20.5t12.5 -20.5q-2 -4 -6 -7t-10 -15q-10 -14 -19.5 -35t-17.5 -40.5 t-17.5 -34.5t-17.5 -19q-16 0 -31.5 8t-7.5 55zM365 729q8 51 17.5 79t17.5 40t17 14t20 2q10 0 16 -6h-2q16 -4 28.5 -20.5t12.5 -20.5q-2 -4 -6 -7t-10 -15q-10 -14 -19.5 -35t-17.5 -40.5t-17.5 -34.5t-17.5 -19q-16 0 -31.5 8t-7.5 55z" />
<glyph unicode="&#x152;" horiz-adv-x="1175" d="M35 281q0 113 34.5 200.5t80 150t89.5 100.5t62 48q12 8 29.5 18.5t36 17.5t33 12.5t20.5 5.5q25 -2 43 -20.5t30.5 -42t18.5 -46.5t6 -31q0 -6 -5 -7t-18.5 -2t-36 -9t-59.5 -29q-4 -4 -42 -28.5t-82 -75.5t-80.5 -129t-36.5 -187q0 -55 14 -105t40 -87t62.5 -59.5 t81.5 -22.5q96 0 172 70q-39 41 -61.5 98t-22.5 129q0 78 22.5 135t57.5 98t80 68t90 43q-10 37 -24 68q-72 18 -95.5 38.5t-23.5 49.5q0 14 6 45v2q-92 66 -137 51q-8 -4 -2 16.5t22.5 47t39 49t46.5 24.5q18 0 49 -14.5t62 -32.5q25 -16 56.5 -43t60.5 -68q35 4 77.5 9.5 t86.5 21.5q47 12 93 29.5t85 35t65.5 32t36.5 20.5q20 12 30.5 19t18.5 7t20.5 -2t28.5 -6q29 -4 57.5 -21.5t28.5 -45.5q0 -23 -16 -45q-10 -18 -42 -53t-65.5 -75t-61.5 -80t-28 -67q0 -12 10.5 -20t10.5 -11q0 -2 -8 -2q-41 10 -59.5 37t-18.5 58q0 49 26 98 q-41 -16 -95 -35.5t-105 -19.5q16 -10 39.5 -23.5t46 -29t39 -35t16.5 -41.5q0 -23 -2 -40.5t-14.5 -29.5t-37 -18.5t-69.5 -6.5q-29 -4 -56.5 -6t-53.5 -6q-4 -33 -9.5 -64.5t-13.5 -62.5q12 23 45 43.5t92 20.5q29 0 63 -9.5t63.5 -31t49 -57t19.5 -89.5 q0 -43 -15.5 -102.5t-56.5 -110.5t-112.5 -84.5t-186.5 -27.5q-47 4 -101 23.5t-104 58.5q-35 -27 -92 -55.5t-139 -28.5q-80 0 -138.5 34.5t-95 90t-54 124t-17.5 134.5zM555 215q0 -35 8 -64.5t23 -54.5q8 8 8 10q45 72 72.5 158t35.5 178q-66 -27 -106.5 -79t-40.5 -148z M637 31q39 -35 85 -53.5t89 -22.5q104 -6 168.5 48t64.5 169q0 47 -18 69.5t-47 22.5q-20 0 -37.5 -9t-31 -20.5t-22.5 -20.5t-14 -9q-12 0 -24 11t-23.5 27.5t-17.5 35t-6 30.5q-23 -63 -53.5 -119.5t-69.5 -103.5zM834 629q2 0 3 1t3 1h-6v-2z" />
<glyph unicode="&#x153;" horiz-adv-x="774" d="M-6 248q2 61 26.5 126.5t60.5 121t80 91.5t85 36q18 0 33.5 -10.5t25.5 -25t14.5 -27.5t4.5 -21t-11 -9q-45 -12 -80.5 -51t-60.5 -89t-39 -105.5t-16 -98.5q-6 -96 49 -96q27 0 59.5 31t67.5 92q-25 12 -47.5 44t-18.5 89q2 33 13.5 69t31 65.5t48 49t63.5 19.5 q39 0 63 -25q41 43 91.5 70t103.5 27q16 0 40 -6.5t45.5 -24t36.5 -47t13 -78.5q-4 -53 -31.5 -94t-68.5 -69t-87 -42t-83 -14q-33 0 -60 10q-4 -16 -6 -30.5t-2 -30.5q-2 -31 5.5 -51.5t21.5 -32t31.5 -15.5t38.5 -4q33 0 67.5 10.5t65 27.5t56.5 37.5t38 41.5q6 8 9 13 t7 5t8 -2q4 -4 5 -8q0 -8 -5 -12l-2 -4q-29 -49 -66.5 -83t-79.5 -53.5t-82 -27.5t-73 -8q-59 0 -92 21.5t-49 55.5q-47 -43 -97 -61t-98 -18q-66 0 -112.5 54t-40.5 167zM307 350q0 -20 3 -33.5t16 -29.5q2 4 4 10l4 12q4 23 11 44.5t17 43.5q0 4 1.5 6.5t1.5 6.5 q-1 16 -7 22q-27 -6 -38 -31.5t-13 -50.5zM463 307q23 0 54.5 13.5t61 34t50 47t20.5 53.5q2 16 -8 23t-27 7q-20 0 -38.5 -15.5t-34.5 -31.5q-25 -25 -44.5 -58.5t-33.5 -72.5z" />
<glyph unicode="&#x178;" horiz-adv-x="854" d="M63 649q0 90 32 161t80 120t104.5 74.5t105.5 25.5q25 0 53.5 -4t53 -14.5t40 -28.5t15.5 -47q0 -14 -7.5 -36.5t-25.5 -63.5t-50 -106.5t-79 -164.5q35 10 49.5 31.5t18.5 21.5t14 -11t21.5 -29.5t20.5 -42t9 -50.5q0 -18 -6 -37.5t-26.5 -36t-58.5 -26.5t-99 -10 q-8 0 -14.5 1t-14.5 1q-23 -51 -47.5 -106.5t-24.5 -90.5q0 -49 52 -49q37 0 91 28.5t117.5 87t130 147.5t125.5 210q25 76 42.5 125t28.5 79t15.5 47t4.5 30q0 14 -5.5 24.5t-5.5 14.5q0 10 17.5 11t40.5 1q16 0 36.5 -4t38 -14.5t29.5 -27t12 -40.5q0 -12 -2 -26.5 t-10 -28.5q-6 -18 -27.5 -77t-50 -139.5t-63.5 -175t-72 -186.5q6 0 11 -8t8.5 -18.5t5.5 -20.5t2 -12q0 -16 -5.5 -36t-11.5 -36t-13 -26.5t-11 -10.5t-13.5 6t-31.5 17q-14 -33 -37 -82t-51.5 -95.5t-66.5 -78t-83 -27.5q-10 0 -27.5 12.5t-33 35t-26.5 56t-11 80.5 q0 35 6 71t20 65q-49 -27 -89 -35t-66 -8q-57 0 -86 33.5t-29 86.5q0 61 9.5 112.5t35.5 119.5q-59 41 -87 99t-28 132zM201 694q0 -39 11 -72.5t30 -50.5q86 205 125 300.5t39 99.5q-49 0 -87 -23.5t-65 -62.5t-40 -89.5t-13 -101.5zM449 -63q-6 -53 9 -80t25 -11 q4 8 11 19q8 18 24 61q14 37 29.5 83t32.5 97q-35 0 -59.5 -23.5t-40 -52t-23.5 -57t-8 -36.5zM573 246q10 2 20.5 3t20.5 1q6 0 12.5 12t13.5 29.5t13.5 36t10.5 30.5q-49 -68 -91 -112zM582 1139q8 51 17.5 79t17.5 40t17.5 14t19.5 2t16 -6h-2q16 -4 28.5 -20.5 t12.5 -20.5q-2 -4 -6 -7t-10 -15q-10 -14 -19.5 -35t-17.5 -40.5t-17.5 -34.5t-17.5 -19q-16 0 -31.5 8t-7.5 55zM707 1139q8 51 17.5 79t17.5 40t17 14t20 2q10 0 16 -6h-2q16 -4 28.5 -20.5t12.5 -20.5q-2 -4 -6 -7t-10 -15q-10 -14 -19.5 -35t-17.5 -40.5t-17.5 -34.5 t-17.5 -19q-16 0 -31.5 8t-7.5 55z" />
<glyph unicode="&#x2c6;" horiz-adv-x="385" d="M-2 735q-2 10 12.5 15.5t18.5 9.5h22t23 4q33 4 55.5 14t38.5 21v2q12 12 23.5 17t21.5 7q16 4 26.5 -5t10.5 -23q4 -35 29.5 -67t78.5 -66q4 -6 10.5 -14.5t8.5 -18.5q2 -8 -8 -10q-20 -4 -46 5t-50.5 24.5t-45 32.5t-32.5 32q-10 -4 -19.5 -6t-19.5 -4q-18 -4 -46 -2 t-52.5 6t-42 11t-17.5 15z" />
<glyph unicode="&#x2dc;" horiz-adv-x="448" d="M12 748q0 29 36 57.5t99 28.5q76 0 125 -82q6 -10 16.5 -25.5t23 -30t27.5 -24.5t32 -10q8 0 12 2q4 0 6 1t6 1q25 0 25 -15q0 -10 -23.5 -19t-52.5 -9q-66 0 -95.5 25.5t-47 55t-34.5 55t-58 25.5q-23 0 -38.5 -7t-24.5 -15t-14 -16l-5 -7q-14 0 -15 9z" />
<glyph unicode="&#x2000;" horiz-adv-x="682" />
<glyph unicode="&#x2001;" horiz-adv-x="1365" />
<glyph unicode="&#x2002;" horiz-adv-x="682" />
<glyph unicode="&#x2003;" horiz-adv-x="1365" />
<glyph unicode="&#x2004;" horiz-adv-x="455" />
<glyph unicode="&#x2005;" horiz-adv-x="341" />
<glyph unicode="&#x2006;" horiz-adv-x="227" />
<glyph unicode="&#x2007;" horiz-adv-x="227" />
<glyph unicode="&#x2008;" horiz-adv-x="170" />
<glyph unicode="&#x2009;" horiz-adv-x="273" />
<glyph unicode="&#x200a;" horiz-adv-x="75" />
<glyph unicode="&#x2010;" horiz-adv-x="669" d="M43 326q-16 35 8.5 64.5t54.5 45.5q47 23 122 28t152 6t143 5.5t95 22.5q6 4 11.5 -12.5t4.5 -39t-11.5 -46t-34.5 -33.5q-10 -4 -22.5 -6.5t-28.5 -4.5q-29 -4 -88.5 2.5t-128 9.5t-138 0t-114.5 -24q-14 -6 -16.5 -13t-6.5 -9q-2 0 -2 4z" />
<glyph unicode="&#x2011;" horiz-adv-x="669" d="M43 326q-16 35 8.5 64.5t54.5 45.5q47 23 122 28t152 6t143 5.5t95 22.5q6 4 11.5 -12.5t4.5 -39t-11.5 -46t-34.5 -33.5q-10 -4 -22.5 -6.5t-28.5 -4.5q-29 -4 -88.5 2.5t-128 9.5t-138 0t-114.5 -24q-14 -6 -16.5 -13t-6.5 -9q-2 0 -2 4z" />
<glyph unicode="&#x2012;" horiz-adv-x="669" d="M43 326q-16 35 8.5 64.5t54.5 45.5q47 23 122 28t152 6t143 5.5t95 22.5q6 4 11.5 -12.5t4.5 -39t-11.5 -46t-34.5 -33.5q-10 -4 -22.5 -6.5t-28.5 -4.5q-29 -4 -88.5 2.5t-128 9.5t-138 0t-114.5 -24q-14 -6 -16.5 -13t-6.5 -9q-2 0 -2 4z" />
<glyph unicode="&#x2013;" horiz-adv-x="667" d="M41 326q-16 35 8.5 64.5t54.5 45.5q47 23 122 28t152 6t143 5.5t95 22.5q6 4 11.5 -12.5t4.5 -39t-11.5 -46t-34.5 -33.5q-10 -4 -22.5 -6.5t-28.5 -4.5q-29 -4 -88.5 2.5t-128 9.5t-138 0t-114.5 -24q-14 -6 -16.5 -13t-6.5 -9q-2 0 -2 4z" />
<glyph unicode="&#x2014;" horiz-adv-x="2118" d="M58 326q-55 35 29 64.5t187 45.5q161 23 418 28t521 6t490 5.5t326 22.5q20 4 39 -12.5t15.5 -39t-39.5 -46t-118 -33.5q-34 -4 -77 -6.5t-98 -4.5q-99 -4 -303 2.5t-439 9.5t-473 0t-393 -24q-48 -6 -56.5 -13t-21.5 -9q-7 0 -7 4z" />
<glyph unicode="&#x2019;" horiz-adv-x="288" d="M219 637l11 25q12 26 26 58t25.5 63.5t11.5 47.5q0 8 -2 11.5t-2 5.5q0 14 35 14q33 0 44 -11t17 -24q-2 -2 -2 -4h-2q0 -6 -16.5 -39.5t-37 -71.5t-41 -70t-30.5 -32q-12 0 -23.5 8.5t-9.5 12.5q-4 4 -4 6z" />
<glyph unicode="&#x202f;" horiz-adv-x="273" />
<glyph unicode="&#x205f;" horiz-adv-x="341" />
<glyph unicode="&#x20ac;" horiz-adv-x="753" d="M27 297q0 14 10 25.5t25.5 19.5t34 12t32.5 8q4 20 8 39t10 41q-16 0 -35.5 -1t-37 -4t-29.5 -8t-12 -13q-2 0 -4 6t-2 10q0 18 14 30.5t35.5 21t45 12.5t44.5 4q25 63 61.5 120.5t78.5 101.5t87 69.5t90 25.5q53 0 75 -17.5t26 -21.5q6 10 14 26.5t8 31.5q0 10 -3 15 t-3 9q0 8 18 8q6 0 13.5 -1t17.5 -3q29 -2 53.5 -14t24.5 -47q0 -10 -4 -19.5t-8 -23.5q-6 -18 -31 -56t-51.5 -83.5t-48 -88.5t-21.5 -69q0 -16 10.5 -24.5t10.5 -10.5t-4 -2q-27 0 -57.5 27.5t-30.5 62.5q0 37 10 73t26 75q-6 8 -18 19t-27 17q-18 0 -44.5 -15t-54.5 -42 t-55.5 -62.5t-52.5 -76.5h12.5t20.5 1t19.5 2t11.5 5q-2 0 3 -1t5 -24q0 -14 -2 -24t-12 -16.5t-31.5 -9.5t-60.5 -3q-12 -33 -23 -67h21.5t21.5 2h10h11.5t21.5 1t22.5 2t12.5 5q-2 0 3 -1t5 -24q0 -20 -11 -36.5t-40 -16.5q-12 0 -35.5 1t-54.5 3q-2 -10 -2 -18.5v-18.5 q0 -31 8 -62.5t23.5 -57t36 -41t46.5 -15.5q4 0 9.5 1t9.5 1q61 20 105 61.5t75 82t49.5 70.5t28.5 30t10 -17q0 -10 -7 -24t-13 -25q-2 -2 -24.5 -38.5t-60.5 -79.5t-88.5 -79t-107.5 -36q-49 0 -83 26.5t-55.5 65.5t-31.5 84t-10 82v10q-29 0 -60.5 -6t-31.5 -18 q-4 0 -5 6t-1 10z" />
<glyph unicode="&#x2122;" horiz-adv-x="1046" d="M25 915q0 49 30.5 83t85 55.5t126 31t151.5 9.5q0 8 -1 12t-1 8t18 4q16 0 33.5 -3t26.5 -19q16 0 33.5 -1t33.5 -1q63 0 131 4t125 11t97.5 16.5t48.5 19.5q2 0 2 1t4 1q14 0 23 -20.5t9 -32.5q0 -10 -6 -23.5t-26 -23.5q-16 -10 -49 -18.5t-101 -8.5q-18 0 -65 1 t-100.5 3t-101.5 4t-69 4q-12 -31 -40.5 -94.5t-58.5 -134t-52.5 -133t-22.5 -90.5q0 -10 4 -14.5t4 -6.5h-6q-23 0 -34 22.5t-11 45.5q0 35 13.5 87t29.5 89q20 59 47 126.5t43 110.5q-29 2 -56.5 4.5t-53.5 2.5q-31 0 -68 -5.5t-68.5 -16.5t-53 -30.5t-21.5 -50.5 q0 -39 26.5 -57.5t49.5 -18.5q18 0 27 7.5t14.5 15.5t8.5 15t9 7q18 0 35.5 -18t17.5 -37q0 -4 -4 -15.5t-14 -22.5t-29.5 -20t-50.5 -9q-25 0 -50.5 9t-46 26.5t-33.5 40t-13 48.5zM104.5 661.5q4.5 20.5 12.5 22.5q4 2 6 0t10 -6q16 -4 42 -5t32 -11q2 -4 2 -16.5 t-10 -18.5q-20 -10 -51 -13.5t-42 17.5q-6 10 -1.5 30.5zM385 647q2 18 12.5 51t23.5 69t26.5 67.5t21.5 48.5q2 4 4 10t2 10q0 6 -2 8t-2 4q0 10 29 11q18 0 41.5 -11.5t19.5 -33.5q0 -10 -8 -24.5t-29 -47.5q33 37 57.5 75t47.5 38q8 0 21.5 -1t25.5 -6.5t20.5 -12.5 t8.5 -19q0 -10 -5.5 -24.5t-21.5 -45.5q29 37 55.5 72t61.5 35q23 0 45 -10.5t22 -32.5q0 -12 -6 -19q-4 -12 -19.5 -38.5t-33 -59.5t-30.5 -64.5t-15 -52.5q0 -2 6 -2q10 0 25.5 8t31 19.5t27.5 19.5t14 8q4 -2 4 -4q-4 -4 -4 -7t-2 -3q-2 -4 -11 -16.5t-24.5 -25.5 t-35 -23.5t-44.5 -10.5q-16 0 -30.5 11.5t-14.5 39.5q0 14 6.5 39t15.5 52.5t19.5 55t16.5 48.5v-4q4 6 4 10l-2 2h-2q-4 0 -8 -6q-10 -8 -35 -34.5t-51.5 -61.5t-46 -73t-19.5 -67q0 -8 -8 -8q-12 0 -24.5 7.5t-12.5 25.5q0 16 5 43t12.5 56.5t16.5 58t17 51.5v6q0 2 -2 2 q-6 0 -12 -6q-10 -8 -36 -34.5t-53.5 -61.5t-51 -72t-25.5 -65v-5q0 -2 2 -2q0 -4 -8 -4q-10 0 -23.5 8.5t-9.5 28.5zM895 645.5q0 12.5 2 16.5q6 10 31.5 11t42.5 5q8 4 10 6t6 0q8 -2 12.5 -22.5t-2.5 -30.5q-10 -20 -40.5 -17.5t-51.5 13.5q-10 6 -10 18.5z" />
<glyph unicode="&#x25fc;" horiz-adv-x="614" d="M0 0v614h614v-614h-614z" />
</font>
</defs>
</svg>
